<?xml version="1.0" encoding="UTF-8" standalone="no"?>
<svg
   xmlns:dc="http://purl.org/dc/elements/1.1/"
   xmlns:cc="http://creativecommons.org/ns#"
   xmlns:rdf="http://www.w3.org/1999/02/22-rdf-syntax-ns#"
   xmlns:svg="http://www.w3.org/2000/svg"
   xmlns="http://www.w3.org/2000/svg"
   height="160.76054"
   width="250"
   viewBox="0 0 250 160.76055"
   y="0px"
   x="0px"
   id="Contours"
   version="1.1">
  <metadata
     id="metadata9">
    <rdf:RDF>
      <cc:Work
         rdf:about="">
        <dc:format>image/svg+xml</dc:format>
        <dc:type
           rdf:resource="http://purl.org/dc/dcmitype/StillImage" />
        <dc:title></dc:title>
      </cc:Work>
    </rdf:RDF>
  </metadata>
  <defs
     id="defs7" />
  <path
     id="path3"
     d="m 31.98074,127.54823 c 43.83159,16.92574 93.93446,18.8813 139.11472,5.46209 19.4882,-5.79926 38.84153,-14.97017 50.50747,-30.81698 -2.69732,9.10349 -7.61995,17.6675 -14.29584,24.74799 -9.84525,10.58702 -23.26446,17.80237 -37.08826,22.99473 C 136.36735,162.6135 97.99785,164.2319 63.13489,154.38665 39.33096,147.64333 15.999073,134.62872 4.8051585,113.58956 2.4449965,109.2064 0.69173253,104.41864 0.15226753,99.496005 -1.1289635,87.290595 5.8166565,75.287485 15.661907,67.330365 25.50716,59.373245 37.91487,54.922655 50.39001,51.618425 c 39.24613,-10.45215 81.39188,-10.99161 120.84031,-1.41609 7.28279,1.75326 13.89125,-4.18086 18.8813,-9.50809 14.36328,-15.30734 29.60318,-30.61468 49.15882,-39.3809899 3.64139,-1.61839998 9.17091,-2.29272998 10.51958,1.28123 0.6069,1.68583 -0.2023,3.57396 -1.14637,5.19235 -6.13642,10.3172899 -16.8583,17.2629099 -26.83842,24.4108299 -9.98011,7.14792 -19.96023,15.57707 -23.19702,27.04072 -5.59696,-3.50653 -12.13798,-5.59696 -18.81387,-6.00156 10.92418,3.57396 22.05066,7.35022 30.74955,14.49814 8.69888,7.14792 14.4307,18.679 11.19391,29.13115 -2.2253,7.080495 -8.09199,12.677445 -14.36327,17.128045 -16.04911,11.46364 -35.60474,17.8698 -55.29524,21.57862 -30.61468,5.73183 -62.51059,5.32723 -92.99039,-1.28123 C 39.66813,130.04326 20.1125,122.89534 6.4235555,109.13896 11.481047,118.37731 21.86576,123.6371 31.98074,127.54823 M 205.75613,36.513385 c -2.8322,1.95557 -6.20386,3.6414 -9.71038,3.37166 -0.74177,-0.0674 -1.95557,0.26974 -1.55097,0.94407 4.046,2.15786 9.98012,-0.0674 11.26135,-4.31573 M 242.17006,8.4611751 c 1.4161,-0.33717 3.10193,-1.68583 2.29273,-2.8322 -3.50652,0.53947 -7.01305,1.4161 -10.31728,2.69733 2.56246,0.74177 5.39466,0.8092 8.02455,0.13487 z" />
</svg>
