<?xml version="1.0" encoding="UTF-8" standalone="no"?>
<svg
   xmlns:dc="http://purl.org/dc/elements/1.1/"
   xmlns:cc="http://creativecommons.org/ns#"
   xmlns:rdf="http://www.w3.org/1999/02/22-rdf-syntax-ns#"
   xmlns:svg="http://www.w3.org/2000/svg"
   xmlns="http://www.w3.org/2000/svg"
   height="145.47246"
   width="249.99973"
   version="1.1"
   id="svg2"
   viewBox="0 0 249.99973 145.47246">
  <metadata
     id="metadata10">
    <rdf:RDF>
      <cc:Work
         rdf:about="">
        <dc:format>image/svg+xml</dc:format>
        <dc:type
           rdf:resource="http://purl.org/dc/dcmitype/StillImage" />
        <dc:title></dc:title>
      </cc:Work>
    </rdf:RDF>
  </metadata>
  <defs
     id="defs8" />
  <path
     id="path4"
     d="M 197.09228,4.5651177e-8 C 196.71364,-5.9995435e-4 193.86074,5.9134 193.85949,6.70276 c -6.2e-4,0.39472 0.22311,1.40279 0.49048,2.24377 0.26742,0.84098 0.48929,1.88548 0.49049,2.31405 0.002,0.68003 -0.70874,4.64072 -0.86676,4.83087 -0.0321,0.0386 -0.46045,-0.1103 -0.93997,-0.33528 l -0.86969,-0.41581 -2.26061,1.37701 c -1.24363,0.75502 -2.2861,1.33812 -2.31917,1.29721 -0.0334,-0.0413 -0.37806,-0.61559 -0.76281,-1.27891 -1.0863,-1.87463 -3.22897,-3.81046 -5.46119,-4.90994 -8.48824,-4.18096 -18.55876,1.06232 -19.37621,10.08342 -0.4627,5.10202 2.49523,10.09909 7.34331,12.39162 2.187,1.03396 3.06751,1.85652 3.07759,2.85797 0.0139,1.41641 -0.24405,1.5574 -2.2489,1.22767 -0.9885,-0.16282 -2.45427,-0.3708 -3.25694,-0.4656 l -1.45826,-0.17496 1.26793,1.37189 c 1.32826,1.42916 1.5165,1.82014 0.90263,1.81917 -0.20138,-3.2e-4 -1.41182,0.32799 -2.70643,0.73206 -2.00184,0.62534 -2.44094,0.84968 -2.84846,1.50219 -0.26716,0.42781 -0.4724,1.19955 -0.47364,1.74816 -0.002,0.85788 -0.13202,1.08527 -0.99048,1.75915 -0.54191,0.4255 -0.97772,0.93661 -0.97804,1.13763 -3.2e-4,0.20358 -0.19589,0.34568 -0.43557,0.32137 -0.78163,-0.0793 -1.00741,0.009 -1.15373,0.43558 -0.0794,0.23182 -0.60195,0.6242 -1.15373,0.87262 -1.33484,0.59988 -4.23466,2.86723 -5.73498,4.48973 -1.52995,1.65476 -3.13089,4.0874 -3.71375,5.64347 -0.42371,1.13259 -1.99298,4.66848 -3.11639,7.00144 -0.27604,0.57393 -0.63973,1.07433 -0.8016,1.11493 -0.64273,0.16062 -5.04898,2.96631 -4.88579,3.11053 0.0959,0.0848 1.26879,0.55031 2.60907,1.03953 1.34025,0.48922 2.64416,1.00139 2.89238,1.13177 0.61037,0.32163 0.59083,1.7815 -0.041,3.14127 -0.63221,1.35944 -0.65253,2.66531 -0.0403,3.2101 0.25783,0.22941 0.61291,0.73287 0.77452,1.11713 0.16163,0.38388 0.485,0.75321 0.7284,0.82942 0.2434,0.0759 0.51025,0.29851 0.58712,0.49561 0.21292,0.5467 1.18473,0.84181 1.62225,0.48609 0.2031,-0.16537 0.61335,-0.3635 0.918,-0.43558 0.47365,-0.11193 0.56459,-0.0326 0.56369,0.54173 -9.4e-4,0.59719 0.58236,1.43112 0.83309,1.18593 0.27932,-0.2731 1.13384,-2.73768 1.13469,-3.2767 0.002,-1.02209 -0.51529,-2.38299 -1.1713,-3.12005 -0.33742,-0.3794 -0.76233,-1.05314 -0.95021,-1.48609 -0.31127,-0.71733 -0.29474,-0.83978 0.16691,-1.44948 0.4669,-0.61707 1.47001,-4.51272 1.47949,-5.75035 0.002,-0.2883 0.39099,-1.03851 0.87262,-1.65519 0.8761,-1.12123 1.34452,-1.99854 1.75768,-3.35724 0.12069,-0.39741 0.32798,-0.73844 0.45974,-0.7467 0.64441,-0.0417 1.86627,-1.03592 2.2262,-1.81478 0.25379,-0.54927 0.92447,-1.24009 1.82576,-1.86091 0.78782,-0.54257 2.1944,-1.82381 3.12151,-2.84845 2.27126,-2.51072 3.26118,-3.44641 3.63982,-3.44581 0.20248,3.2e-4 0.3704,0.4701 0.4568,1.30087 0.0741,0.71512 0.49866,2.0968 0.94803,3.0732 l 0.8199,1.78477 -0.0124,7.95019 -0.87262,1.56368 c -1.56571,2.84876 -4.61679,9.25171 -5.68812,11.93408 -0.57966,1.45232 -1.21358,2.8902 -1.41654,3.19618 -0.32902,0.49653 -0.32452,0.59188 0.022,0.93265 0.35362,0.34776 0.33321,0.44034 -0.14275,1.06954 -0.38056,0.50308 -0.44586,0.77157 -0.24817,0.96559 0.17401,0.17111 0.19287,0.48865 0.0571,0.89751 -0.1161,0.34995 -0.33546,1.45602 -0.48609,2.45021 -0.15061,0.99385 -0.42211,2.24202 -0.60395,2.77232 -0.18187,0.52985 -0.51531,2.10462 -0.7467,3.49633 -0.304,1.82937 -0.61811,2.82665 -1.11127,3.62224 -0.37545,0.60507 -0.74047,1.41657 -0.8265,1.80526 -0.23882,1.07985 -5.19376,10.68553 -5.47363,10.61125 -0.13506,-0.0359 -0.3153,-1.13602 -0.39605,-2.45168 -0.0807,-1.31528 -0.23212,-2.76941 -0.33601,-3.23352 -0.17153,-0.76939 -4.81612,-12.15306 -6.33893,-15.53143 -0.35144,-0.77961 -0.64439,-1.51981 -0.64421,-1.63469 1.8e-4,-0.1145 0.6083,-0.59534 1.35431,-1.07906 l 1.36603,-0.88433 -1.3038,-1.34846 c -2.22906,-2.31238 -4.46181,-5.59086 -8.23716,-12.11636 l -1.75988,-3.04025 0.003,-1.92167 c 0.005,-3.06291 1.10555,-5.53428 4.30892,-9.71592 2.79134,-3.64392 4.43221,-7.98073 3.83893,-10.15297 -0.14595,-0.53483 -0.57861,-1.47677 -0.96193,-2.0959 -0.9836,-1.59024 -1.4879,-3.20881 -1.48535,-4.82355 0.005,-2.87585 1.87561,-5.06103 6.72838,-7.88212 7.32537,-4.25835 11.40308,-7.40537 11.84696,-9.12807 0.20978,-0.81482 -0.71024,-2.44232 -1.959,-3.45461 -0.48492,-0.39286 -2.66933,-1.66217 -4.85357,-2.82649 -6.71182,-3.57826 -9.70045,-5.52489 -12.79498,-8.35063 -2.37947,-2.1727 -2.5686,-2.26214 -4.14933,-1.8243 -0.70789,0.19623 -1.65928,0.44996 -2.1303,0.56076 -1.28883,0.30246 -1.65728,1.10485 -1.27452,2.79355 0.16708,0.73775 0.53359,1.62494 0.80819,1.96851 0.92858,1.16047 2.9774,1.86578 6.33673,2.19619 1.58092,0.15531 1.58469,0.15846 6.51023,3.79574 6.44609,4.76021 6.51971,4.82862 6.51901,5.26865 -0.001,0.82805 -1.28316,1.65075 -9.12442,5.83015 -4.93673,2.63096 -7.76034,4.01457 -8.1925,4.01389 -0.38127,-6e-4 -0.64574,-1.02239 -0.64349,-2.45167 0.001,-0.90316 0.0195,-0.93343 0.77745,-0.87335 0.6198,0.0496 0.85626,-0.0518 1.1186,-0.52709 0.38991,-0.70666 0.23741,-2.52738 -0.32357,-3.84406 -0.23289,-0.5464 -0.30995,-1.17388 -0.20864,-1.70277 0.31877,-1.66481 0.16656,-4.67886 -0.31991,-6.21374 -1.21194,-3.82354 -3.26844,-5.49882 -7.21228,-5.86748 -3.14121,-0.29396 -4.16629,0.0443 -6.00145,1.98096 -2.05429,2.16829 -2.9202,4.13078 -3.67129,8.31329 -0.33908,1.88749 -0.73693,3.88735 -0.88945,4.43996 -0.3229,1.16809 -2.10674,5.02449 -2.32503,5.02414 -0.0817,-1.3e-4 -1.67064,-1.05722 -3.52488,-2.35285 -1.85427,-1.29558 -4.32968,-3.00562 -5.51023,-3.79354 -1.18059,-0.7883 -2.15023,-1.52357 -2.15007,-1.62664 5.1e-4,-0.31886 3.62286,-4.13969 5.25474,-5.5483 5.34691,-4.61531 9.65177,-6.74198 13.44286,-6.62955 2.75008,0.0816 3.54873,-0.38174 4.43776,-2.57027 0.77799,-1.91476 0.67004,-2.28854 -0.65519,-2.29063 -0.4641,-7.3e-4 -1.62154,-0.32925 -2.57467,-0.7284 -2.92632,-1.22625 -3.78083,-1.00498 -5.81257,1.52123 -1.16113,1.44364 -1.33951,1.5549 -7.29939,4.55562 -5.86453,2.95315 -9.608409,5.08229 -10.242279,5.82868 -0.51246,0.60377 -0.82061,0.39226 -1.83308,-1.25696 -1.37931,-2.24732 -1.67194,-2.51679 -2.58418,-2.33966 -0.60094,0.11687 -0.89515,0.0202 -1.42167,-0.47365 -0.96739,-0.90761 -4.183206,-2.33306 -5.653713,-2.50585 -1.12405,-0.13246 -1.390327,-0.0745 -2.259142,0.51391 -0.900896,0.60979 -1.099346,0.65453 -2.447285,0.50293 -1.775075,-0.19977 -2.224936,-0.008 -3.648595,1.55856 -0.886818,0.97537 -1.265978,1.19626 -2.390185,1.42313 -2.334686,0.47128 -3.191148,1.68934 -2.192526,3.09149 0.595616,0.83633 0.25661,1.54048 -1.050508,2.2306 -1.52336,0.8039 -1.69522,1.33832 -0.933381,2.74816 0.706644,1.30779 0.74263,1.97294 0.183019,3.11858 -0.35458,0.72587 -0.363249,0.98642 -0.09663,1.86383 0.170354,0.56028 0.655084,1.33751 1.079061,1.72694 0.729088,0.66974 0.847713,0.69833 2.304532,0.56734 0.847353,-0.076 1.541107,-0.0843 1.540991,-0.009 -1.2e-4,0.0755 -0.272067,0.34459 -0.601024,0.59736 -1.679565,1.29114 -1.245985,4.79577 0.592969,4.79867 0.740711,10e-4 1.495875,-0.73964 1.460466,-1.43557 -0.01644,-0.32293 -0.04529,-0.31757 -0.164716,-7.4e-4 -0.07483,0.1987 -0.299988,0.5502 -0.506586,0.78184 -1.305731,1.46442 -2.86718,-1.25084 -1.841867,-3.2013 0.573048,-1.09004 1.103442,-1.07728 1.423126,0.0366 0.279234,0.97429 1.004627,1.90038 1.502195,1.90117 0.918369,0.001 1.079057,2.79776 0.26354,4.64859 l -0.401169,0.90776 -1.422396,-0.70352 c -2.82707,-1.39176 -4.96873,-1.50776 -6.068065,-0.32064 -0.606999,0.6555 -0.836589,3.46002 -1.043918,12.74667 l -0.189604,8.26132 -3.152261,-0.005 c -3.524426,-0.006 -6.479193,-0.34916 -7.902608,-0.90995 -0.522845,-0.2059 -1.003176,-0.33154 -1.069544,-0.26647 -0.06634,0.0647 0.2733,1.18093 0.7489,2.4751 0.4756,1.29417 0.854614,2.51497 0.854314,2.70497 -4.38e-4,0.27982 -1.334621,1.04542 -1.82503,1.04465 -0.06851,-1.1e-4 -0.285078,-0.3068 -0.480964,-0.68008 -0.587261,-1.11724 -2.652196,-3.23561 -3.499257,-3.58418 -0.79814,-0.32821 -3.034546,-0.22288 -3.035127,0.14568 -1.58e-4,0.0991 0.603611,0.42757 1.351387,0.72621 2.49384,0.99655 3.479909,2.47901 2.323561,3.50145 -0.483208,0.42747 -0.522122,0.42761 -1.223275,-0.082 -0.856034,-0.62249 -1.069191,-0.64968 -1.481691,-0.16398 -0.617269,0.72729 0.857016,1.74348 4.018287,2.76792 1.609313,0.52166 2.278471,0.54956 3.786959,0.12152 0.496664,-0.14097 0.554622,-0.0716 0.551972,0.65667 -0.0029,0.89652 -0.574903,2.13819 -1.12152,2.43703 -0.692393,0.37849 -0.341172,0.61092 0.56442,0.36896 4.369576,-1.16764 15.308957,-6.44406 16.184429,-7.80964 0.27278,-0.42555 0.55484,-0.77644 0.636894,-0.78111 0.315442,-0.0194 3.452863,2.98324 3.792814,3.6303 0.564356,1.07376 0.445011,1.47878 -1.028547,3.62224 -2.412112,3.5083 -3.207258,4.13911 -7.890165,6.13175 -7.172047,3.05124 -10.938728,5.0169 -13.737144,7.1808 -0.947755,0.73303 -2.465358,1.88222 -3.368218,2.54977 -1.152326,0.85164 -1.755813,1.4878 -2.026348,2.14787 -0.477965,1.16526 -1.804284,7.40825 -2.997795,14.10171 -1.065916,5.97702 -2.074264,10.69727 -2.393839,11.20202 -0.260734,0.41229 -0.193956,-0.39567 0.564416,-7.05196 l 0.512444,-4.5095 -0.537332,-2.11786 c -1.302698,-5.21687 -2.774487,-8.80635 -6.538046,-15.94504 -4.33603,-8.22505 -5.710555,-11.36393 -5.707155,-13.04535 5.36e-4,-0.34056 0.27751,-0.94043 0.613465,-1.3221 0.899636,-1.0225 0.998213,-1.97238 0.370426,-3.6464 -0.295722,-0.78837 -0.78338,-2.25175 -1.089308,-3.2467 -1.322988,-4.30535 -2.17495,-16.93994 -1.229134,-18.20345 0.323387,-0.43211 0.352545,-0.42357 1.140554,0.12811 0.514689,0.36051 0.709384,0.47284 0.716689,0.35798 0.219398,0.26398 0.595979,0.54159 0.481694,0.47218 -0.495218,-0.30085 0.509735,1.31645 2.123714,3.42092 0.883426,1.1516 1.816814,2.50473 2.076858,3.00585 0.259665,0.50113 0.730643,1.08254 1.03294,1.29063 0.656456,0.45205 0.793886,0.46442 1.493408,0.10541 1.104054,-0.56674 3.134614,-2.35869 7.950195,-7.00583 l 3.475097,-3.35431 1.104683,0.76134 c 1.979113,1.37203 4.131264,1.12933 5.458255,-0.62444 l 0.459734,-0.60908 -1.18594,-1.1874 c -0.649361,-0.6483 -1.128319,-1.2041 -1.068813,-1.24378 0.05953,-0.0397 1.056313,-0.53404 2.225468,-1.10102 1.168822,-0.56698 2.722823,-1.56325 3.449479,-2.20424 1.205321,-1.06325 1.298856,-1.20106 1.013906,-1.66617 -0.222625,-0.3634 -0.236767,-0.6499 -0.0571,-0.97804 0.437133,-0.79789 0.296663,-1.44517 -0.362368,-1.69179 -0.492369,-0.18451 -0.610864,-0.40125 -0.60981,-1.07101 0.0017,-1.05079 -0.750865,-1.6645 -1.632499,-1.33747 -0.546425,0.20276 -0.588337,0.16705 -0.587112,-0.61054 0.0011,-0.6918 -0.09171,-0.86193 -0.610541,-0.99048 -0.16779,-0.0415 -0.349032,-0.0601 -0.528546,-0.0586 -1.734749,0.0149 -3.919842,1.96293 -4.641276,4.28476 -0.258751,0.83389 -0.793032,1.84658 -1.25036,2.35651 l -0.812589,0.90775 -0.904828,-0.87627 -0.892384,-0.86457 -1.318444,0.70058 -1.330157,0.68814 0.480232,1.26574 c 0.26576,0.68854 0.491579,1.4375 0.491215,1.6691 -7.57e-4,0.48048 -3.385658,3.1709 -5.134684,4.08784 -2.678665,1.40519 -3.47022,1.0463 -5.112723,-2.36603 -0.585604,-1.21668 -1.066823,-2.33012 -1.066613,-2.46412 2.1e-4,-0.13438 -0.251663,-0.75001 -0.480233,-0.93265 -0.08908,-0.0708 -0.331787,-0.18883 -0.599559,-0.31186 0.07169,-0.10814 0.146696,-0.21655 0.224013,-0.32137 0.0731,-0.0525 0.290643,0.0569 0.469981,0.17276 -0.04984,0.10633 -0.08527,0.20286 -0.08272,0.2533 0.0077,0.13255 0.07102,0.0906 0.141287,-0.0805 0.01663,-0.0405 0.04119,-0.0647 0.0593,-0.0915 0.0377,0.0287 0.07249,0.0588 0.09224,0.0791 -0.0055,0.0246 -0.0058,0.045 0.01171,0.0454 0.0215,4.1e-4 0.01309,-0.019 -0.01025,-0.0439 0.0076,-0.0346 0.04497,-0.096 0.08272,-0.16106 0.06396,0.0163 0.133885,0.0671 0.234991,0.15008 0.389048,0.31724 1.958004,0.10518 2.211559,-0.29575 0.218473,-0.34501 -0.311816,-0.81727 -1.456804,-1.27965 -0.357326,-0.14415 -0.578813,-0.20664 -0.68155,-0.2079 -0.300306,-0.2685 -0.986342,-0.73627 -1.609069,-1.34846 -0.55054,-0.54135 -1.318508,-1.57242 -1.702046,-2.29282 -0.524985,-0.98682 -0.855925,-1.35144 -1.362369,-1.45168 -0.66333,-0.13102 -2.642383,-1.99358 -2.571732,-2.4202 0.02006,-0.12109 0.644064,-0.18875 1.387989,-0.15886 l 1.352853,0.0476 0.81332,-1.33309 c 0.808283,-1.32565 1.109076,-1.5566 1.401897,-1.09077 0.412241,0.65564 0.803688,0.11832 1.190333,-1.63176 0.227457,-1.0302 0.415299,-2.14637 0.415813,-2.47291 5.13e-4,-0.32659 0.288046,-1.1536 0.637625,-1.82869 0.52138,-1.00578 0.913231,-1.37299 2.191061,-2.09077 1.66281,-0.93404 2.265637,-1.60818 2.922393,-3.25109 0.599297,-1.49941 0.522178,-3.09771 -0.204979,-4.53366 C 43.505533,7.14994 41.804709,5.94693 37.699794,4.90334 35.531601,4.35209 34.833158,4.27111 33.043147,4.38943 30.403004,4.56384 27.710466,5.29476 25.642,6.39162 c -2.123234,1.12553 -3.06972,2.04865 -4.017557,3.92825 -0.69972,1.3877 -0.793114,1.78694 -0.793555,3.61199 -5.63e-4,2.4543 0.687675,4.11576 2.073932,5.01975 0.597593,0.38937 1.090586,1.06973 1.655192,2.26939 0.4426,0.94029 0.808477,1.85952 0.808197,2.03733 -7.08e-4,0.44881 -0.927666,0.97003 -2.001458,1.12445 -0.778519,0.11181 -1.042471,0.003 -1.950945,-0.76208 l -1.057098,-0.87628 -2.352847,0.0652 c -2.190672,0.061 -2.452794,0.0133 -3.904087,-0.6735 -0.856903,-0.40563 -1.594137,-0.73859 -1.63323,-0.73865 -0.03906,-6e-5 -0.218066,0.33172 -0.389458,0.73572 -0.288134,0.67887 -0.253905,0.79347 0.385797,1.45022 0.38061,0.39052 0.644985,0.73591 0.587114,0.7833 -0.05782,0.047 -0.668867,0.39861 -1.354315,0.76867 -1.108338,0.59874 -1.326435,0.85712 -2.0146355,2.37847 -0.425588,0.94113 -1.123703,2.6451 -1.546847,3.77158 -0.423144,1.12633 -0.884525,2.31342 -1.027815,2.64494 -0.357317,0.82565 -1.441125,3.89991 -1.44143,4.09369 -1.36e-4,0.0862 1.404152,-0.53982 3.107603,-1.38725 1.7034895,-0.84706 3.1421035,-1.47963 3.2130215,-1.40995 0.104397,0.10253 -2.4030915,11.51119 -4.3118465,19.62145 -0.405002,1.72063 -0.716984,2.07169 -1.272324,1.41361 -0.207477,-0.24589 -0.213198,-0.66441 -0.0095,-1.58857 0.150988,-0.68496 0.220541,-1.37338 0.155198,-1.54099 -0.06537,-0.16799 -0.621832,-0.57435 -1.245238,-0.8997 l -1.128107,-0.58858 -0.931183,1.04538 c -0.623948,0.70776 -1.07466,1.02242 -1.400435,0.96486 -0.433467,-0.0765 -0.544496,0.2052 -1.03952817,2.80526 -0.3027803,1.59081 -0.6180695,3.61834 -0.7130284,4.50951 -0.1720144,1.61458 -0.1772059,1.62233 0.6661764,2.45167 0.81823017,0.8043 2.26569717,1.31669 2.97436817,1.05124 0.174452,-0.0653 0.459232,-0.6786 0.637626,-1.35651 0.178394,-0.67787 0.426921,-1.23007 0.554171,-1.22986 0.127257,2e-4 0.786243,0.27735 1.457535,0.612 1.384945,0.69068 1.383096,0.69594 0.935576,3.61419 -0.154052,1.0049 -0.225931,1.88675 -0.155929,1.95534 0.06998,0.069 1.21336,0.27896 2.539523,0.47657 1.3261645,0.19723 2.4494095,0.39828 2.4926715,0.4407 0.04329,0.0428 -0.09211,0.38825 -0.295021,0.77013 -1.629588,3.06733 -0.747467,10.49378 2.414341,20.35718 0.446534,1.39277 0.864336,3.07802 0.934843,3.74084 0.07054,0.66324 0.482402,2.61462 0.910685,4.33893 0.999514,4.02411 1.04699,6.00901 0.175695,7.83599 -0.701839,1.47162 -1.534857,2.37011 -3.592961,3.86017 -1.60522,1.16202 -3.6469275,3.37249 -7.0578105,7.6398 l -2.368952,2.95314 0.760612,2.59003 c 1.394697,4.75224 1.647753,5.4596 4.590761,12.76716 l 1.8748115,4.63981 1.729131,-0.13543 c 2.711741,-0.20377 2.834746,-0.24171 2.836008,-1.04246 0.0026,-1.62298 2.955763,-11.2449 5.627361,-18.31985 3.426367,-9.07377 4.782185,-12.62629 5.669088,-14.82206 l 0.980231,-2.40336 -0.887259,-11.81768 C 25.707298,81.43131 25.610105,79.25161 25.937038,80.11983 c 0.04995,0.13261 0.742329,1.38187 1.548311,2.77524 0.805945,1.39338 2.12802,3.79969 2.932641,5.34332 1.40364,2.69287 8.015335,14.8626 8.771567,16.14417 0.398265,0.67477 0.393205,0.69499 -6.675674,12.1515 -3.69309,5.98524 -5.576062,10.53204 -7.958246,19.23639 -0.611926,2.23572 -1.081127,4.08819 -1.040992,4.11712 0.299971,0.21512 19.911118,1.31833 22.322034,1.25549 2.409683,-0.0629 2.36267,-0.0395 1.882864,-0.56076 -0.400554,-0.43512 -0.352162,-0.46071 1.317714,-0.61933 l 1.729861,-0.17057 7.31e-4,-0.83967 c 0.0055,-3.48189 2.336107,-5.27344 3.615656,-2.77818 0.295299,0.57554 0.611722,1.63073 0.702049,2.34846 l 0.162516,1.31112 2.05856,0.004 c 2.052037,0.003 2.070029,3e-4 2.071003,-0.61786 9.6e-4,-0.60934 -0.401656,-5.62904 -0.588581,-7.38797 l -0.09224,-0.8858 2.928248,0.14275 2.928248,0.15374 7.31e-4,-0.55198 c 4.8e-4,-0.30377 -0.223502,-1.80902 -0.488283,-3.34918 -0.264819,-1.53979 -0.966688,-6.03288 -1.572469,-9.97728 l -1.106145,-7.16981 0.02196,-13.97946 1.8609,-1.14787 c 3.643531,-2.24679 13.556546,-8.6221 15.564371,-10.00875 1.122449,-0.77507 2.092075,-1.35805 2.15446,-1.29648 0.06239,0.0612 -0.730689,1.61972 -1.769393,3.46045 -5.08998,9.0198 -6.841722,12.5207 -7.704953,15.39381 -0.524423,1.74544 -0.505207,1.31798 -1.464859,26.55262 l -0.147876,4.13029 1.84626,0.17496 c 1.016804,0.0951 2.353974,0.13323 2.975835,0.0857 0.621857,-0.0477 1.128956,-0.0261 1.12884,0.0476 -1.2e-4,0.074 -0.819265,0.37652 -1.824299,0.66471 -1.005039,0.28781 -2.137275,0.78093 -2.518294,1.10102 -0.634282,0.53319 -0.694758,0.73965 -0.780378,2.53001 -0.05138,1.07426 -0.03238,2.19906 0.04319,2.49633 l 0.128843,0.54099 5.057086,-0.0607 5.057816,-0.0615 0.0022,-1.25402 c 0.01799,-3.06215 2.279236,-4.95538 3.486079,-2.91654 0.242498,0.40942 0.509146,1.27062 0.584919,1.9224 0.282588,2.4297 0.121339,2.27763 2.325027,2.2811 l 1.952411,0.004 0.0015,-0.69033 c 6e-4,-0.37887 -0.11725,-2.13899 -0.265006,-3.90116 -0.240497,-2.87331 -0.232266,-3.22193 0.123719,-3.41654 0.357485,-0.19529 0.36756,-0.27875 0.03661,-0.90922 -0.467197,-0.88844 -0.473096,-1.79755 -0.0088,-2.17422 0.198971,-0.16093 0.881983,-0.41517 1.518296,-0.5732 0.635935,-0.15805 1.278515,-0.46866 1.412875,-0.67643 0.36713,-0.56862 -0.27422,-2.21447 -2.928974,-7.60979 -4.300359,-8.74037 -5.327868,-11.65492 -5.281098,-14.93186 0.07267,-5.02992 2.115089,-10.05046 6.234243,-15.30376 6.016649,-7.6735 6.785439,-8.88075 7.499239,-11.82793 1.26948,-5.24055 -0.74074,-9.54823 -6.04829,-12.91869 -0.768957,-0.48867 -1.511077,-1.12187 -1.644215,-1.4063 -0.347001,-0.74096 0.335441,-3.72002 1.255485,-5.49778 0.6097,-1.17832 0.72009,-1.63216 0.60395,-2.47291 -0.10308,-0.74575 -0.0608,-1.02378 0.16618,-1.02342 0.45469,7.1e-4 1.97864,1.63987 4.70789,5.07026 1.32071,1.65929 2.86541,3.50332 3.439959,4.10101 0.57414,0.59735 2.56499,3.25471 4.42458,5.90921 1.85926,2.6546 3.60294,5.12327 3.87261,5.48314 0.47812,0.63772 0.49191,0.71556 0.10176,3.01463 -0.58656,3.45447 -0.6614,4.17435 -0.7306,7.98387 -0.0697,3.84626 -0.12673,3.69526 1.75768,4.27159 l 0.85871,0.26573 0.14422,5.16616 c 0.0776,2.83917 0.26336,6.0879 0.41215,7.21521 0.14915,1.12723 0.29768,3.40515 0.33309,5.06294 l 0.0659,3.01463 -0.82284,-0.082 c -0.7835,-0.076 -0.81866,-0.0516 -0.69472,0.59736 0.0717,0.37491 0.31883,4.67714 0.54904,9.55048 l -0.10249,20.3074 2.12811,0.72841 c 1.30151,0.002 3.09099,-11.71628 2.91214,-11.89235 0.053,0.0273 0.35333,0.23185 0.39971,0.18448 0.0558,-0.0573 0.33673,-2.05408 0.6303,-4.43996 0.29319,-2.38611 0.58516,-4.7121 0.64275,-5.17641 0.51499,-4.12966 0.70524,-7.82623 1.12884,-21.77885 0.1199,-3.95262 0.27597,-7.24286 0.35213,-7.31695 0.0758,-0.0743 1.88583,0.0582 4.02195,0.29428 2.79413,0.30926 4.72753,0.38377 6.88065,0.27526 l 2.98754,-0.14495 1.85431,2.59223 c 1.01853,1.42831 2.72088,3.71997 3.79062,5.09149 2.05501,2.63393 3.21295,4.78209 3.83527,7.15079 0.51927,1.9761 0.49058,2.30194 -0.1918,2.30087 -0.5533,-8.8e-4 -0.55625,0.0311 -0.37847,1.62151 0.10022,0.89522 0.18594,3.10038 0.1918,4.89018 0.01,2.92336 -0.10974,3.82653 -1.14348,8.98387 -1.12332,5.6036 -1.17323,5.77276 -2.10395,6.92311 -0.52457,0.64827 -0.95514,1.28658 -0.95534,1.41361 -2e-4,0.12665 0.27024,0.43764 0.59883,0.6918 0.51047,0.39439 0.62685,0.75386 0.79575,2.48608 0.19113,1.95609 0.21488,2.03444 0.84333,2.10687 0.63932,0.0732 0.65762,0.10486 0.52782,1.48536 -0.11866,1.25788 -0.0812,1.43485 0.38506,1.68008 0.28693,0.15101 1.09411,0.29523 1.79868,0.32503 1.27208,0.0543 1.28537,0.0508 1.87188,-0.9751 l 0.59004,-1.03441 0.64569,0.63397 c 1.03079,1.01374 4.37733,2.47455 6.55927,2.86383 2.46571,0.44017 3.85433,0.46755 4.65738,0.11054 1.07831,-0.47987 0.80791,-1.30272 -0.83162,-2.48609 -0.89667,-0.64755 -1.17428,-0.98939 -1.1735,-1.48681 6.1e-4,-0.38441 -0.23365,-0.83145 -0.56295,-1.0937 -0.721,-0.57439 -0.53473,-0.734 0.5183,-0.43631 1.52819,0.43243 1.4572,0.63265 1.46485,-4.22034 l 0.007,-4.46412 1.24231,-4.63468 c 0.67888,-2.5497 1.61673,-6.03976 2.0937,-7.76279 0.47731,-1.72306 0.86471,-3.62427 0.86603,-4.2218 0.001,-0.59757 0.1293,-1.46971 0.27306,-1.93264 0.14412,-0.46297 0.35731,-1.43257 0.47364,-2.16178 0.15317,-0.95816 0.60133,-1.95681 1.62884,-3.61053 0.78145,-1.25868 1.89159,-3.26751 2.46559,-4.45972 0.95609,-1.98554 1.32597,-3.01433 2.06734,-5.80745 0.14388,-0.54176 0.84501,-1.94265 1.56954,-3.11566 1.01429,-1.64272 1.63348,-2.34882 2.67495,-3.06807 l 1.35359,-0.92972 2.4546,2.48901 c 8.72116,8.83918 10.69522,10.77113 12.15443,11.92749 l 1.62151,1.29136 -0.44948,1.69106 c -0.67732,2.51253 -1.06738,7.28578 -0.92386,11.30816 0.14275,3.98865 -0.16149,6.30285 -1.70205,12.76863 -0.48462,2.03306 -0.82185,3.75655 -0.7467,3.83088 0.0751,0.0737 1.0228,0.0455 2.11712,-0.0776 1.09432,-0.12308 2.03769,-0.17326 2.08198,-0.10029 0.0443,0.0726 0.14722,1.19143 0.24305,2.48608 0.15845,2.13277 0.22686,2.36868 0.70131,2.47437 1.58402,0.35337 2.72963,0.57485 2.76354,0.53367 0.0215,-0.0257 0.33827,-0.61473 0.69619,-1.31039 0.97406,-1.89349 1.61186,-1.7367 2.84479,0.72914 0.79316,1.5859 1.41529,1.98869 3.80673,2.46851 5.89249,1.1819 8.36772,-1.85285 3.06441,-3.75767 -1.43923,-0.51705 -2.3631,-1.33802 -3.13616,-2.78989 -0.39288,-0.73774 -0.42115,-0.72655 0.89532,-0.89531 0.65239,-0.0841 1.37532,-0.28273 1.60028,-0.44656 0.36891,-0.2693 0.37089,-0.40158 0.0498,-1.31113 -0.19559,-0.55372 -0.47395,-1.7423 -0.62005,-2.64786 -0.14572,-0.90522 -0.90564,-4.62741 -1.6918,-8.27523 -1.87647,-8.70657 -2.1014,-9.87471 -2.69545,-13.86818 -0.65213,-4.38638 -1.02412,-5.64575 -2.32796,-7.7584 -0.59242,-0.95968 -1.58794,-2.85206 -2.20497,-4.2035 -0.61699,-1.35106 -1.64294,-3.45387 -2.27452,-4.66323 -0.63116,-1.20937 -1.17833,-2.26479 -1.21961,-2.34919 -0.0413,-0.0844 0.2335,-0.26335 0.612,-0.4019 0.37849,-0.13821 1.57754,-0.58826 2.66032,-0.99634 l 1.96485,-0.74524 0.92752,1.03733 c 0.50912,0.56783 1.38943,1.95848 1.95974,3.08638 0.57033,1.12789 1.0759,2.09403 1.11419,2.15372 0.0379,0.0597 0.43927,-0.26674 0.9063,-0.72327 0.53343,-0.52162 1.31694,-1.83563 2.08784,-3.55197 1.16861,-2.60193 1.60755,-3.32264 3.0893,-4.97729 l 0.64787,-0.72328 -0.11859,0.83895 c -0.32259,2.1931 -0.69728,6.9953 -0.62445,8.06439 0.071,1.04795 0.18201,1.25434 0.86749,1.64714 0.42945,0.24588 1.52771,0.57482 2.43338,0.74012 l 1.63469,0.30161 2.54246,6.37845 c 1.398,3.51023 2.54141,6.60311 2.54098,6.8726 -0.002,1.26028 -1.71046,7.04506 -4.42239,14.9509 -1.63421,4.76434 -3.09986,9.21847 -3.24962,9.90114 -0.26158,1.19285 -0.23767,1.30771 0.61859,2.98096 1.11102,2.17107 2.82276,3.99554 4.42678,4.73571 1.77901,0.82054 4.11186,0.79793 5.90408,-0.0593 1.7357,-0.82936 5.03909,-3.42027 6.01828,-4.7196 1.15566,-1.53422 1.1978,-1.9975 0.27526,-2.93337 -0.95635,-0.97019 -1.73139,-3.24337 -2.7284,-8.0234 -1.15912,-5.5596 -0.93332,-8.89118 0.89166,-13.62148 1.01773,-2.63861 1.01185,-3.44155 0.06,-8.01974 -1.02351,-4.92295 -1.79293,-10.16285 -1.53586,-10.41432 0.21338,-0.20844 4.87503,-0.7853 5.14054,-0.63616 0.0963,0.0543 0.78892,1.1633 1.54904,2.45241 0.76054,1.28907 2.29677,3.86577 3.41361,5.72399 3.48404,5.79678 3.40971,5.58011 3.2445,8.66908 -0.10938,2.04947 -0.40298,3.65535 -1.28185,7.00437 -2.19317,8.35719 -2.89887,13.24047 -3.24596,22.35059 l -0.12298,3.31331 0.63543,0.001 c 0.57095,9e-4 0.62568,-0.0723 0.48316,-0.6325 -0.0883,-0.34696 -0.20685,-0.97699 -0.26867,-1.39238 -0.0913,-0.61503 0.003,-0.51314 0.50512,0.53001 0.57736,1.19856 0.66353,1.27928 1.40922,1.2101 0.77812,-0.0724 0.79768,-0.11034 0.87262,-1.35578 0.0669,-1.11733 0.16675,-1.30127 0.72035,-1.50658 0.34761,-0.12871 0.99085,-0.17253 1.43484,-0.09 0.65435,0.12143 0.82257,0.0744 0.91801,-0.28551 0.0818,-0.3099 0.13302,-0.25266 0.15227,0.19546 0.0167,0.38658 0.26217,0.81635 0.63396,1.08272 0.33987,0.24358 0.99635,1.15351 1.4429,2.0161 0.76324,1.47318 0.86405,1.57398 1.73864,1.64714 0.69774,0.0586 1.07766,-0.065 1.5183,-0.46925 0.58425,-0.53627 0.85787,-0.33177 0.29356,0.21962 -0.22993,0.22458 0.23778,0.29941 2.09296,0.30234 2.05766,0.003 2.44558,-0.0638 2.87042,-0.47877 0.95222,-0.93037 0.27718,-3.00305 -1.04173,-3.18886 -0.35071,-0.0496 -0.57272,-0.26361 -0.62225,-0.61054 -0.0726,-0.506 0.0119,-0.54078 1.27086,-0.5388 2.0972,0.003 2.14584,-0.059 1.57833,-1.52781 -0.67473,-1.74662 -2.06508,-6.83072 -2.61932,-9.56513 -0.57927,-2.85836 -0.87468,-5.64241 -1.3448,-12.54315 -0.4381,-6.43516 -0.98985,-11.74877 -1.35505,-13.11855 -0.52754,-1.97907 -4.75817,-10.73182 -7.93701,-16.41942 -0.44512,-0.79632 -0.8912,-1.99672 -0.98389,-2.65958 -0.30072,-2.14918 -2.00668,-8.36198 -3.26281,-11.85575 -2.00823,-5.5853 -3.24684,-11.18026 -3.60833,-16.3323 l -0.13836,-1.95607 1.45534,2.17642 c 2.54963,3.8159 5.22233,6.80559 9.04023,10.11637 3.95528,3.42961 6.09751,6.047 9.07465,11.05999 0.92611,1.55923 1.81104,2.83285 1.95973,2.83308 0.14867,2.3e-4 0.44135,-0.34337 0.64787,-0.7694 0.21555,-0.44454 0.31136,-0.43517 0.38214,1.15447 l 0,-16.15881 c -0.51828,-0.0161 -1.00419,-0.0572 -1.3814,-0.12884 -0.74349,-0.14146 -1.95391,-0.56076 -2.6918,-0.9246 -1.47465,-0.72725 -4.27933,-3.28804 -5.84917,-5.35942 -1.4344,-1.89287 -3.92091,-5.97048 -5.44288,-8.9253 -1.74711,-3.39076 -3.3347,-5.73208 -4.20204,-6.17348 -0.45732,-0.23268 -1.81151,-0.42311 -3.78622,-0.52416 -1.69209,-0.087 -3.08144,-0.24676 -3.08125,-0.36164 1.8e-4,-0.11487 0.56668,-0.91772 1.26134,-1.7811 0.69466,-0.86342 1.2089,-1.62507 1.14348,-1.6896 -0.0654,-0.0642 -1.70479,0.58007 -3.64786,1.43264 -1.94346,0.85223 -3.60637,1.5096 -3.69546,1.45534 -0.0891,-0.0539 -0.13785,-0.6931 -0.11566,-1.41508 0.0341,-1.12694 0.13135,-1.3881 0.72035,-1.8404 0.67455,-0.51881 0.70377,-0.5089 1.51756,-0.0776 0.67505,0.35748 0.9411,0.37645 1.44656,0.15154 1.4783,-0.65746 1.95977,-3.54683 0.93777,-5.62444 l -0.52782,-1.071 0.72035,-1.67862 c 0.39516,-0.92165 0.95436,-2.69972 1.25329,-3.94435 0.53346,-2.22186 0.54245,-2.29412 0.12372,-4.09589 -0.53796,-2.31451 -1.31043,-3.74365 -3.03732,-5.62004 -1.73782,-1.88784 -3.57808,-3.05101 -5.11126,-3.24084 -0.64535,-0.0798 -1.89638,-0.34933 -2.77525,-0.5915 -0.87886,-0.24182 -2.51587,-0.51094 -3.63322,-0.59224 -1.7831,-0.12983 -2.25828,-0.0658 -3.92971,0.48829 -1.38657,0.45988 -2.19399,0.90326 -2.96632,1.62957 -1.10746,1.04132 -2.94573,3.66745 -4.13761,5.93043 -0.52891,1.00394 -0.72318,1.20863 -0.80088,0.84992 -0.22046,-1.01763 0.18063,-4.42527 0.69107,-5.91286 0.49949,-1.45462 0.53218,-2.18067 0.14568,-3.16397 -0.10459,-0.26563 0.0106,-0.42937 0.35432,-0.51684 0.27751,-0.0706 0.58023,-0.31941 0.6713,-0.55124 0.2649,-0.67335 -0.36404,-2.58477 -1.04172,-3.17715 -0.67318,-0.58829 -1.79098,-0.72486 -2.25842,-0.26794 -0.59976,0.58595 -0.57224,-0.0631 0.0739,-1.95606 0.63299,-1.85389995 0.67,-2.65655995 0.14495,-2.65738995435 z M 188.00373,18.86451 c 0.006,-0.006 0.0285,-0.003 0.0586,0 0.45195,0.0515 3.38075,1.14499 3.64348,1.37554 0.11388,0.0996 0.0405,0.43516 -0.16545,0.74743 -0.47802,0.72347 -0.9863,2.04126 -1.62957,4.20863 -0.28268,0.95316 -0.95156,2.35168 -1.49853,3.13835 -0.54171,0.77858 -1.21608,2.09335 -1.49853,2.9202 -0.28246,0.82685 -0.61077,1.55945 -0.73207,1.63249 -0.12094,0.0731 -0.33891,0.56816 -0.48389,1.09297 -0.145,0.52444 -0.3623,0.95407 -0.48389,0.95388 -0.12157,-1.9e-4 -0.58691,0.37101 -1.03587,0.8265 -0.5195,0.52714 -1.15541,0.88504 -1.74231,0.98682 -1.05528,0.1828 -1.22339,-0.0353 -0.29355,-0.37994 0.68808,-0.25553 1.42684,-1.67139 1.19106,-2.27672 -0.0945,-0.24242 0.37087,-0.9368 1.32064,-1.98828 0.80723,-0.89416 1.75552,-2.07858 2.10981,-2.63103 1.56357,-2.44077 2.18163,-6.18914 1.49633,-9.0988 -0.18397,-0.78193 -0.30261,-1.46284 -0.25622,-1.50804 z m 9.83598,5.23936 7.4e-4,0 c 0.0881,0.002 0.22563,0.54908 0.31552,1.21962 0.0896,0.6717 0.30552,1.36036 0.4795,1.53147 0.17401,0.17112 0.48738,0.70514 0.69179,1.18594 0.51037,1.20254 2.35933,3.09206 4.11053,4.19472 1.18707,0.74745 1.42791,1.01436 1.30307,1.40629 -0.27308,0.8567 -0.41827,3.2034 -0.25329,4.07173 0.20492,1.08167 1.24573,2.31512 1.96046,2.31624 1.21571,0.002 2.11945,-1.6573 2.12298,-3.8975 l 0.002,-1.4385 1.02269,0.85359 c 0.56608,0.47623 1.6265,1.05612 2.34992,1.28111 l 1.31698,0.40409 -0.0849,1.58785 -0.0615,1.57613 -4.92897,0.25695 c -2.70527,0.14376 -4.96915,0.27415 -5.03439,0.29136 -0.0648,0.0176 0.80399,0.59925 1.92679,1.29136 l 2.04465,1.26866 -0.847,0.28624 c -2.42856,0.81979 -4.38038,2.304 -5.26426,4.0073 -0.4919,0.94804 -0.68191,1.79932 -0.85212,3.77305 -0.22583,2.62111 -1.20826,13.60452 -1.86822,20.86816 -0.50983,5.61245 -0.49396,5.55303 -1.65739,6.78622 -1.35118,1.43229 -2.66361,2.15104 -4.9912,2.73059 -1.05991,0.26378 -1.97559,0.52504 -2.03513,0.58346 -0.0596,0.0581 0.31356,0.27544 0.82211,0.48462 0.50856,0.20918 0.86991,0.41558 0.81112,0.47291 -0.0592,0.0577 -1.04808,0.30531 -2.20058,0.54832 l -2.09443,0.44582 -2.21961,-2.30453 c -3.14856,-3.26631 -3.04761,-3.01836 -1.8975,-4.8587 5.63721,-9.02306 8.59536,-17.92259 8.16615,-24.55189 -0.0812,-1.2597 -0.46182,-4.18108 -0.84846,-6.50218 -0.6741,-4.04758 -0.68567,-4.24404 -0.27453,-4.82136 0.23614,-0.33135 0.65409,-1.04492 0.93192,-1.57466 0.27746,-0.53008 0.88415,-1.37559 1.35578,-1.87335 0.63487,-0.67093 0.96886,-1.34014 1.2855,-2.59809 0.23484,-0.93371 0.78476,-2.42487 1.2284,-3.31185 0.44364,-0.8866 0.8935,-2.09404 0.99268,-2.69032 0.0992,-0.59667 0.33214,-1.37924 0.51976,-1.73719 0.18726,-0.35756 0.34326,-1.07277 0.34407,-1.58638 0.001,-0.66492 0.16103,-1.08812 0.56661,-1.46046 0.31314,-0.28737 0.65289,-0.5163 0.74158,-0.51684 z m -64.41414,3.61493 c 0.35127,-0.0683 0.8074,2.07775 0.53587,3.13029 -0.16361,0.63559 -0.95773,0.86395 -1.27086,0.36603 -0.13629,-0.21706 0.11916,-1.66513 0.55784,-3.20936 0.0526,-0.18546 0.11203,-0.27419 0.17715,-0.28696 z m -36.146289,1.1508 c 0.19914,-0.0258 0.75219,0.37909 1.53879,1.1303 2.030509,1.93838 3.458519,2.97246 7.930429,5.76499 l 3.95973,2.46851 -0.42387,0.64349 c -2.60853,3.9457 -7.0079,7.72105 -11.671999,10.02632 l -1.35358,0.66471 0.85798,0.35798 c 0.46979,0.1911 2.027729,0.54388 3.468509,0.78843 1.44074,0.24454 3.74252,0.82673 5.11492,1.29648 4.91905,1.68408 13.42526,4.85016 13.56437,5.04903 0.23696,0.33836 -0.22022,2.93493 -0.77086,4.37115 -0.28497,0.74254 -0.95301,1.99009 -1.48682,2.77085 -0.53346,0.78047 -1.11559,1.52365 -1.28476,1.65446 -0.63009,0.48721 -4.59721,-0.5902 -8.19398,-2.23352 -3.08109,-1.40765 -4.93429,-2.70308 -6.82647,-4.77378 -3.334989,-3.64952 -4.688619,-5.8527 -5.666159,-9.16761 -0.30624,-1.03876 -0.8302,-2.28152 -1.14861,-2.75182 -0.91774,-1.35671 -2.9545,-2.64411 -5.510964,-3.48315 -1.409963,-0.46321 -2.315825,-0.88572 -2.31551,-1.08565 2.85e-4,-0.18042 0.470933,-0.68868 1.037332,-1.12591 0.565987,-0.43761 1.526407,-1.24947 2.131765,-1.81478 0.719579,-0.67155 1.244067,-0.98044 1.518297,-0.89458 0.23096,0.0722 0.60816,0.0521 0.83528,-0.0329 1.03754,-0.38862 1.5177,-3.05976 0.74744,-4.14127 -0.3474,-0.48766 -0.34026,-0.6563 0.003,-1.806 0.42379,-1.42086 0.97749,-2.03343 2.60394,-2.82649 0.60906,-0.2969 1.18633,-0.66765 1.2833,-0.81552 0.014,-0.021 0.0299,-0.03 0.0586,-0.0337 z m 124.921989,0.70351 c 0.18409,-0.009 0.35072,0.24865 0.66838,0.95534 0.60683,1.35033 0.54855,3.31238 -0.12372,4.31477 -0.47838,0.71316 -1.62844,0.85492 -2.12957,0.26135 -0.24757,-0.29348 -0.20138,-0.58015 0.20205,-1.50658 0.27389,-0.62919 0.56773,-1.70291 0.66252,-2.39238 0.0948,-0.6891 0.32796,-1.38593 0.51976,-1.54099 0.0712,-0.058 0.13925,-0.0887 0.20058,-0.0915 z M 205.43413,33.516 c 0.0489,7e-5 0.54542,0.21863 1.10468,0.48462 0.55967,0.26635 1.13047,0.48516 1.25768,0.48536 0.33009,5.2e-4 0.5287,0.61994 0.52708,1.6464 -0.002,1.25144 -0.39665,2.43605 -1.02854,3.09297 -0.65521,0.68158 -0.71897,0.67997 -1.48169,0.09 -1.09654,-0.84817 -1.51815,-3.34766 -0.82797,-4.96045 0.19683,-0.45955 0.39947,-0.83902 0.44876,-0.83894 z M 92.999641,34.25904 c 0.21717,0.0125 0.46542,0.87696 0.46706,1.76134 0.001,0.7647 -0.15697,1.30038 -0.50805,1.73645 -0.50346,0.62549 -1.07059,0.82212 -1.30673,0.44656 -0.10438,-0.16657 0.99383,-3.57473 1.25329,-3.88725 0.029,-0.0353 0.0632,-0.059 0.0944,-0.0571 z m -52.897333,1.82649 c 0.01016,2e-5 0.01478,7.3e-4 0.02343,0 0.02475,0.0582 0.02993,0.11748 0.02343,0.18448 -0.122186,-0.0904 -0.118363,-0.18459 -0.04685,-0.18448 z m -4.519753,9.26644 c -0.02766,0.11779 -0.04301,0.21512 -0.05857,0.29869 -0.0088,-0.13 0.0035,-0.23839 0.05857,-0.29869 z M 206.78405,55.0108 c 0.0173,-0.006 0.0292,-0.003 0.0469,0 0.0651,0.0122 0.13649,0.0833 0.21156,0.20718 0.12014,0.19936 0.90408,1.22755 1.7489,2.2811 3.21138,4.0051 5.32591,7.52094 5.56001,9.28182 0.27933,2.10278 -3.87427,10.12348 -6.97216,13.47433 -0.84075,0.90921 -1.64431,1.25596 -1.91873,0.81332 -1.06847,-1.7222 -0.87438,-10.28778 0.51757,-22.05556 0.33038,-2.79325 0.54915,-3.91676 0.806,-4.00219 z m -17.38574,31.03797 c 0.43065,-0.0174 0.88806,0.0388 0.98755,0.19692 0.071,0.11351 -0.12533,0.4388 -0.43704,0.72474 -0.54885,0.50394 -0.57865,0.5105 -0.97584,0.0791 -0.22543,-0.24519 -0.41093,-0.57085 -0.41069,-0.72621 2.6e-4,-0.162 0.40503,-0.25715 0.83602,-0.27452 z m -130.650383,43.1492 c 0.0045,-0.004 0.0068,-0.003 0.01171,0 0.01354,0.007 0.03151,0.034 0.04685,0.0922 0.06174,0.23206 0.06101,0.61955 -0.0015,0.85139 -0.06209,0.23223 -0.117126,0.0378 -0.116395,-0.42606 4.8e-4,-0.30452 0.0269,-0.49075 0.0593,-0.51757 z m -12.904791,1.46339 1.046118,0.002 c 1.843479,0.01 1.934829,0.41898 0.338946,1.62225 -1.104848,0.83327 -1.388737,0.69781 -1.386526,-0.70351 l 0.0015,-0.92094 z m 63.718684,11.91724 0.51537,1.26646 c 0.28909,0.69672 0.64413,1.34145 0.7855,1.43924 0.14172,0.0974 0.77613,0.17211 1.41069,0.17496 l 1.15299,0.0132 0.71962,-1.44875 0.7079,-1.43704 -2.15372,0.72181 -3.13835,-0.72986 z" />
</svg>
