<?xml version="1.0" encoding="UTF-8" standalone="no"?>
<svg
   xmlns:dc="http://purl.org/dc/elements/1.1/"
   xmlns:cc="http://creativecommons.org/ns#"
   xmlns:rdf="http://www.w3.org/1999/02/22-rdf-syntax-ns#"
   xmlns:svg="http://www.w3.org/2000/svg"
   xmlns="http://www.w3.org/2000/svg"
   height="250"
   width="250"
   version="1.1"
   id="svg2"
   viewBox="0 0 250 250">
  <metadata
     id="metadata30">
    <rdf:RDF>
      <cc:Work
         rdf:about="">
        <dc:format>image/svg+xml</dc:format>
        <dc:type
           rdf:resource="http://purl.org/dc/dcmitype/StillImage" />
        <dc:title></dc:title>
      </cc:Work>
    </rdf:RDF>
  </metadata>
  <defs
     id="defs28" />
  <g
     transform="matrix(0.48611111,0,0,0.48611111,-35.902778,8.3333333)"
     id="g4158">
    <g
       style="fill:#ffffff"
       id="g4">
      <g
         style="stroke:#000000;stroke-width:10.28571415"
         id="g6">
        <circle
           style="stroke-width:10.28571415"
           r="252"
           cx="331"
           cy="240"
           id="ellipse8" />
        <circle
           style="stroke-width:10.28571415"
           r="230"
           cx="330"
           cy="241"
           id="ellipse10" />
      </g>
      <rect
         style="stroke-width:0"
         transform="matrix(0.96775755,0.25188357,-0.25188357,0.96775755,93.955041,-73.992869)"
         x="290"
         y="278"
         width="92"
         height="104"
         id="rect12" />
    </g>
    <g
       transform="matrix(1.0818,0,0,1.0818,44.1234,73.206899)"
       id="g14">
      <path
         transform="matrix(0.98425736,0.17674118,-0.17674118,0.98425736,30.449275,-46.391279)"
         d="m 269.37,122.58 c 0,16.01 -15.288,127.36 -6.627,167.79 3.618,16.894 22.516,14.692 25.663,0 7.992,-37.314 -6.316,-71.656 -6.316,-168.67 0,-13.282 10.2,-13.625 15.72,-30.761 4.929,-15.3 -2.029,-97.701 -4.271,-97.701 -2.558,0 -1.306,71.358 -6.155,71.358 -4.893,0 -2.419,-70.39 -5.513,-71.358 -3.094,-0.96775 -0.82498,71.358 -6.549,71.358 -5.783,0 -2.025,-71.358 -5.119,-71.358 -3.094,0 -2.224,71.358 -6.944,71.358 -5.196,0 -2.403,-71.358 -4.724,-71.358 -3.945,0 -8.565,77.496 -6.111,93.865 2.453,16.369 16.946,19.471 16.946,35.482 z"
         id="path16" />
      <path
         transform="matrix(0.99823019,-0.0594684,0.0594684,0.99823019,-8.9635523,21.190798)"
         d="m 344.67,132.78 c 0,97.421 -15.58,137.03 -6.627,171.43 4.265,16.388 22.516,14.456 25.662,0 7.253,-33.319 -6.315,-75.972 -6.315,-171.43 0,-11.11 27.645,-9.201 27.645,-47.177 0,-47.53 -17.592,-79.003 -34.358,-79.003 -15.648,0 -32.635,34.502 -32.635,79.003 0,35.661 26.628,38.02 26.628,47.177 z"
         id="path18" />
      <path
         transform="matrix(0.87009774,0.49287921,-0.49287921,0.87009774,92.422312,-82.951634)"
         d="m 194.32,145 c 0,79.145 -15.58,106.86 -6.628,134.8 4.265,13.314 22.516,11.745 25.663,0 7.253,-27.068 -6.315,-46.942 -6.315,-133.73 0,-10.617 15.195,-25.422 15.195,-52.781 0,-48.642 -6.892,-114.77 -21.909,-114.77 -14.395,0 -11.099,85.243 -11.099,131.86 0,20.024 5.093,25.236 5.093,34.618 z"
         id="path20" />
      <path
         transform="matrix(0.98425736,0.17674118,-0.17674118,0.98425736,14.044324,-47.462362)"
         d="m 273.9,55.206 a 0.46613,0.90798 0 1 1 -0.905,-0.3056 0.46956077,0.91466283 0 1 1 0.93201,0.2247 l -0.027,0.0809 z"
         id="path22" />
      <path
         transform="matrix(0.98425736,0.17674118,-0.17674118,0.98425736,14.028221,-47.465578)"
         d="M 273.93,55.125 A 0.46954588,0.91463383 0 1 1 272.99802,54.9003 0.46954588,0.91463383 0 1 1 273.93,55.125 Z"
         id="path24"
         style="opacity:0.3;fill-opacity:0.77700028" />
    </g>
  </g>
</svg>
