<?xml version="1.0" encoding="UTF-8" standalone="no"?>
<svg
   xmlns:dc="http://purl.org/dc/elements/1.1/"
   xmlns:cc="http://creativecommons.org/ns#"
   xmlns:rdf="http://www.w3.org/1999/02/22-rdf-syntax-ns#"
   xmlns:svg="http://www.w3.org/2000/svg"
   xmlns="http://www.w3.org/2000/svg"
   enable-background="new 0 0 612 792"
   version="1.1"
   viewBox="0 0 250.00002 299.99994"
   xml:space="preserve"
   id="svg2"
   width="250.00002"
   height="299.99994"><metadata
     id="metadata10"><rdf:RDF><cc:Work
         rdf:about=""><dc:format>image/svg+xml</dc:format><dc:type
           rdf:resource="http://purl.org/dc/dcmitype/StillImage" /><dc:title></dc:title></cc:Work></rdf:RDF></metadata><defs
     id="defs8" /><g
     transform="matrix(0.99956654,0,0,1.0003679,271.45722,-152.25414)"
     id="g4142"><rect
       style="opacity:0;fill:#0f1bff;fill-opacity:1;stroke:#000000;stroke-width:5.00015831;stroke-linecap:butt;stroke-linejoin:miter;stroke-miterlimit:4;stroke-dasharray:none;stroke-dashoffset:0;stroke-opacity:1"
       id="rect4134"
       width="245.10828"
       height="294.88947"
       x="-269.07486"
       y="154.69823" /><path
       style="clip-rule:evenodd;fill-rule:evenodd"
       id="path4"
       d="m -160.93219,253.32958 c -0.35777,0.73663 -0.90806,1.32384 -0.83307,1.81832 0.22425,1.48154 -0.0853,2.64574 -0.80723,4.01946 -0.72511,1.3798 -0.58299,3.20664 -0.81905,4.83759 -1.62923,11.256 -0.0241,22.23141 3.17782,33.01068 1.20779,4.06739 2.7276,8.09121 6.02147,11.1409 0.42931,0.39788 0.43718,1.27371 0.56849,1.9417 0.0698,0.35531 -0.13155,0.78312 -0.0103,1.10458 0.74626,1.9821 1.11853,4.02602 2.93906,5.61438 18.47503,16.12205 36.86549,32.33903 55.272408,48.53654 0.722655,0.63564 1.31868,1.41631 2.06494,2.01837 0.393905,0.31757 0.98526,0.39471 1.683815,0.65291 -0.481195,-2.72481 0.0081,-3.79824 1.587185,-4.05619 1.57317,-0.25674 2.390245,0.45044 2.847346,2.52113 0.344485,0.0206 0.761259,-0.0613 1.06468,0.0857 0.646679,0.31222 1.472604,0.62103 1.762009,1.17028 0.18392,0.3492 -0.377925,1.19315 -0.76421,1.69591 -0.416035,0.54121 -0.998535,0.96709 -1.54268,1.40123 -2.02658,1.61609 -4.01087,1.56207 -5.94844,-0.13458 -19.857643,-17.39139 -39.715293,-34.78473 -59.580303,-52.16492 -0.78659,-0.68821 -1.3895,-1.55137 -2.86063,-1.20071 -0.627,0.14942 -1.60366,-1.13815 -2.6349,-1.93804 -0.23605,0.0387 -0.81019,0.13311 -1.22696,0.20197 -0.44161,-0.60132 -0.76668,-1.50976 -1.20435,-1.56645 -3.22231,-0.41614 -3.9339,-3.65466 -6.14219,-5.17317 -0.39047,-0.26843 -0.78806,-0.58527 -1.04305,-0.96977 -0.22769,-0.34337 -0.34842,-0.80841 -0.36317,-1.22503 -0.0217,-0.62396 0.0905,-1.25205 -0.23236,-1.99597 0.60144,-0.51712 1.20287,-1.03426 1.73915,-1.49565 -2.90858,-4.81423 -5.78494,-9.57541 -8.23002,-13.6226 -1.83798,1.50222 -3.98431,3.0952 -5.89188,4.93178 -0.46816,0.45069 -0.24933,1.70321 -0.18171,2.57466 0.13523,1.74265 0.26925,3.4994 0.61471,5.20822 0.46324,2.28848 1.08312,4.54922 1.71579,6.79998 0.82174,2.92461 1.61693,5.86308 2.61768,8.72952 1.09099,3.12416 1.53187,6.29114 1.42982,9.58028 -0.23802,7.67727 -0.39956,15.35648 -0.62897,23.03375 -0.0332,1.11382 -0.3976,2.22375 -0.38137,3.33174 0.0369,2.51966 0.0367,5.06707 0.45366,7.53636 0.11459,0.67895 1.58816,1.40779 2.54712,1.61124 1.61349,0.34214 3.33026,0.18104 4.97178,0.43511 0.80848,0.12507 1.83554,0.50617 2.2592,1.11528 1.16721,1.67815 0.77748,2.52404 -1.15443,3.22636 -3.67942,1.33867 -7.45154,1.52144 -11.29889,0.92717 -1.00051,-0.15453 -2.02659,-0.14942 -3.02906,-0.21682 -0.47702,3.15262 1.85963,4.22653 3.92825,5.11769 1.93389,0.83347 4.11537,1.24352 6.22924,1.48444 1.87512,0.21366 3.22676,1.11504 4.42445,2.34178 0.95306,0.97657 0.0608,1.68545 -0.74355,1.90252 -2.06814,0.55826 -4.1852,0.95564 -6.2976,1.33235 -5.34258,0.95273 -10.63451,-0.19492 -15.94758,-0.4519 -1.88299,-0.091 -3.76327,-0.26477 -5.64084,-0.44095 -1.74849,-0.16426 -2.31501,-0.85904 -2.24419,-2.61116 0.49078,-12.16712 0.57512,-24.34493 -0.463,-36.47361 -0.37301,-4.35477 -1.95012,-8.60662 -2.95407,-12.91128 -2.07354,-8.88672 -4.69958,-17.60747 -8.05763,-26.10192 -2.13453,-5.40047 -1.3472,-10.46559 1.64866,-15.28323 1.21024,-1.94682 2.63907,-3.76052 3.85989,-5.70198 0.33022,-0.5254 0.52743,-1.39611 0.32039,-1.93198 -0.3735,-0.9661 -0.28326,-1.61999 0.32679,-2.46636 5.69714,-7.90091 11.31289,-15.85973 17.02553,-23.74994 1.15271,-1.59249 2.5813,-2.99688 3.94277,-4.43168 1.9265,-2.03101 4.48468,-2.79125 7.11418,-3.51717 2.0342,-0.56165 3.94325,-1.55624 5.94131,-2.26706 0.51906,-0.18471 1.16205,-0.0278 2.16845,-0.0278 0.27515,-0.41078 0.81388,-1.18439 1.32114,-1.97796 1.14803,-1.79594 2.09174,-3.75857 3.45788,-5.37199 3.03101,-3.58019 7.21007,-4.39518 11.59985,-3.66586 1.54563,0.25674 3.1815,1.40147 4.27815,2.59073 2.31549,2.51042 3.71802,5.62654 4.40674,8.95608 0.63512,3.07037 0.0185,3.93573 -2.62973,4.62783 -0.7529,0.19711 -1.36245,0.90089 -2.06125,1.33527 -1.52178,0.94517 -2.59236,2.21742 -3.08413,3.95179 -0.0479,0.1701 -0.28818,0.38571 -0.46129,0.40762 -2.28427,0.28642 -4.09692,1.73631 -6.18523,2.43497 -2.05362,0.68577 -3.87686,-0.31368 -5.75271,-2.15001 z" /></g></svg>