<?xml version="1.0" encoding="UTF-8" standalone="no"?>
<svg
   xmlns:dc="http://purl.org/dc/elements/1.1/"
   xmlns:cc="http://creativecommons.org/ns#"
   xmlns:rdf="http://www.w3.org/1999/02/22-rdf-syntax-ns#"
   xmlns:svg="http://www.w3.org/2000/svg"
   xmlns="http://www.w3.org/2000/svg"
   height="303.12219"
   width="250"
   id="svg2"
   xml:space="preserve"
   viewBox="0 0 250 303.12219"
   version="1.1"
   enable-background="new 0 0 612 792"><metadata
     id="metadata10"><rdf:RDF><cc:Work
         rdf:about=""><dc:format>image/svg+xml</dc:format><dc:type
           rdf:resource="http://purl.org/dc/dcmitype/StillImage" /><dc:title></dc:title></cc:Work></rdf:RDF></metadata><defs
     id="defs8" /><path
     style="clip-rule:evenodd;fill-rule:evenodd"
     id="path4"
     d="m 96.888984,45.258204 c -0.71553,1.48859 -1.81611,2.67523 -1.66612,3.6745 0.4485,2.99389 -0.17064,5.34652 -1.61448,8.12256 -1.45022,2.78833 -1.16598,6.48004 -1.63808,9.77588 -3.25846,22.74629 -0.0482,44.925576 6.35563,66.708496 2.415566,8.21943 5.455186,16.35084 12.042926,22.51369 0.85863,0.80404 0.87437,2.57392 1.13698,3.92383 0.13966,0.71798 -0.2631,1.58251 -0.0207,2.23214 1.49252,4.00546 2.23706,8.13583 5.87812,11.34561 36.95007,32.57971 73.73097,65.35122 110.54482,98.08338 1.44531,1.2845 2.63736,2.8621 4.12988,4.07874 0.78781,0.64176 1.97052,0.79765 3.36763,1.31941 -0.96239,-5.50634 0.0162,-7.67553 3.17437,-8.19681 3.14634,-0.51881 4.78049,0.91027 5.69469,5.09473 0.68897,0.0418 1.52252,-0.12392 2.12936,0.17311 1.29336,0.63094 2.94521,1.25499 3.52402,2.36492 0.36784,0.70568 -0.75585,2.41114 -1.52842,3.42714 -0.83207,1.09369 -1.99707,1.95429 -3.08536,2.8316 -4.05316,3.26584 -8.02174,3.15667 -11.89688,-0.27195 -39.71529,-35.14478 -79.43058,-70.2935 -119.16062,-105.41566 -1.57317,-1.39072 -2.77899,-3.13503 -5.72124,-2.42639 -1.25401,0.30195 -3.20732,-2.3 -5.2698,-3.91645 -0.4721,0.0782 -1.62038,0.269 -2.45393,0.40817 -0.883216,-1.21516 -1.533336,-3.05094 -2.408686,-3.16552 -6.44463,-0.84093 -7.86781,-7.38539 -12.28439,-10.45403 -0.78093,-0.54242 -1.57612,-1.18271 -2.08609,-1.9597 -0.45538,-0.69389 -0.69683,-1.63366 -0.72634,-2.47557 -0.0433,-1.2609 0.18097,-2.53015 -0.46472,-4.03349 1.20286,-1.04501 2.40573,-2.09002 3.47828,-3.02242 -5.81714,-9.72867 -11.56985,-19.35013 -16.46001,-27.52875 -3.67597,3.03569 -7.96863,6.25482 -11.78377,9.9662 -0.93633,0.91076 -0.49866,3.44189 -0.36342,5.20292 0.27047,3.52156 0.53849,7.07164 1.22942,10.52484 0.92649,4.6246 2.16625,9.19314 3.43157,13.74151 1.64349,5.91009 3.23387,11.8482 5.23537,17.64075 2.18198,6.31333 3.06373,12.71322 2.85964,19.35997 -0.47603,15.51434 -0.79912,31.03261 -1.25794,46.54695 -0.0664,2.25083 -0.79519,4.49379 -0.76274,6.73281 0.0738,5.09178 0.0733,10.23962 0.90732,15.22961 0.22916,1.37203 3.17633,2.84488 5.09423,3.256 3.22699,0.69143 6.66053,0.36588 9.94358,0.87929 1.61694,0.25276 3.67106,1.02288 4.51838,2.25377 2.33442,3.39124 1.55497,5.10063 -2.30886,6.51988 -7.35884,2.70522 -14.90307,3.07454 -22.59778,1.87364 -2.00101,-0.31227 -4.05317,-0.30194 -6.05811,-0.43816 -0.95403,6.37087 3.71925,8.54104 7.85651,10.3419 3.86776,1.68431 8.23074,2.51294 12.45848,2.9998 3.75023,0.43177 6.45349,2.25328 8.8489,4.73229 1.90609,1.97347 0.12146,3.406 -1.48711,3.84465 -4.13628,1.12812 -8.37041,1.93118 -12.5952,2.69244 -10.68516,1.92528 -21.26902,-0.39391 -31.89517,-0.91321 -3.76597,-0.18393 -7.52653,-0.53505 -11.28168,-0.89109 -3.49697,-0.33194 -4.63001,-1.73595 -4.48838,-5.27668 0.98157,-24.58749 1.15025,-49.1966 -0.926,-73.70639 -0.74601,-8.80021 -3.90022,-17.3924 -5.90812,-26.09131 -4.14709,-17.95843 -9.3991804,-35.58147 -16.1152704,-52.74717 -4.26905,-10.91334 -2.69441004,-21.14903 3.29731,-30.88459 2.42049,-3.93415 5.2781604,-7.59931 7.7197904,-11.52264 0.66045,-1.061726 1.05485,-2.821276 0.64078,-3.904156 -0.747,-1.95232 -0.56652,-3.27371 0.65356,-4.98408 11.39429,-15.96627 22.62581,-32.04959 34.05109,-47.99423 2.30541,-3.21813 5.16259,-6.05613 7.88552,-8.95561 3.85301,-4.1043 8.96938,-5.64059 14.22836,-7.10754 4.06841,-1.135 7.8865,-3.14486 11.88262,-4.58132 1.03812,-0.37325 2.3241,-0.0561 4.33691,-0.0561 0.55029,-0.83011 1.62776,-2.39344 2.64228,-3.9971 2.29607,-3.62926 4.18348,-7.59538 6.91575,-10.8558097 6.062036,-7.23491004 14.420146,-8.88184004 23.199706,-7.40801004 3.09126,0.51881004 6.363,2.83210004 8.55629,5.23537004 4.63099,5.0730997 7.43605,11.3701997 8.81349,18.0985897 1.27024,6.20465 0.0369,7.95338 -5.25947,9.35198 -1.5058,0.39833 -2.72489,1.82053 -4.1225,2.69833 -3.04356,1.91004 -5.18473,4.48101 -6.16827,7.98585 -0.0959,0.34374 -0.57635,0.77945 -0.92255,0.82371 -4.56854,0.57881 -8.19386,3.50877 -12.37046,4.92064 -4.10726,1.38581 -7.75373,-0.63389 -11.505426,-4.34478 z" /></svg>