<?xml version="1.0" encoding="UTF-8" standalone="no"?>
<svg
   xmlns:dc="http://purl.org/dc/elements/1.1/"
   xmlns:cc="http://creativecommons.org/ns#"
   xmlns:rdf="http://www.w3.org/1999/02/22-rdf-syntax-ns#"
   xmlns:svg="http://www.w3.org/2000/svg"
   xmlns="http://www.w3.org/2000/svg"
   id="svg2"
   version="1.1"
   width="20"
   height="23.052338"
   viewBox="0 0 20 23.052338">
  <metadata
     id="metadata8">
    <rdf:RDF>
      <cc:Work
         rdf:about="">
        <dc:format>image/svg+xml</dc:format>
        <dc:type
           rdf:resource="http://purl.org/dc/dcmitype/StillImage" />
        <dc:title></dc:title>
      </cc:Work>
    </rdf:RDF>
  </metadata>
  <defs
     id="defs6" />
  <g
     id="g4138"
     transform="matrix(0.04832539,0,0,0.04884858,-0.48398679,-7.4223817e-4)"
     style="fill:#000000">
    <path
       style="fill:#000000"
       d="m 133.17391,470.73143 c -7.2878,-2.3322 -10.25808,-10.32693 -12.1607,-32.73143 -0.63054,-7.425 -1.7757,-18.675 -2.54481,-25 -0.76911,-6.325 -2.30894,-20.275 -3.42185,-31 -1.11291,-10.725 -2.48597,-23.775 -3.05124,-29 -5.27205,-48.73188 -6.0564,-58.22146 -4.9249,-59.58483 1.74458,-2.1021 208.09302,-2.12811 209.83724,-0.0265 1.17402,1.41462 -0.14577,16.31209 -6.52135,73.61128 -1.37694,12.375 -2.92812,26.325 -3.44705,31 -1.3336,12.01419 -4.01263,40.84126 -4.78613,51.5 -0.82151,11.32035 -3.83348,17.19867 -10.45471,20.40395 -4.28471,2.07419 -5.11649,2.09499 -79.76413,1.99396 -50.30555,-0.0681 -76.54227,-0.45666 -78.76037,-1.16648 z M 59.456142,310.59581 c -2.611293,-1.13748 -46.168606,-43.95663 -48.571719,-47.74858 -0.469589,-0.74098 -0.860688,-6.20266 -0.86911,-12.13707 -0.018499,-13.03493 1.699913,-17.50391 7.958307,-20.6967 C 21.88335,228.01886 23.514607,228 192.09768,228 l 170.17736,0 -0.68973,-8.50055 c -1.14,-14.04984 -3.51268,-18.91241 -9.712,-19.90372 -11.66534,-1.86536 -20.51603,-11.50047 -21.59404,-23.50788 -0.6713,-7.47726 0.9267,-12.8002 5.41794,-18.04721 5.90125,-6.89429 11.64205,-10.04527 18.24857,-10.01619 8.76187,0.0386 13.74961,1.61234 18.20789,5.74513 2.21332,2.05173 4.91311,4.06411 5.99952,4.47196 1.08642,0.40785 1.70622,1.17692 1.37735,1.70905 -0.32888,0.53213 0.15249,3.26187 1.06971,6.06609 2.33506,7.13903 1.41423,14.83228 -2.53592,21.18673 l -3.04942,4.90549 1.91073,3.74535 c 2.26656,4.44283 5.06877,17.30475 5.08801,23.35359 0.0278,8.73074 -0.24209,8.53731 12.47486,8.941 12.60953,0.40028 14.04251,1.05596 17.6179,8.06132 2.72445,5.33809 2.74031,23.98566 0.0239,28.10556 -1.02108,1.54864 -11.43578,12.45867 -23.14379,24.24451 -16.36017,16.46894 -22.12044,21.66024 -24.8869,22.42871 -1.97979,0.54995 -10.18202,1.00242 -18.22718,1.00548 -11.70872,0.004 -14.87299,-0.29016 -15.85757,-1.47651 -1.182,-1.42421 -0.88047,-13.47907 0.59108,-23.63161 C 331.68609,279.43424 341.42056,280 212.1197,280 c -91.03089,0 -116.094628,0.26684 -117.41068,1.25 -1.506818,1.12567 -1.578856,2.63862 -0.724285,15.21147 0.729734,10.73621 0.667848,14.1401 -0.26789,14.73469 -2.152745,1.36791 -30.89858,0.86419 -34.260703,-0.60035 z M 107.2,214.8 c -1.51379,-1.51379 -1.66773,-37.02084 -0.19472,-44.91351 2.57892,-13.81837 13.08659,-27.17931 26.31604,-33.46195 6.43566,-3.05628 8.88503,-3.65558 16.85432,-4.12385 8.28594,-0.48687 9.50046,-0.33923 10.90562,1.32571 0.86969,1.03048 5.7543,10.6486 10.85467,21.3736 12.13857,25.52482 15.39489,32 16.09255,32 0.31669,0 3.10053,-4.35031 6.1863,-9.66735 l 5.61049,-9.66735 -2.83866,-3.58265 c -5.79531,-7.31419 -7.60543,-21.48519 -3.35487,-26.26446 3.14588,-3.53719 9.34262,-5.7724 16.06904,-5.79623 14.59197,-0.0517 22.08441,3.89266 23.01108,12.114 0.6665,5.91317 -1.76288,14.25393 -5.75805,19.76911 -2.7513,3.79805 -2.93587,4.46338 -1.64679,5.9362 0.79849,0.9123 2.23588,3.23373 3.19419,5.15873 2.31199,4.64417 6.87114,11.9177 7.49879,11.96332 0.64046,0.0466 22.08365,-44.00425 23.76946,-48.82966 0.6982,-1.99851 2.0217,-4.19616 2.94113,-4.88366 3.921,-2.93194 17.34217,-0.58615 29.95773,5.23611 11.8366,5.46275 20.69887,16.48437 23.78597,29.58156 1.94202,8.23911 2.21296,44.86508 0.34571,46.73233 -1.7411,1.7411 -207.8589,1.7411 -209.6,0 z m 95.55721,-95.77722 c -19.52182,-3.51894 -32.83197,-13.59152 -42.91214,-32.474181 -10.48372,-19.638625 -6.52614,-46.12633 9.44235,-63.1967 7.86727,-8.410137 16.23042,-14.0692066 24.13077,-16.3285033 31.85448,-9.1095622 62.1856,5.7108093 73.25484,35.7937323 C 269.1387,49.518085 269.5,51.905863 269.5,61.5 c 0,8.909737 -0.45612,12.392415 -2.40034,18.327575 -8.85235,27.023725 -36.94117,44.134465 -64.34245,39.195205 z M 421.56662,77.107799 c -0.36251,-0.586556 -0.0857,-2.088266 0.61516,-3.337132 L 423.45604,71.5 l 0.35664,2.365335 c 0.40144,2.662373 -1.18719,4.955748 -2.24606,3.242464 z M 134.5,1 c 0.33992,-0.55 1.37898,-0.99310925 2.30902,-0.98468723 C 138.26629,0.02850919 138.29269,0.16460127 137,1 c -1.95837,1.2655974 -3.28218,1.2655974 -2.5,0 z"
       id="path4176" />
    <path
       style="fill:#000000"
       d="m 138.5,470.96204 c -6.00602,-0.6462 -8.68954,-2.01512 -11.393,-5.81178 -2.75326,-3.86659 -3.69912,-8.72548 -5.57725,-28.65026 -0.88134,-9.35 -2.22319,-21.725 -2.98189,-27.5 -0.75871,-5.775 -1.88581,-15.9 -2.50467,-22.5 -0.61886,-6.6 -1.5575,-15.6 -2.08586,-20 -3.55338,-29.59122 -7.19585,-71.66148 -6.28349,-72.57384 1.44823,-1.44823 207.21703,-1.43529 208.66544,0.0131 1.16051,1.16051 -3.38857,47.85019 -11.30806,116.06072 -0.54279,4.675 -1.70671,17.275 -2.5865,28 -1.8342,22.35974 -3.06421,26.39628 -9.30118,30.52371 l -3.9151,2.59089 -72.86422,0.1927 C 176.2889,471.41328 141.25,471.25792 138.5,470.96204 Z M 63.447994,310.95908 c -2.228603,-0.29751 -5.378603,-1.5008 -7,-2.67398 C 54.826597,307.11191 43.9375,296.53141 32.25,284.77286 L 11,263.39368 11.0037,250.94684 c 0.0032,-10.58063 0.296417,-12.92685 1.955778,-15.64829 4.279986,-7.01941 -10.3528891,-6.48896 178.738442,-6.47938 150.52582,0.008 170.49806,-0.16643 171.0061,-1.49035 0.77498,-2.01957 -1.50666,-17.9206 -3.12835,-21.80187 -1.81868,-4.35271 -4.27038,-6.52328 -7.39714,-6.54891 -3.92254,-0.0322 -10.23886,-3.19217 -14.10165,-7.05496 -4.97973,-4.97974 -7.02927,-10.27077 -7.05496,-18.21292 -0.0255,-7.87483 1.9741,-12.66768 7.5402,-18.07341 5.85813,-5.68934 9.52471,-6.93548 18.95094,-6.44073 7.14622,0.37508 8.73461,0.8133 12.20635,3.36759 8.42353,6.1975 11.29484,11.7663 11.25859,21.83561 -0.0208,5.77286 -1.76741,11.13142 -5.12917,15.73604 -0.95321,1.30561 -0.77663,2.61591 0.87598,6.5 2.51518,5.91136 4.09769,13.37636 5.05494,23.84512 l 0.72021,7.87641 9,0.29829 c 12.72388,0.42171 15.0217,0.98778 17.90129,4.40998 3.66818,4.35939 4.48122,8.59116 3.87007,20.14335 L 412.72691,263.5 390.61345,285.83261 c -12.1624,12.28293 -23.4102,23.01263 -24.99512,23.84376 -2.20022,1.15381 -6.49555,1.51551 -18.16405,1.52953 -8.40531,0.0101 -15.81035,-0.30793 -16.45565,-0.70674 -0.86255,-0.53309 -0.98519,-4.37528 -0.46309,-14.50859 0.70904,-13.76179 0.70642,-13.78589 -1.66269,-15.31336 -2.09889,-1.35325 -15.67527,-1.50953 -117.58722,-1.35355 -106.37552,0.16281 -115.343108,0.30509 -116.892522,1.85458 -1.329489,1.32955 -1.638044,3.34251 -1.485092,9.6885 0.106185,4.40564 0.5493,10.26379 0.984698,13.01811 0.435399,2.75432 0.452807,5.55608 0.03869,6.22615 -0.797727,1.29075 -22.619594,1.89786 -30.483405,0.84808 z M 107.66667,214.33333 C 107.3,213.96667 107,203.91211 107,191.98988 c 0,-19.08819 0.23936,-22.37248 2.00438,-27.5026 4.19854,-12.20329 13.22238,-22.33087 24.77229,-27.8023 5.80655,-2.75068 8.02102,-3.23085 16.24013,-3.5214 8.26571,-0.2922 9.71739,-0.095 11.0426,1.5 1.44238,1.73602 11.38123,22.06742 21.30688,43.58642 2.47346,5.3625 4.89172,9.75 5.37391,9.75 0.48219,0 3.51242,-4.55656 6.73386,-10.12569 4.82086,-8.33417 5.64838,-10.41307 4.67713,-11.75 -5.4368,-7.48381 -7.32859,-12.43534 -7.53506,-19.72218 C 191.35069,137.03502 197.06447,133 210.59414,133 c 13.8802,0 19.85999,2.64583 21.39866,9.46809 1.25761,5.57605 -0.70408,13.90189 -4.66081,19.78157 -1.83259,2.72323 -3.33199,5.3062 -3.33199,5.73994 0,0.68154 2.17497,4.49139 9.85004,17.25408 0.90748,1.50902 2.00345,2.74652 2.4355,2.75 0.43204,0.003 1.61627,-1.90618 2.63161,-4.24368 1.01534,-2.3375 5.55511,-11.9 10.08838,-21.25 4.53327,-9.35 9.51773,-19.8125 11.07657,-23.25 l 2.83425,-6.25 6.43649,0 c 12.19833,0 28.68394,6.82671 35.68065,14.77539 10.20887,11.59788 11.9052,17.88981 12.07814,44.7995 0.0715,11.12383 -0.17593,20.72014 -0.54984,21.32513 -0.75348,1.21915 -207.68005,1.64838 -208.89512,0.43331 z m 91.11622,-96.85815 C 186.20991,114.97281 174.95847,107.75781 167.18901,97.215592 157.12279,83.556946 154.3879,74.635434 155.2396,58.235334 156.82505,27.706125 180.87823,5 211.63315,5 c 10.75512,0 17.28253,1.4372186 25.81219,5.683385 13.66136,6.800789 23.25424,17.630509 28.60575,32.293994 2.56793,7.036303 2.94891,9.442525 2.94891,18.625096 0,8.665499 -0.45699,11.906227 -2.56405,18.183076 -6.1587,18.346436 -20.43359,31.981169 -39.36745,37.602009 -6.50881,1.93226 -18.82567,1.97041 -28.28561,0.0876 z"
       id="path4174" />
    <path
       style="fill:#000000"
       d="m 131.8533,468.98491 c -5.80823,-3.06872 -7.62282,-8.1017 -9.40088,-26.07439 C 121.6139,434.43473 120.0446,419.85 118.96509,410.5 c -4.41404,-38.23136 -12.0338,-114.87856 -11.54668,-116.14799 0.43692,-1.13859 17.58126,-1.31962 104.80198,-1.10664 L 316.5,293.5 l -0.18636,6 c -0.1025,3.3 -1.32631,16.8 -2.71958,30 -2.21267,20.96317 -3.48724,32.62438 -7.651,70 -0.49017,4.4 -1.36473,13.4 -1.94345,20 -3.34719,38.17256 -3.9396,41.45094 -8.37457,46.34501 -4.84927,5.35125 -1.68578,5.15837 -83.82538,5.11079 -73.35719,-0.0425 -76.44029,-0.11849 -79.94636,-1.97089 z M 58.5,309.12096 C 56.85,308.07662 45.4497,297.09883 33.166001,284.72589 l -22.334,-22.49625 0.334,-12.60096 0.333999,-12.60095 3.766598,-3.76387 3.766597,-3.76386 172.130275,-0.25847 172.13028,-0.25847 -0.6383,-8.30412 c -1.10877,-14.4247 -4.30204,-21.66891 -9.56044,-21.68871 -3.67347,-0.0138 -12.1049,-4.21339 -15.28606,-7.61375 -5.9589,-6.3695 -8.27393,-16.56223 -5.79153,-25.49915 1.34231,-4.83243 7.98534,-12.21616 13.30957,-14.79358 4.7474,-2.29817 12.75001,-2.74558 18.84237,-1.05343 5.75063,1.59723 13.37649,9.0863 15.37301,15.09724 2.50018,7.52736 1.65276,15.43079 -2.34389,21.86005 l -3.18357,5.12129 2.06948,4.05652 c 2.42885,4.76094 4.48996,14.23236 5.45874,25.08458 l 0.69185,7.75 9.73328,0 c 11.5155,0 14.89443,0.98679 18.12582,5.29347 2.1838,2.9105 2.43676,4.34827 2.73996,15.57342 l 0.33405,12.3669 -23.25584,23.33294 c -12.79072,12.83312 -24.42636,23.81779 -25.85699,24.41038 -1.5864,0.65711 -8.63897,0.96926 -18.0782,0.80016 L 330.5,310.5 330.5687,304 c 0.0378,-3.575 0.21117,-10.0615 0.38535,-14.41444 0.26956,-6.7369 0.0449,-8.11316 -1.50981,-9.25 C 327.94553,279.23968 306.8342,279 211.80887,279 c -115.477283,0 -115.814749,0.006 -117.862153,2.05328 -1.641871,1.64187 -1.946807,2.89417 -1.521883,6.25 0.29227,2.3082 0.653747,8.47172 0.803283,13.69672 l 0.271883,9.5 -16,0.25989 c -14.268383,0.23176 -16.324678,0.0544 -19,-1.63893 z m 49.17127,-94.78302 c -1.30448,-1.30448 -0.71557,-41.58262 0.68482,-46.83794 5.53726,-20.77993 24.23657,-35.11829 44.72847,-34.29715 L 160.5,133.5 l 4,8.01606 c 2.2,4.40884 8.23043,16.88091 13.40096,27.71572 5.17053,10.83481 9.76633,19.47384 10.2129,19.19785 C 189.30783,187.69172 200,169.30423 200,167.98886 c 0,-0.61727 -1.16293,-2.64699 -2.5843,-4.51049 -3.22408,-4.227 -5.4157,-11.33338 -5.4157,-17.56058 0,-8.93025 5.86392,-12.901 19.0685,-12.91221 8.53088,-0.007 16.24106,2.30121 18.87656,5.6517 3.91226,4.97364 2.40994,15.69473 -3.37842,24.10952 l -3.37983,4.91341 6.1566,10.64998 c 3.38612,5.85749 6.397,10.65444 6.69084,10.6599 0.29383,0.005 6.07559,-11.57759 12.84835,-25.74009 6.77275,-14.1625 12.95521,-26.7625 13.7388,-28 4.06382,-6.41789 30.86821,1.35863 41.06758,11.91457 6.49174,6.7187 10.98529,14.99147 12.29896,22.64282 0.68423,3.98523 1.02022,14.37873 0.83056,25.69261 l -0.3185,19 -104.07873,0.25461 c -57.2433,0.14003 -104.3808,-0.0475 -104.75,-0.41667 z m 91.8376,-96.91334 c -14.22472,-2.82305 -26.22121,-11.20608 -35.0576,-24.497908 -6.32715,-9.517387 -8.61451,-16.456866 -9.20531,-27.927378 -0.8397,-16.30305 4.20987,-30.158309 15.24173,-41.820972 10.66259,-11.272275 22.08175,-16.7742287 37.07484,-17.8632988 21.20347,-1.5401811 40.09337,7.5795448 51.81062,25.0132938 21.2712,31.648791 5.97885,74.625543 -30.67477,86.206653 -8.94899,2.82753 -18.03018,3.1043 -29.18951,0.88961 z"
       id="path4172" />
    <path
       style="fill:#000000"
       d="m 133.5,469.59749 c -7.01606,-3.09697 -9.10025,-8.36437 -11.01189,-27.83047 -0.8246,-8.39686 -2.17795,-21.11702 -3.00745,-28.26702 -6.28834,-54.2034 -12.35914,-117.9415 -11.34934,-119.15823 1.61224,-1.94263 206.07661,-2.00108 207.68809,-0.0594 1.1491,1.38458 -2.0681,35.19344 -9.86959,103.7176 -0.53225,4.675 -1.42105,13.45 -1.97512,19.5 -2.60234,28.41599 -4.30392,42.20559 -5.49111,44.5 -1.73846,3.35984 -5.37012,6.63434 -8.79869,7.93339 -4.50317,1.7062 -152.27858,1.38839 -156.1849,-0.3359 z M 59.476444,309.462 c -1.662956,-0.82086 -13.137956,-11.61314 -25.5,-23.98284 L 11.5,262.98878 11.208641,251.24439 C 10.88021,238.00571 11.99185,234.80467 18.24086,230.9946 21.4593,229.03229 23.632326,229.00743 192.25,229.00374 L 363,229 l -0.008,-4.75 c -0.0202,-12.98103 -4.07,-25.25 -8.33419,-25.25 -4.78728,0 -12.08682,-3.37638 -16.20689,-7.49645 -13.14381,-13.14381 -7.57324,-35.68766 10.27382,-41.57772 4.43887,-1.46496 13.89721,-0.68981 18.09961,1.48334 C 375.28136,155.78246 381,164.8603 381,173.91179 c 0,4.60589 -2.1259,10.98163 -4.93515,14.8009 l -2.0502,2.78731 2.52906,6.24167 c 2.23177,5.50796 3.33327,11.34162 5.09966,27.00833 l 0.47918,4.25 10.18872,0.004 c 11.52018,0.004 15.13816,1.40487 18.69413,7.23712 1.64241,2.69377 1.98777,5.04584 1.99086,13.5588 0.003,7.02572 -0.45185,11.15801 -1.42952,13 -2.18533,4.11728 -44.67375,45.95861 -47.88184,47.15261 -1.5483,0.57625 -9.2557,1.04773 -17.12755,1.04773 -11.53299,0 -14.55539,-0.29271 -15.5634,-1.50729 -1.22163,-1.47197 -1.09062,-5.8619 0.63089,-21.14028 0.49166,-4.36345 0.25975,-5.46784 -1.52241,-7.25 L 328,279 212.11078,279 c -108.89021,0 -116.018228,0.10569 -118.02545,1.75 -2.08172,1.70534 -2.111654,2.09315 -1.17293,15.19605 0.529819,7.39532 0.739716,13.80782 0.466437,14.25 -0.273279,0.44217 -7.332813,0.7937 -15.687854,0.78118 -11.41473,-0.0171 -15.942594,-0.39377 -18.214539,-1.51523 z M 108.25,214.33772 c -1.57434,-0.63526 -1.76389,-36.33487 -0.23601,-44.45123 3.53517,-18.77954 21.33209,-34.984 40.12177,-36.5317 4.19967,-0.34592 8.72711,-0.35504 10.06098,-0.0203 2.46263,0.61808 6.11381,7.5418 23.15853,43.91547 3.02833,6.4625 5.90106,11.75 6.38384,11.75 0.65274,0 9.86039,-15.06623 12.91402,-21.13088 0.17471,-0.34698 -1.02727,-2.32325 -2.67108,-4.39171 -5.34257,-6.72275 -7.43876,-17.75977 -4.46512,-23.51014 2.5845,-4.99789 6.67103,-6.46736 17.98307,-6.46655 8.82163,6.4e-4 10.53027,0.29704 14.5,2.5153 3.60595,2.01498 4.68726,3.26973 5.44254,6.3155 1.71172,6.90272 -0.90815,15.00729 -7.77933,24.06537 -1.0313,1.35953 11.09128,22.85161 12.60485,22.34709 0.57772,-0.19257 6.58368,-12.02625 13.34658,-26.29706 6.76289,-14.2708 12.77005,-26.73442 13.34924,-27.69692 1.62266,-2.69656 9.54246,-2.2208 20.27816,1.21815 5.09627,1.63248 11.3064,4.26216 13.80027,5.84373 9.03596,5.73044 16.81348,17.54686 18.86941,28.66838 1.53249,8.29 1.44617,41.76185 -0.11172,43.31974 -0.91877,0.91877 -25.23354,1.1815 -103.75,1.12105 -56.4025,-0.0434 -103.1125,-0.30592 -103.8,-0.58333 z M 200.5,117.42823 C 175.97614,112.58006 157.00208,90.927888 155.25597,65.798205 153.57747,41.641455 168.97588,17.276509 191.2764,8.8029782 204.90571,3.6242466 223.18017,4.4466329 236.5,10.838129 c 35.6468,17.105048 43.46783,63.406461 15.42123,91.295421 -4.55752,4.53191 -9.00762,7.77455 -14.04614,10.23497 -13.4559,6.57081 -23.11617,7.87858 -37.37509,5.05971 z"
       id="path4170" />
    <path
       style="fill:#000000"
       d="m 134.12201,469.63837 c -4.23044,-1.54622 -7.71175,-5.52421 -9.09277,-10.39002 -0.58513,-2.06159 -1.7255,-10.49835 -2.53416,-18.74835 -0.80866,-8.25 -2.17701,-21.075 -3.04077,-28.5 -6.02631,-51.80315 -12.22614,-116.57 -11.26908,-117.72318 1.54008,-1.85569 206.07542,-1.88211 207.59101,-0.0268 0.97161,1.18938 0.28798,8.98638 -6.24704,71.25 -0.8659,8.25 -2.00824,18.375 -2.53853,22.5 -0.90769,7.06069 -1.54512,13.25894 -5.55332,54 -1.78829,18.17694 -2.92996,21.74827 -8.24971,25.80645 l -3.53091,2.69355 -76.07836,0.18651 c -58.25804,0.14283 -76.86962,-0.10268 -79.45636,-1.04814 z M 59.5,309.44755 c -4.09051,-2.09997 -46.146868,-44.1808 -47.556654,-47.58432 -0.681083,-1.64429 -0.993191,-6.89338 -0.786337,-13.22481 0.385454,-11.7981 1.67091,-14.7034 7.914076,-17.88687 3.224677,-1.6443 13.569573,-1.74853 173.678915,-1.75 L 363,229 l -0.008,-4.75 c -0.0114,-7.18419 -1.85054,-17.05151 -3.94236,-21.15182 -1.67599,-3.2852 -2.47374,-3.78553 -7.78504,-4.88256 -13.2471,-2.73615 -21.85951,-15.09735 -19.85091,-28.49161 1.26107,-8.40946 9.24275,-17.33124 17.6663,-19.74708 12.43135,-3.56526 26.79111,4.11671 30.3978,16.26176 2.34984,7.91277 1.94223,11.8093 -2.03321,19.43625 l -3.55496,6.82027 2.02384,4.50239 c 2.95283,6.5691 4.22737,12.36656 4.94706,22.5024 l 0.63903,9 11.17896,0.5 c 12.52456,0.56018 15.37028,1.79706 18.56949,8.07108 2.26619,4.44429 2.48455,21.63904 0.32673,25.72858 -2.15131,4.07721 -44.65886,45.91596 -47.89028,47.13679 C 362.1366,310.5214 354.4292,311 346.55735,311 c -11.35879,0 -14.5637,-0.30273 -15.5299,-1.46692 -0.954,-1.1495 -0.95932,-4.19253 -0.0246,-14.06315 1.09832,-11.59828 1.05396,-12.74968 -0.56,-14.53308 C 328.72815,279.04213 326.15183,279 212,279 c -112.608946,0 -116.74906,0.0652 -118.378008,1.8652 -1.510059,1.6686 -1.590073,3.27605 -0.759102,15.25 0.684327,9.86087 0.627195,13.57823 -0.217004,14.11949 -0.630237,0.40408 -7.670886,0.7388 -15.645886,0.74384 -11.105626,0.007 -15.202284,-0.35139 -17.5,-1.53098 z m 48.51053,-95.93486 c -0.92756,-1.11764 -1.11793,-6.77209 -0.76593,-22.75 0.40288,-18.28707 0.76005,-22.06501 2.55223,-26.99577 5.48159,-15.08128 19.03892,-26.89108 34.16282,-29.75927 6.27333,-1.18971 14.04474,-1.29198 15.75156,-0.20729 0.66617,0.42335 6.97997,12.87106 14.03068,27.66158 7.05071,14.79051 13.31919,27.05842 13.92997,27.26201 C 188.6497,189.0499 201,168.97126 201,167.05557 c 0,-0.41008 -0.96533,-1.60284 -2.14518,-2.65058 -5.2834,-4.69183 -8.39863,-18.51892 -5.45483,-24.21159 2.61424,-5.05538 6.73149,-6.66366 17.10001,-6.67958 16.48737,-0.0253 22.39324,4.22898 21.10358,15.20197 -0.70408,5.99063 -3.73274,13.18614 -6.66845,15.84292 C 223.87081,165.5219 223,166.72513 223,167.23255 223,168.88116 235.15467,189 236.15067,189 c 0.53174,0 3.36996,-5.0625 6.30716,-11.25 2.9372,-6.1875 8.74282,-18.41234 12.90136,-27.16632 4.15855,-8.75397 8.14145,-16.28458 8.8509,-16.73469 3.26724,-2.07286 12.64961,-0.36623 26.01381,4.73185 12.54584,4.78589 22.25113,16.72882 25.30461,31.13877 1.85175,8.7388 2.05842,42.29346 0.27149,44.08039 -0.91775,0.91775 -25.35057,1.2 -103.87756,1.2 -89.65958,0 -102.83405,-0.18857 -103.91191,-1.48731 z M 205.5,118.28545 c -17.2386,-2.384 -29.88917,-9.97699 -39.29762,-23.586792 -6.1175,-8.849281 -7.99778,-12.909943 -9.81597,-21.198658 -3.69199,-16.830875 1.3713,-35.755328 13.17735,-49.251418 6.06982,-6.938711 16.37951,-13.580908 25.24847,-16.2667681 6.32327,-1.9149245 9.03537,-2.1607343 20.05268,-1.8174661 12.51565,0.3899518 12.892,0.4696712 21.32907,4.5180622 18.96695,9.100982 31.14687,27.20274 32.5109,48.31759 0.66291,10.261572 -1.06039,18.095536 -6.36819,28.949274 C 252.31892,108.43427 228.02566,121.40062 205.5,118.28545 Z"
       id="path4168" />
    <path
       style="fill:#000000"
       d="m 134.5,469.51091 c -4.81957,-1.72651 -7.99677,-5.43659 -9.36242,-10.93269 C 124.58024,456.3352 123.42169,447.525 122.56302,439 c -2.42624,-24.08813 -2.46509,-24.4537 -4.57041,-43 -1.0926,-9.625 -2.45196,-22 -3.02079,-27.5 -0.56884,-5.5 -1.48489,-14.275 -2.03566,-19.5 -5.74488,-54.49933 -5.74348,-54.47622 -3.35437,-55.39301 2.06736,-0.79332 202.76906,-0.79332 204.83642,0 1.9995,0.76728 2.01769,4.24229 0.11277,21.54763 -0.80796,7.33996 -1.91079,17.84538 -2.45073,23.34538 -1.26812,12.91728 -4.61856,43.41116 -6.59237,60 -0.85074,7.15 -1.74697,15.25 -1.99163,18 -3.57369,40.16827 -3.81585,42.06394 -5.85055,45.79941 -1.13823,2.08967 -3.66166,4.78967 -5.60761,6 L 288.5,470.5 l -75,0.22191 c -62.98739,0.18637 -75.64067,-0.008 -79,-1.211 z M 60.327932,309.5419 c -3.861511,-1.67972 -47.058036,-44.70182 -48.383549,-48.18818 -0.519411,-1.36616 -0.9345,-6.39212 -0.922421,-11.16882 0.02905,-11.48815 2.148153,-16.45257 8.194266,-19.19671 4.188334,-1.90095 8.066338,-1.94476 174.065152,-1.96623 140.66899,-0.0182 169.86925,-0.25092 170.29378,-1.35722 0.7763,-2.02302 -2.09563,-19.6495 -3.8988,-23.9288 -0.87233,-2.07023 -2.16887,-3.95192 -2.88121,-4.18153 -0.71233,-0.22962 -3.91726,-1.14592 -7.12205,-2.03624 -11.12037,-3.08931 -18.23127,-12.7413 -18.06326,-24.51817 0.28597,-20.04583 24.84869,-31.03112 39.85313,-17.82368 6.49995,5.72148 8.89746,10.79372 8.89746,18.82368 0,6.24534 -1.38947,10.28969 -5.54341,16.13526 -0.91383,1.28598 -0.72406,2.67431 0.88847,6.5 2.82322,6.698 4.48937,14.33943 5.19626,23.83156 L 381.5,228.5 l 11.09501,0.53344 c 12.85162,0.61789 15.52697,1.81954 18.46682,8.29452 2.15592,4.74838 2.69395,19.554 0.88361,24.31555 -1.55964,4.10215 -42.51793,44.97112 -47.47371,47.37018 -5.62093,2.72104 -30.33736,2.97782 -32.97263,0.34255 -0.94582,-0.94581 -1.42802,-2.53806 -1.13565,-3.75 0.27945,-1.15843 0.81754,-6.85606 1.19574,-12.66139 0.59791,-9.17778 0.46648,-10.77633 -1.0072,-12.25 C 328.9782,279.12106 320.51049,279 212,279 81.190567,279 91.920856,278.34485 92.087075,286.32143 c 0.04789,2.29821 0.419325,8.22857 0.825409,13.17857 0.439847,5.36157 0.355145,9.50534 -0.20952,10.25 -1.383852,1.82498 -28.095891,1.65328 -32.375032,-0.2081 z M 108.75,213.9199 c -1.55484,-0.90561 -1.74656,-2.82593 -1.71912,-17.21959 0.0403,-21.14685 1.17208,-29.59312 5.01475,-37.42425 7.08323,-14.43518 19.83447,-23.5095 35.8819,-25.53506 7.43042,-0.93789 9.22434,-0.88411 11.05505,0.33144 1.30894,0.8691 6.18264,9.86796 12.15291,22.43928 12.02767,25.3261 15.39912,31.83315 16.72191,32.27408 0.89017,0.29672 11.07813,-15.84827 12.75,-20.20509 0.39522,-1.02992 -0.1602,-2.54023 -1.43204,-3.89405 -5.08479,-5.41251 -8.46999,-18.87487 -5.94862,-23.65664 3.37776,-6.4059 13.59168,-9.23418 25.34147,-7.01715 7.51198,1.41741 11.94654,4.5013 12.93333,8.99413 1.02714,4.67657 -1.32436,13.52874 -5.0739,19.10052 -1.8852,2.8014 -3.42764,5.3451 -3.42764,5.65265 0,1.02966 12.49181,22.22391 13.10341,22.23192 0.33188,0.004 2.90272,-4.82959 5.71297,-10.74209 12.88361,-27.1058 21.14044,-43.85766 22.20966,-45.06002 2.50717,-2.81938 19.92267,1.1429 31.32744,7.12743 3.7343,1.95953 7.41918,4.9936 10.17814,8.38052 9.29387,11.4092 11.46838,20.28349 11.46838,46.803 0,12.62686 -0.2793,15.63551 -1.57143,16.92764 -1.40837,1.40837 -12.12207,1.56827 -103.25,1.54102 -67.20174,-0.0201 -102.27195,-0.37602 -103.42857,-1.04969 z m 94.06165,-96.44004 c -4.2286,-0.79264 -9.92102,-2.28951 -12.64983,-3.32638 -16.56777,-6.29525 -30.60054,-24.105152 -33.85579,-42.968573 -4.14996,-24.048117 8.56636,-48.848576 30.91347,-60.290086 6.32089,-3.2362361 14.75203,-4.8959707 24.7406,-4.870375 11.2779,0.0289 16.33487,1.0596549 24.63639,5.021603 30.12943,14.379453 41.29153,53.156416 23.30974,80.97773 -7.36655,11.397491 -17.82879,19.571451 -29.99176,23.432021 -10.09714,3.20487 -17.7532,3.77663 -27.10282,2.02406 z"
       id="path4166" />
    <path
       style="fill:#000000"
       d="m 138.69939,469.87677 c -6.13753,-0.65944 -9.60628,-2.91146 -12.22031,-7.93383 -1.4743,-2.83258 -2.86203,-12.31268 -4.45636,-30.44294 -0.58038,-6.6 -1.71275,-17.4 -2.51638,-24 -1.77461,-14.57447 -2.25081,-19.0335 -7.60909,-71.24883 -2.32811,-22.68686 -4.0052,-41.47656 -3.72687,-41.75488 0.701,-0.70101 206.95395,-0.70529 207.65493,-0.004 0.31143,0.31143 -0.22418,8.09064 -1.19026,17.28713 -0.96607,9.19649 -2.62731,25.04589 -3.69164,35.22089 -1.06432,10.175 -2.85582,26.6 -3.98112,36.5 -2.90793,25.58318 -3.75339,33.77142 -5.47237,53 -0.83587,9.35 -1.78643,18.73976 -2.11236,20.86613 -0.76412,4.98518 -6.39538,11.36727 -10.71838,12.1475 -4.3965,0.79349 -142.83422,1.12873 -149.95979,0.36314 z M 73.254087,310.02682 59.008173,309.5 35.504087,286.00798 12,262.51596 12,250.14033 12,237.76471 15.882353,233.88235 19.764706,230 190.63235,229.98469 c 97.29584,-0.009 171.46917,-0.39619 172.26466,-0.89987 1.7007,-1.07686 0.87546,-13.12062 -1.43125,-20.88817 -2.19262,-7.38334 -4.54693,-9.83298 -10.04604,-10.45281 -5.67792,-0.63998 -11.72008,-4.67273 -15.89179,-10.60673 -2.81648,-4.00626 -3.02793,-4.92332 -3.02793,-13.13222 0,-8.20781 0.21182,-9.12683 3.02793,-13.13711 5.00561,-7.12825 10.36581,-10.23989 18.42386,-10.69521 8.53981,-0.48255 12.63339,0.82991 18.38822,5.89552 5.95592,5.24261 8.01411,10.65903 7.501,19.73994 -0.31254,5.53112 -0.96404,7.77948 -3.25918,11.24767 l -2.86855,4.33468 1.7632,4.55481 c 2.80605,7.24881 4.42409,14.89139 5.14091,24.28242 0.76925,10.07783 -0.0867,9.43575 12.88261,9.66358 10.80766,0.18986 13.24092,1.03989 16.4621,5.75085 2.29417,3.3552 2.44587,4.35057 2.22414,14.59344 -0.13087,6.04595 -0.64784,11.72881 -1.1488,12.62858 C 410.53647,263.76383 399.9704,274.625 387.55728,287 l -22.56931,22.5 -8.74399,0.52487 c -4.80919,0.28868 -12.47627,0.34371 -17.03795,0.12229 l -8.29398,-0.40258 0.29398,-14.57579 c 0.29276,-14.51601 0.28412,-14.58078 -2.10747,-15.79001 -1.84156,-0.93112 -28.53658,-1.20976 -114.5,-1.19512 -61.65421,0.0105 -114.1178,0.31097 -116.585766,0.66771 -6.374835,0.92149 -6.934918,2.65713 -5.812913,18.01364 0.496889,6.80075 0.767689,12.47495 0.601777,12.60932 -1.042005,0.84393 -7.064113,1.01414 -19.547571,0.55249 z M 108,192.60534 c 0,-18.70262 0.25644,-22.22493 2.03802,-27.993 3.90392,-12.63943 16.88121,-25.49804 29.40889,-29.13993 3.4002,-0.98847 8.22804,-1.4523 13.17892,-1.26616 l 7.81302,0.29375 13.06655,27.42866 c 7.1866,15.08576 13.5224,27.58061 14.07957,27.76633 0.91617,0.30539 12.47055,-18.36735 13.23383,-21.38686 0.17534,-0.69364 -0.88987,-2.84582 -2.36714,-4.78262 -3.66453,-4.80444 -5.35558,-9.9807 -5.40777,-16.553 -0.0769,-9.68971 4.4029,-12.97644 17.67399,-12.96693 15.01441,0.0108 20.28212,3.21137 20.28212,12.32324 0,6.46893 -2.04692,12.74979 -5.4878,16.83905 -1.38171,1.64207 -2.5122,3.58998 -2.5122,4.32869 0,2.12447 11.87895,22.00344 13.14845,22.00344 0.62849,0 6.69724,-11.7 13.48611,-26 6.78886,-14.3 12.73243,-26.675 13.20792,-27.5 0.5743,-0.99642 2.81324,-1.60227 6.66906,-1.80462 6.4081,-0.33629 18.76176,3.13611 26.02287,7.31459 6.05064,3.48191 13.20724,11.71493 16.74767,19.2667 3.05087,6.50752 3.16916,7.26901 3.68498,23.72333 0.29312,9.35 0.38047,19.8125 0.19412,23.25 L 315.82236,214 211.91118,214 108,214 l 0,-21.39466 z m 91,-76.17194 c -17.74883,-3.84357 -33.17086,-17.501989 -40.20201,-35.604651 -2.54166,-6.543832 -3.56777,-23.012138 -1.91426,-30.722215 2.2641,-10.557135 7.50357,-19.803516 15.87313,-28.01222 C 184.54875,10.529063 195.59207,6 212,6 228.12777,6 240.22811,11.006606 251.61075,22.389246 263.13543,33.913921 268,45.67098 268,62 268,78.32902 263.13543,90.086079 251.61075,101.61075 237.40819,115.81332 219.47201,120.86669 199,116.4334 Z"
       id="path4164" />
    <path
       style="fill:#000000"
       d="m 131.89788,467.7368 c -5.28695,-3.52143 -6.7298,-7.69453 -8.40826,-24.3188 -0.82839,-8.2049 -2.17834,-20.768 -2.99987,-27.918 -4.23672,-36.87303 -12.47394,-119.09881 -12.04348,-120.22059 0.40003,-1.04246 20.23311,-1.24009 103.77414,-1.03409 L 315.5,294.5 315.30406,300 c -0.10777,3.025 -1.33158,16.3 -2.71958,29.5 -2.20481,20.96793 -3.45763,32.44456 -7.64142,70 -0.49017,4.4 -1.36064,13.4 -1.93437,20 -3.47552,39.98105 -4.33963,43.78471 -10.96064,48.2466 L 288.70423,470 212,470 l -76.70423,0 -3.39789,-2.2632 z M 58.5,308.10761 C 56.85,307.0709 45.674711,296.32375 33.666024,284.22506 L 11.832048,262.22743 12.166024,249.63014 12.5,237.03285 15.76914,233.76643 19.03828,230.5 191.26914,230 363.5,229.5 l -0.16388,-8.19784 c -0.16826,-8.41695 -2.24158,-17.36302 -4.79075,-20.67145 -0.79559,-1.03255 -3.59005,-2.26979 -6.24284,-2.76399 -14.59203,-2.71847 -23.34554,-16.92651 -19.30952,-31.34175 5.73248,-20.4744 35.78617,-22.35472 44.73902,-2.79912 3.50218,7.64978 2.96977,16.01743 -1.47398,23.16594 l -3.15929,5.08224 2.40427,5.26298 c 2.32001,5.07852 3.74886,12.05872 5.27372,25.76299 l 0.72325,6.5 11.73264,0.5 c 11.64281,0.49617 11.75766,0.52501 15,3.76643 l 3.26736,3.26642 0.33402,12.59945 0.33402,12.59946 -22.75482,22.83355 c -12.51516,12.55845 -23.92661,23.31892 -25.35879,23.91214 -1.5813,0.655 -8.4852,0.96941 -17.57919,0.80057 L 331.5,309.5 331.5574,304 c 0.0315,-3.025 0.23123,-9.27276 0.44372,-13.88392 C 332.62647,276.54547 347.05133,278 211.84376,278 l -115.934669,0 -2.490278,2.49028 c -2.150558,2.15056 -2.421527,3.13959 -1.986304,7.25 0.277186,2.61785 0.766741,8.69722 1.087899,13.50972 L 93.104333,310 77.302166,309.996 C 63.553393,309.99301 61.110169,309.74759 58.5,308.10761 Z m 50.17131,-94.76963 c -1.12931,-1.12932 -0.74518,-38.89137 0.45307,-44.53876 1.63158,-7.68967 5.34904,-14.39563 11.63146,-20.98209 9.52982,-9.99102 19.37024,-14.14227 32.26854,-13.6127 l 7.19902,0.29557 13.1383,27.41886 c 7.22607,15.08038 13.64783,27.58772 14.27059,27.7941 C 189.00306,190.16722 201,169.96283 201,167.20001 c 0,-1.07532 -0.70789,-2.54262 -1.57309,-3.26067 -4.73414,-3.92899 -8.15362,-18.84444 -5.46987,-23.85907 2.98114,-5.57031 17.6348,-7.87549 28.86435,-4.54067 7.02698,2.08679 8.60027,4.61866 7.94472,12.78536 -0.5241,6.52928 -2.39492,11.19518 -6.42436,16.02263 l -2.37686,2.84759 3.17351,5.65241 c 6.60553,11.76528 10.21649,17.20078 11.20752,16.87044 0.56366,-0.18789 6.97653,-12.68881 14.25081,-27.77982 L 263.8227,134.5 l 5.14612,-0.30425 c 10.06422,-0.59503 27.88372,6.58525 34.62949,13.95378 10.66535,11.64995 12.5394,18.64828 12.1733,45.45913 L 315.5,213.5 212.42131,213.75465 c -56.69327,0.14005 -103.38077,-0.0474 -103.75,-0.41667 z m 91.08002,-96.86863 c -14.04111,-2.79362 -25.37255,-10.55253 -33.92822,-23.231487 -6.75678,-10.013125 -8.97537,-16.55468 -9.57715,-28.238549 -1.89319,-36.756831 29.67374,-64.39931102 66.31657,-58.071985 9.07025,1.5662121 19.54315,6.689839 26.61502,13.020788 32.62434,29.20628 21.22567,82.409773 -20.47917,95.586873 -8.8952,2.81054 -18.03444,3.10554 -28.94705,0.93436 z"
       id="path4162" />
    <path
       style="fill:#000000"
       d="m 133,468.24845 c -5.80888,-2.90187 -7.76925,-8.3204 -9.51216,-26.29198 C 122.6634,433.45541 121.29437,420.65 120.44555,413.5 116.72324,382.14519 108.06576,295.70261 108.56663,294.89219 c 0.721,-1.1666 206.13494,-1.18408 206.85587,-0.0176 0.50706,0.82044 -2.65892,33.29313 -7.47072,76.62541 -3.26129,29.36927 -3.69631,33.52988 -5.85524,56 -2.97234,30.93619 -3.18793,32.33706 -5.51219,35.81834 -4.67025,6.99512 -0.66093,6.67855 -84.58435,6.67855 -69.87801,0 -75.76062,-0.13019 -79,-1.74844 z M 59.398297,308.42415 c -1.705937,-0.84167 -13.068437,-11.56044 -25.25,-23.8195 L 12,262.31547 12.0037,250.90774 c 0.004,-12.35178 1.282394,-16.29327 6.192751,-19.09392 C 20.064766,230.74824 52.903889,230.40553 192,230 l 171.5,-0.5 0.31245,-4.35125 c 0.46583,-6.48736 -1.41678,-16.7919 -4.01521,-21.97749 -2.17046,-4.33152 -2.60865,-4.64473 -7.94017,-5.67562 -16.9796,-3.28314 -25.18596,-21.72448 -16.16228,-36.31993 6.9047,-11.16809 22.48297,-14.55546 33.35606,-7.253 11.11988,7.4682 14.21245,22.29799 6.93969,33.27786 l -2.91752,4.40464 2.4397,6.04008 c 2.26608,5.61025 3.23582,10.41594 5.21724,25.85471 l 0.77004,6 11,0.5 c 12.06152,0.54825 14.58861,1.45741 17.54977,6.31382 1.6232,2.6621 1.94337,5.06259 1.94649,14.59392 l 0.004,11.40773 -22.16618,22.30718 c -12.1914,12.26895 -23.64749,23.01011 -25.45797,23.86924 -2.6193,1.24294 -6.31372,1.50547 -18.08382,1.28508 L 331.5,309.5 l 0.006,-5 c 0.003,-2.75 0.32935,-8.74457 0.72419,-13.32126 0.68555,-7.94628 0.60845,-8.43071 -1.71084,-10.75 L 328.09091,278 l -115.98969,0 -115.989693,0 -2.559554,2.25 -2.559555,2.25 0.9415,12.94628 c 0.517825,7.12046 0.717973,13.30796 0.444774,13.75 -0.273199,0.44205 -7.107668,0.79347 -15.187709,0.78095 -11.133602,-0.0173 -15.442052,-0.39333 -17.792686,-1.55308 z m 49.273013,-95.08617 c -1.0657,-1.0657 -0.7784,-37.49613 0.34268,-43.45149 2.43357,-12.92764 12.12495,-25.37477 24.53068,-31.50602 6.30885,-3.118 8.59107,-3.69632 16.32734,-4.13743 l 8.99335,-0.51277 1.98469,3.26355 c 1.09158,1.79496 7.27036,14.45565 13.73062,28.13487 6.46451,13.6882 12.32957,24.87131 13.04394,24.87131 1.13521,0 8.19194,-10.9432 12.78788,-19.83078 1.50556,-2.91143 1.46346,-3.1632 -1.02314,-6.11836 C 195.99107,160.01224 193,152.00188 193,146.93961 c 0,-9.68123 6.11669,-13.52754 20.22593,-12.71849 12.91594,0.74063 17.77407,4.06619 17.77407,12.167 0,5.20382 -2.61624,12.55087 -5.94374,16.6915 -1.68094,2.09171 -3.05626,4.07492 -3.05626,4.40714 0,1.59375 13.56912,23.4902 14.38768,23.21735 0.51619,-0.17207 6.91996,-12.88838 14.23058,-28.25848 L 263.9103,134.5 l 4.88685,-0.29678 c 6.0019,-0.3645 21.60436,4.39719 28.27989,8.63069 8.49497,5.38734 15.76043,16.64183 17.88169,27.69942 0.68557,3.5737 1.02364,13.38621 0.84295,24.46667 L 315.5,213.5 212.42131,213.75465 c -56.69327,0.14005 -103.38077,-0.0474 -103.75,-0.41667 z m 93.67538,-96.43274 C 171.70264,111.78558 150.73963,81.149707 157.11275,50.799221 158.65838,43.438514 163.89756,32.488769 168.84848,26.271837 174.24374,19.496942 185.73105,11.472298 193.4446,9.0898262 230.06646,-2.2215136 265.85654,21.823239 267.73478,59 c 0.83147,16.457549 -4.81671,31.158127 -16.35219,42.56004 -13.25722,13.10371 -30.37987,18.46204 -49.0359,15.3452 z"
       id="path4160" />
    <path
       style="fill:#000000"
       d="m 133,468.24845 c -5.78469,-2.88978 -7.72051,-8.24475 -9.48879,-26.24845 -0.8373,-8.525 -2.20105,-21.35 -3.03055,-28.5 -4.13426,-35.63591 -12.38726,-117.8421 -11.90842,-118.61688 0.69393,-1.12282 206.12616,-1.18013 206.81986,-0.0577 0.55311,0.89495 -4.64473,52.25201 -10.44228,103.17459 -0.53225,4.675 -1.42105,13.45 -1.97512,19.5 -3.38511,36.96333 -4.08837,41.92073 -6.46798,45.59371 -4.68902,7.23763 -0.62866,6.90647 -84.65785,6.90474 -69.73227,-0.001 -75.60976,-0.13189 -78.84887,-1.75 z M 59.5,308.4474 c -3.701784,-1.90059 -44.088413,-41.91975 -46.0669,-45.64774 -0.977468,-1.84181 -1.431912,-5.97496 -1.429362,-13 0.004,-11.16009 1.416221,-15.26151 6.192751,-17.98584 C 20.064766,230.74824 52.903889,230.40553 192,230 l 171.5,-0.5 0.31245,-4.35125 c 0.77031,-10.7278 -4.04488,-26.32843 -8.31245,-26.93127 -15.16902,-2.1428 -24.62413,-13.0368 -23.20965,-26.74171 1.58407,-15.34822 15.79088,-24.61644 31.20965,-20.36053 5.37785,1.4844 13.90036,10.00691 15.38476,15.38476 2.17139,7.86675 1.07648,14.49379 -3.56211,21.56 l -2.33695,3.56 2.56126,6.3033 c 1.4087,3.46682 3.01427,9.96482 3.56793,14.44 0.55366,4.47519 1.31681,10.1617 1.69589,12.6367 l 0.68922,4.5 11,0.5 c 12.06152,0.54825 14.58861,1.45741 17.54977,6.31382 1.59085,2.60905 1.94343,5.05181 1.94649,13.48584 0.003,6.95639 -0.45621,11.17619 -1.41325,13 -0.77934,1.48519 -11.24263,12.44649 -23.25176,24.35846 -17.89573,17.75094 -22.46586,21.77342 -25.33301,22.29729 -1.92403,0.35154 -9.57324,0.50539 -16.99824,0.34188 L 331.5,309.5 l 0.008,-5 c 0.004,-2.75 0.35302,-8.72166 0.7751,-13.27036 0.73871,-7.96109 0.67468,-8.36308 -1.71224,-10.75 L 328.09091,278 l -115.98969,0 -115.989693,0 -2.580637,2.25 -2.580637,2.25 0.924023,13 c 0.508214,7.15 0.717849,13.3375 0.465857,13.75 -0.251992,0.4125 -7.069109,0.74723 -15.14915,0.74384 C 65.936191,309.98912 61.798306,309.62741 59.5,308.4474 Z m 49.17131,-95.10942 c -1.0657,-1.0657 -0.7784,-37.49613 0.34268,-43.45149 2.421,-12.86085 12.1324,-25.37845 24.38844,-31.43572 6.10031,-3.01494 8.57092,-3.6437 16.27951,-4.14312 8.80286,-0.57031 9.13725,-0.51323 10.66664,1.82091 0.86838,1.32532 7.02189,13.87607 13.67446,27.89056 6.65257,14.01448 12.48719,25.87668 12.96582,26.36043 0.91773,0.92755 5.40014,-5.56057 11.46754,-16.59884 l 3.56274,-6.48162 -3.01291,-3.79126 c -5.31244,-6.68483 -7.46944,-17.77761 -4.55339,-23.41664 2.12224,-4.10396 6.66604,-5.59119 17.08221,-5.59119 17.37778,0 22.36881,5.53334 18.02121,19.97933 -0.79406,2.63845 -2.81906,6.50858 -4.5,8.60029 C 223.37532,165.17133 222,167.15381 222,167.48514 222,168.89191 235.34789,191 236.19724,191 c 0.51326,0 3.11037,-4.6125 5.77136,-10.25 14.54675,-30.81838 20.92415,-43.91585 22.03546,-45.25489 1.94476,-2.34329 9.01394,-1.80201 19.23798,1.47304 14.87784,4.7658 21.99516,10.50377 28.08639,22.64319 3.76749,7.50835 4.78928,15.72511 4.46291,35.88866 l -0.29134,18 -103.07869,0.25465 c -56.69327,0.14005 -103.38077,-0.0474 -103.75,-0.41667 z m 92.04124,-96.87579 C 187.78602,113.8914 176.29466,107.04548 169.25503,97.721559 160.01657,85.485307 156.04472,74.85921 156.01478,62.299221 c -0.02,-8.410444 1.59014,-15.454193 5.44046,-23.799221 15.12292,-32.7768211 55.98461,-42.5283771 85.33862,-20.365883 5.91781,4.46799 13.13177,13.658521 16.27345,20.732249 14.32665,32.257532 -3.8085,68.793194 -38.52741,77.618604 -7.13074,1.8126 -14.63475,1.80543 -23.82735,-0.0228 z"
       id="path4158" />
    <path
       style="fill:#000000"
       d="m 133,468.19533 c -5.8603,-3.06783 -7.69994,-8.25635 -9.46511,-26.69533 -0.84243,-8.8 -1.99214,-19.69064 -2.55491,-24.20142 -2.83244,-22.70292 -12.85124,-121.69787 -12.3917,-122.44142 0.66966,-1.08353 206.11868,-1.14032 206.78811,-0.0572 0.53867,0.87158 -5.15939,57.22881 -10.43414,103.20001 -0.53641,4.675 -1.64486,15.84816 -2.46321,24.82925 -3.43177,37.66209 -4.01074,40.2736 -9.85233,44.44044 L 289.5,469.5 213,469.76378 c -72.51513,0.25005 -76.68231,0.16835 -80,-1.56845 z M 60.056826,308.89738 C 57.024972,307.6864 15.36189,266.50797 13.416562,262.79966 c -1.917282,-3.65484 -1.917341,-20.66536 -8.8e-5,-25.254 0.779061,-1.86455 2.671702,-4.2126 4.20587,-5.21788 C 20.289099,230.58036 27.95388,230.47802 191.95587,230 L 363.5,229.5 l 0.31172,-4.91973 c 0.75494,-11.91473 -3.88815,-25.77502 -8.83875,-26.38494 -13.23299,-1.63032 -22.99259,-12.20611 -22.96739,-24.88815 0.012,-6.04105 2.20655,-10.79998 7.35408,-15.94752 9.75708,-9.75707 22.72619,-10.03642 32.70288,-0.70439 9.25831,8.66006 10.46926,20.42325 3.23659,31.44027 l -2.36047,3.59554 2.11978,4.90446 c 2.76577,6.39905 4.89897,16.50998 4.93785,23.40446 0.0578,10.24937 -0.22595,9.99978 11.37034,10.00155 17.32607,0.003 20.62915,3.30039 20.63182,20.59841 0.001,9.56749 -0.15062,10.30557 -2.88478,14 -4.80455,6.49194 -42.4109,43.19261 -45.42877,44.33469 -1.5483,0.58594 -9.32493,1.06535 -17.28138,1.06535 -11.86422,0 -14.56867,-0.26681 -15.0355,-1.48334 -0.31307,-0.81584 -0.0428,-6.9412 0.60056,-13.61192 1.15447,-11.96999 1.14043,-12.1598 -1.07372,-14.51666 L 328.65137,278 212,278 l -116.651372,0 -2.179313,2.31977 c -2.112757,2.24893 -2.1517,2.71466 -1.275164,15.25 0.497282,7.11163 0.697974,13.26773 0.445982,13.68023 -0.674319,1.10383 -29.423052,0.78982 -32.283307,-0.35262 z m 48.614484,-95.5594 c -1.10575,-1.10576 -0.75764,-36.50211 0.42196,-42.90432 1.66121,-9.01614 5.53433,-16.20247 12.4981,-23.18945 9.20563,-9.23629 20.45845,-13.7431 32.5817,-13.04914 L 159.5,134.5 l 5.01915,10 c 2.76053,5.5 8.95005,18.26592 13.75448,28.36872 7.42689,15.6173 8.95605,18.18555 10.20878,17.14588 C 189.84687,188.8822 202,168.44475 202,167.2826 c 0,-0.28521 -1.33068,-2.03413 -2.95707,-3.88649 C 195.87189,159.78449 193,151.69076 193,146.36555 c 0,-7.85356 4.5871,-11.4469 15.50724,-12.14771 9.01605,-0.57861 17.47046,1.66706 20.42715,5.42588 3.76216,4.78281 1.85629,16.30018 -3.87813,23.4359 -1.68094,2.09171 -3.05626,4.07419 -3.05626,4.40552 0,1.73172 13.45849,23.5287 14.34523,23.23312 0.57366,-0.19122 6.81572,-12.43456 13.87123,-27.20742 7.05552,-14.77286 13.32326,-27.45624 13.92832,-28.18529 2.28164,-2.74921 11.85238,-1.27933 25.21381,3.87235 9.54797,3.68135 16.17959,9.69939 21.31948,19.34692 4.39028,8.24054 5.45365,15.92581 5.11327,36.95518 l -0.29134,18 -103.07869,0.25465 c -56.69327,0.14005 -103.38077,-0.0474 -103.75,-0.41667 z m 92.65489,-96.82004 c -8.61013,-1.56215 -16.91544,-5.21251 -23.95912,-10.53055 -6.4012,-4.83295 -16.61399,-19.705061 -19.07635,-27.779432 C 155.84066,70.173896 155.8908,53.391044 158.38696,46 165.70402,24.334387 183.15331,9.3394738 203.75,7.0176047 c 19.17187,-2.1612481 34.98552,2.9232241 47.4709,15.2630393 31.28498,30.920239 16.46784,83.236066 -26.681,94.204326 -7.06503,1.7959 -13.44701,1.80496 -23.2137,0.033 z"
       id="path4156" />
    <path
       style="fill:#000000"
       d="m 133.5,468.11455 c -6.85505,-3.15594 -8.37446,-7.87963 -10.49072,-32.61455 -0.61174,-7.15 -1.53147,-16.15 -2.04386,-20 -0.51238,-3.85 -2.06104,-17.8 -3.44146,-31 -1.38042,-13.2 -2.99097,-28.5 -3.57899,-34 -4.99461,-46.71639 -5.62049,-54.08385 -4.69361,-55.25 1.3622,-1.71384 205.38329,-1.84606 205.95415,-0.13348 0.20469,0.61409 0.0399,4.55159 -0.36615,8.75 -1.49545,15.46126 -6.636,63.86106 -9.83861,92.63348 -1.16003,10.42175 -2.54337,24.00267 -4.58364,45 -1.9152,19.71007 -3.24799,23.27153 -9.91693,26.49991 -4.01956,1.94584 -6.15066,1.99949 -78.5659,1.97813 -70.15782,-0.0207 -74.66409,-0.12777 -78.43428,-1.86349 z M 60.5,308.58191 C 58.85,307.82997 47.2625,296.90652 34.75,284.30757 L 12,261.40038 12,250.93459 c 0,-12.09283 1.487588,-16.11792 7.061664,-19.10732 C 22.323365,230.078 29.764044,230 193.37981,230 l 170.91102,0 -0.56758,-9.75 c -0.5727,-9.83797 -2.50141,-17.2424 -5.29556,-20.3299 -0.8358,-0.92355 -3.34025,-1.97031 -5.56543,-2.32614 -14.33249,-2.29185 -23.21543,-15.61637 -19.82704,-29.74078 1.00366,-4.18373 2.34779,-6.36662 6.44017,-10.459 4.27959,-4.27959 6.15103,-5.39094 10.8482,-6.44211 15.51076,-3.47116 29.10243,7.29288 29.10243,23.04793 0,6.27047 -1.33851,10.11177 -5.63894,16.18272 -0.95833,1.35288 -0.75539,2.62701 1.03526,6.5 2.80987,6.07744 5.13774,17.12316 5.1603,24.48549 0.0276,9.01993 -0.215,8.83179 11.38995,8.83179 C 408.60917,230 412,233.4415 412,250.93561 l 0,10.46682 -23.25,23.33127 c -17.31061,17.37112 -24.1441,23.59273 -26.75,24.35473 -1.925,0.56291 -9.575,0.88579 -17,0.71752 L 331.5,309.5 l 0.0346,-4 c 0.0191,-2.2 0.39563,-8.34843 0.83682,-13.66318 0.75037,-9.0393 0.66743,-9.79792 -1.28465,-11.75 L 329,278 212,278 c -116.40281,0 -117.010405,0.0104 -119.038477,2.03848 -1.898513,1.89851 -1.992047,2.80827 -1.36225,13.25 0.371926,6.16633 0.726741,12.33652 0.788478,13.71152 L 92.5,309.5 78,309.72454 c -10.541401,0.16323 -15.31902,-0.14871 -17.5,-1.14263 z m 47.85735,-96.09305 c -0.3209,-0.83627 -0.38141,-10.85087 -0.13446,-22.25467 0.39896,-18.42356 0.69772,-21.37377 2.68087,-26.4734 3.1357,-8.0634 7.82238,-14.50096 14.48216,-19.89251 7.37007,-5.96656 14.98262,-8.84554 25.32685,-9.57831 l 8.21277,-0.58178 1.62554,2.89591 c 0.89405,1.59274 7.0983,14.33345 13.78723,28.31267 6.68893,13.97923 12.65619,25.58156 13.26058,25.78297 C 188.61468,191.03823 202,169.1949 202,167.19876 c 0,-0.48883 -0.87081,-1.67686 -1.93513,-2.64005 -3.04413,-2.75491 -6.04608,-10.08557 -6.7027,-16.3678 -0.54359,-5.20071 -0.3511,-6.05061 2.00429,-8.84984 4.16839,-4.95385 13.74681,-6.58244 24.78773,-4.21458 6.69593,1.43602 10.84581,5.3063 10.84581,10.11509 0,5.19632 -2.64928,12.97419 -5.99014,17.58612 -1.65542,2.28524 -3.00986,4.46111 -3.00986,4.83527 0,1.83017 13.35609,23.385 14.29599,23.0717 0.59604,-0.19868 6.5818,-11.80776 13.3017,-25.79795 C 265.39867,132.04059 264.2243,134 268.1396,134 c 5.09859,0 15.71193,2.93874 23.52872,6.5149 12.42129,5.68271 20.98268,17.23183 23.33997,31.4851 0.59125,3.575 0.94376,14.375 0.78336,24 L 315.5,213.5 212.22041,213.75468 c -91.65536,0.22601 -103.34526,0.0835 -103.86306,-1.26582 z M 202,116.50656 C 184.93487,113.07908 174.77569,106.1959 165.21267,91.581938 148.44353,65.95575 156.08181,31.8941 182.42787,14.8136 191.27488,9.0779668 199.1191,7 211.92383,7 c 15.54534,0 24.03622,2.8509207 35.38169,11.879859 15.67062,12.470974 23.61299,34.904374 19.26955,54.427296 -2.56616,11.534436 -6.76544,19.042766 -15.49952,27.713205 -8.74019,8.67653 -14.81402,12.22731 -25.66099,15.00149 -8.78136,2.2459 -14.09782,2.35595 -23.41456,0.48471 z"
       id="path4154" />
    <path
       style="fill:#000000"
       d="m 135.60432,469.00342 c -4.33448,-1.35973 -8.28611,-5.68257 -9.46131,-10.3501 -0.57515,-2.28433 -1.75239,-11.57832 -2.61609,-20.65332 -0.86371,-9.075 -2.22096,-21.9 -3.01612,-28.5 -0.79515,-6.6 -1.929,-16.725 -2.51965,-22.5 -0.59065,-5.775 -1.47819,-14.1 -1.97231,-18.5 -3.31661,-29.53338 -7.22909,-71.50972 -6.7754,-72.69202 0.46239,-1.20495 15.66798,-1.43779 102.69586,-1.57255 91.4213,-0.14157 102.21557,0.005 102.74765,1.39117 0.67257,1.75268 -2.48101,34.11561 -8.70892,89.3734 -3.16919,28.11903 -3.82978,34.3955 -5.82376,55.33374 -2.02126,21.2246 -2.43843,22.54882 -8.5387,27.10447 -2.72521,2.03518 -3.73127,2.06445 -77.93821,2.26769 -42.92277,0.11756 -76.41974,-0.18384 -78.07304,-0.70248 z M 61.5,308.93625 c -1.953781,-0.5753 -11.021009,-8.91716 -26,-23.92003 l -23,-23.03667 0,-11.28549 c 0,-12.30194 0.889388,-14.93732 6.219798,-18.43013 2.541403,-1.66529 12.273179,-1.77854 174.021782,-2.02519 152.96415,-0.23325 171.39298,-0.42583 171.91898,-1.79656 1.0735,-2.7975 -1.70262,-19.81996 -4.08321,-25.03723 -2.28762,-5.01352 -2.4211,-5.114 -8.34048,-6.27857 -10.24828,-2.01622 -16.95679,-8.45222 -19.18806,-18.40859 -3.64906,-16.28283 11.41994,-31.28115 27.785,-27.65468 16.42736,3.64028 23.80658,22.18916 14.47372,36.38208 l -2.59425,3.94519 1.74767,4.55481 c 3.11023,8.10597 4.60744,14.94366 5.33056,24.34438 L 380.5,229.5 l 11.22886,0.53897 c 12.55082,0.60242 15.28692,1.78541 18.57725,8.03211 1.48012,2.81002 1.74619,5.28221 1.47408,13.6967 l -0.33203,10.26778 -22.97408,23.0038 c -18.18133,18.20485 -23.74985,23.2142 -26.69276,24.01233 -2.04528,0.55469 -9.47028,0.88248 -16.5,0.72842 L 332.5,309.5 l 0.30857,-13.56688 c 0.27051,-11.89331 0.0855,-13.83931 -1.5,-15.77535 L 329.5,277.9493 212.05452,277.9483 c -115.147596,-0.001 -117.483669,0.0368 -119.397341,1.95047 -1.835553,1.83555 -1.898391,2.73403 -1.05452,15.07798 0.562015,8.22105 0.542337,13.48067 -0.05266,14.07488 -1.183647,1.1821 -25.967053,1.08726 -30.05,-0.11499 z m 47.47379,-96.46783 c -0.97785,-1.17824 -1.1427,-6.19608 -0.71455,-21.75 0.49987,-18.15933 0.80637,-20.90164 3.00951,-26.927 4.38514,-11.99293 14.46709,-22.30477 26.03937,-26.63312 5.81183,-2.17379 19.51426,-3.69566 21.45122,-2.38249 0.69264,0.46957 6.92158,12.74961 13.84209,27.28898 C 185.20944,188.55306 186.51922,191 188.08973,191 c 0.83031,0 10.54406,-15.89613 12.96441,-21.21567 1.09514,-2.40694 0.95264,-3.08905 -1.25338,-6 -3.7424,-4.93827 -4.77015,-7.25141 -5.87331,-13.21899 -2.08815,-11.29585 2.77079,-15.83254 17.07255,-15.94028 8.7214,-0.0657 16.56203,2.25853 18.59308,5.51162 2.72949,4.37179 -0.70966,19.0606 -5.4479,23.26831 -1.17985,1.04774 -2.14518,2.70778 -2.14518,3.68898 0,2.56808 12.35481,23.35068 14.07886,23.6827 1.0038,0.19331 5.40922,-8.08534 14.36725,-26.99893 7.10575,-15.00276 13.52129,-27.78395 14.25677,-28.40264 1.89943,-1.59785 9.41808,-0.67181 18.79712,2.31516 11.13521,3.54627 14.34002,5.36221 19.83964,11.24175 6.2298,6.66017 10.40723,15.68227 11.63239,25.12278 1.4265,10.99191 1.30985,37.26333 -0.17203,38.74521 -0.9176,0.9176 -25.12835,1.2 -102.87756,1.2 -90.0919,0 -101.82239,-0.17452 -102.94865,-1.53158 z M 202.5,116.37703 C 187.47889,113.66518 175.03312,105.84248 167.08991,94.120257 159.08609,82.308607 156.68937,74.732545 156.75052,61.437374 156.8602,37.589633 172.23834,16.475283 194.69048,9.3454013 203.31071,6.6079683 218.2267,6.147168 226.5,8.3627087 234.22366,10.431061 243.15426,15.374347 249.27729,20.970451 261.00303,31.687113 267.11035,45.265213 267.28227,61 c 0.17517,16.031303 -5.04417,28.968801 -16.17882,40.10345 -13.10367,13.10367 -30.4423,18.55231 -48.60345,15.27358 z"
       id="path4152" />
    <path
       style="fill:#000000"
       d="m 132.18982,466.97437 c -4.68056,-2.85367 -6.18668,-7.37619 -7.80301,-23.43076 -0.77763,-7.72399 -2.30838,-21.91861 -3.40167,-31.54361 -1.09329,-9.625 -4.03154,-37.3 -6.52943,-61.5 -2.4979,-24.2 -4.81141,-46.5875 -5.14113,-49.75 l -0.59949,-5.75 103.14245,0 C 311.2909,295 315,295.06607 315,296.8374 c 0,1.01058 -0.89164,10.12308 -1.98143,20.25 -1.08979,10.12693 -2.69338,25.3876 -3.56353,33.9126 -0.87016,8.525 -2.44307,22.925 -3.49536,32 -2.57041,22.16727 -3.58955,31.8711 -5.83833,55.59021 -2.07593,21.89604 -3.04592,25.17357 -8.4199,28.45027 -3.10157,1.89115 -5.58801,1.95204 -79.70145,1.95204 -74.96931,0 -76.56623,-0.0404 -79.81018,-2.01815 z M 58.5,307.10789 C 56.85,306.07134 45.9375,295.5866 34.25,283.80847 L 13,262.39368 13,250.09684 13,237.8 l 3.4,-3.4 3.4,-3.4 171.47756,0 c 152.04984,0 171.62017,-0.17185 172.7364,-1.51682 2.67531,-3.22356 -1.69068,-27.31014 -5.52749,-30.49441 -0.82895,-0.68797 -3.64002,-1.64818 -6.24683,-2.1338 -7.44954,-1.38779 -13.19208,-5.51138 -16.53076,-11.87041 -2.54121,-4.84012 -2.83875,-6.31914 -2.53222,-12.58738 0.40451,-8.27183 3.22056,-13.32321 10.07193,-18.06685 3.71145,-2.56967 4.87828,-2.83033 12.66967,-2.83033 8.04412,0 8.87307,0.20232 13.23205,3.22946 10.54422,7.32253 13.22214,24.57158 5.19226,33.4445 -1.81727,2.00806 -1.50608,4.5353 1.61943,13.15193 1.16228,3.20424 2.62547,10.62924 3.25154,16.5 0.62607,5.87076 1.56424,11.23661 2.08483,11.92411 0.65621,0.86661 4.31351,1.25 11.92407,1.25 l 10.97756,0 3.4,3.4 3.4,3.4 0,12.29801 0,12.298 -21.75,21.87718 c -11.9625,12.03244 -22.96515,22.51834 -24.45034,23.30199 C 362.808,308.62607 358.13813,309 347.00566,309 l -15.09367,0 0.67076,-13.75 c 0.65265,-13.37879 0.61051,-13.80399 -1.56098,-15.75 -2.20483,-1.97588 -3.64233,-2 -119.21334,-2 l -116.981597,0 -2.415863,2.80861 c -1.889338,2.19648 -2.314744,3.61312 -1.9519,6.5 0.255179,2.03026 0.722449,7.85389 1.038377,12.94139 l 0.574414,9.25 -15.28593,-0.004 C 63.543873,308.99302 61.098872,308.74053 58.5,307.10789 Z M 109.16815,190.25 109.5,167.5 l 3.21506,-6.7876 c 4.31188,-9.10322 12.46845,-17.53905 21.07506,-21.79665 5.77134,-2.85502 7.98996,-3.3771 15.86149,-3.73251 8.75144,-0.39512 9.21654,-0.30978 10.63652,1.95178 0.8167,1.30074 7.01889,13.96951 13.78264,28.15282 8.93105,18.72803 12.7176,25.70698 13.83141,25.49248 1.89693,-0.36531 14.024,-20.50074 14.06675,-23.35601 0.0171,-1.14162 -1.07102,-3.11105 -2.41803,-4.37649 -5.34644,-5.02273 -7.5383,-20.06042 -3.51097,-24.08775 3.09689,-3.09689 6.34454,-3.96007 14.89944,-3.96007 8.33971,0 15.74034,1.96019 17.81063,4.71747 3.33309,4.43912 0.49994,17.63148 -5.25538,24.47129 l -2.51219,2.98557 3.54084,6.16284 c 1.94746,3.38956 4.98891,8.74045 6.75878,11.89088 1.76987,3.15043 3.7981,5.95558 4.50717,6.23367 1.18525,0.46483 9.88293,-16.52766 24.42145,-47.71172 l 4.0794,-8.75 5.24963,0 c 10.49332,0 27.48487,6.96415 33.65511,13.79387 10.03883,11.11179 11.77787,17.59354 11.79332,43.95613 L 315,213 l -103.08185,0 -103.08184,0 0.33184,-22.75 z m 92.17854,-74.34476 c -14.25289,-2.38121 -25.54351,-9.7907 -34.35022,-22.542399 -7.00321,-10.140324 -9.12877,-16.298025 -9.75561,-28.2618 -0.89204,-17.025638 4.15029,-30.586159 15.6135,-41.989885 C 183.87818,12.144533 196.32899,7.0295622 212,7.0295622 c 15.62993,0 28.16103,5.1314628 39,15.9704378 10.9669,10.966898 16,23.177126 16,38.815754 0,15.300003 -4.99319,28.018828 -15.03253,38.291406 -13.59678,13.91265 -30.44094,19.1695 -50.62078,15.79808 z"
       id="path4150" />
    <path
       style="fill:#000000"
       d="m 132.41996,467.11432 c -4.84165,-2.95243 -6.31228,-7.44058 -7.9672,-24.3147 C 123.62748,434.38483 122.05727,419.625 120.96339,410 118.99255,392.65848 109,297.24507 109,295.76803 109,295.34561 155.35,295 212,295 c 57.50033,0 103,0.38316 103,0.86737 0,0.47706 -1.36137,13.63956 -3.02527,29.25 -1.6639,15.61045 -3.68382,34.90763 -4.48872,42.88263 -0.80489,7.975 -1.89222,17.875 -2.41628,22 -1.30247,10.25208 -2.71458,23.68976 -5.08957,48.43253 -2.20972,23.02088 -2.98643,25.50789 -8.96456,28.70437 -3.31152,1.77067 -7.2558,1.86291 -79.5,1.85936 -72.60887,-0.004 -76.15364,-0.0879 -79.09564,-1.88194 z M 57.400038,306.12266 C 55.255017,304.54013 44.3875,294.03228 33.25,282.77188 L 13,262.29844 13,251.09956 c 0,-8.05424 0.425952,-12.02258 1.516927,-14.13229 3.307155,-6.39534 -9.4514201,-5.96576 177.683413,-5.98258 97.70081,-0.009 170.89871,-0.39457 171.7049,-0.90496 1.10795,-0.70144 1.27598,-2.65508 0.79424,-9.23469 -1.12173,-15.32077 -5.04941,-23.82572 -11.02206,-23.867 -7.54729,-0.0522 -17.47324,-7.97927 -19.6053,-15.65726 -2.55616,-9.20531 -0.35446,-17.93835 6.05577,-24.0201 14.55589,-13.81002 38.7655,-3.60014 38.85015,16.38422 0.025,5.91522 -1.04335,9.29362 -4.55259,14.39579 l -2.46278,3.58068 1.99734,4.51533 c 2.61228,5.90547 4.69211,15.3847 5.55618,25.3233 0.38254,4.4 1.21039,8.33061 1.83967,8.73469 0.62928,0.40408 5.55399,0.74158 10.9438,0.75 C 408.7574,231.0104 411,233.42264 411,251.09956 l 0,11.19888 -20.25,20.47344 c -11.1375,11.2604 -22.00502,21.76825 -24.15004,23.35078 C 362.7025,308.9981 362.68976,309 347.34996,309 L 332,309 l 0.0271,-3.25 c 0.0149,-1.7875 0.43419,-7.45873 0.93175,-12.60273 1.00554,-10.39562 0.32073,-13.24322 -3.61617,-15.037 -3.45625,-1.57477 -231.229111,-1.57477 -234.685355,0 -3.331495,1.51793 -4.65426,4.89898 -4.145073,10.595 0.235739,2.6371 0.661182,8.28223 0.945428,12.54473 l 0.516812,7.75 -15.337207,0 c -15.325753,0 -15.340121,-0.002 -19.237247,-2.87734 z M 109,193.2101 c 0,-14.65888 0.40239,-21.33521 1.552,-25.75 3.19111,-12.25471 11.56062,-22.4296 23.16902,-28.16678 6.31942,-3.12323 8.6467,-3.72364 15.91141,-4.10494 4.8461,-0.25435 8.92948,-0.0265 9.4853,0.52935 0.53678,0.53678 5.24029,9.93238 10.45224,20.87912 13.57484,28.51141 16.78131,34.74332 18.08436,35.14776 0.63489,0.19705 4.34012,-5.15848 8.23385,-11.90119 6.57136,-11.3795 6.97251,-12.40604 5.58877,-14.30144 -4.10072,-5.61701 -4.81762,-6.83684 -6.05402,-10.30106 -1.71673,-4.81009 -1.73778,-13.24247 -0.0386,-15.48031 2.21383,-2.91571 8.16413,-4.76093 15.33359,-4.75503 13.55711,0.0111 19.28588,3.25607 19.27654,10.91873 -0.008,6.62917 -1.60802,11.41629 -5.53493,16.56081 C 222.55677,164.97782 221,167.26755 221,167.57341 221,168.8373 235.14396,192 235.91574,192 c 1.4698,0 2.5227,-1.98488 15.11806,-28.5 6.79286,-14.3 12.81375,-26.61611 13.37976,-27.36914 2.40062,-3.19388 21.73428,1.2495 32.24934,7.41174 4.8608,2.84862 10.99467,10.05285 14.2042,16.68286 3.30192,6.82086 4.1329,13.63916 4.1329,33.91103 L 315,213 l -103,0 -103,0 0,-19.7899 z m 93.575,-77.26985 C 184.24147,112.87095 170.22976,102.0648 161.89253,84.564991 157.96319,76.317327 156.66885,69.055471 157.24676,58.5 158.16327,41.760083 166.49892,26.617619 180.02738,17.116951 190.63364,9.6684685 197.89363,7.4925745 212,7.5344338 c 12.26521,0.036396 15.71111,0.8023325 25.41626,5.6493832 11.95906,5.972719 21.03945,16.13869 26.29515,29.438764 2.44604,6.189951 2.71741,8.12692 2.7148,19.377419 -0.002,10.732866 -0.3342,13.348224 -2.34639,18.5 -10.13609,25.95119 -34.46114,39.96775 -61.50482,35.44025 z"
       id="path4148" />
    <path
       style="fill:#000000"
       d="m 133.10812,467.28361 c -5.11868,-2.52147 -6.88765,-7.65624 -8.597,-24.95439 -0.80596,-8.15607 -1.94968,-19.10422 -2.5416,-24.32922 -4.48327,-39.57471 -12.77236,-121.51 -12.36019,-122.1769 0.63571,-1.0286 205.39372,-1.10148 205.38247,-0.0731 -0.005,0.4125 -0.43926,4.575 -0.9661,9.25 -0.90579,8.0377 -3.06305,28.71191 -6.52157,62.5 -0.84446,8.25 -1.95965,18.15 -2.47819,22 -1.0099,7.49815 -1.89491,15.96731 -5.12032,48.99915 -2.26442,23.19025 -3.16155,25.97082 -9.32251,28.89439 -3.01723,1.43177 -11.57906,1.60398 -78.73424,1.58369 -68.35218,-0.0207 -75.66383,-0.17792 -78.74075,-1.69362 z M 60.5,308.02667 C 59.4,307.56107 48.2625,296.87968 35.75,284.29025 L 13,261.40038 13,250.65053 c 0,-11.59545 1.157106,-15.52646 5.26035,-17.87089 C 20.046369,231.75919 55.337812,231.39873 192.5,231 l 172,-0.5 -0.13198,-9.13664 c -0.19696,-13.63431 -4.46038,-24.35554 -9.6906,-24.36894 -5.38622,-0.0138 -10.32687,-2.34819 -14.86026,-7.02128 -9.31329,-9.6003 -9.17949,-23.66853 0.31073,-32.67246 9.21755,-8.74523 22.52052,-8.52948 31.84525,0.51648 8.56453,8.30849 9.48565,20.30738 2.3015,29.98051 l -2.44915,3.29768 2.61166,6.5238 c 2.40129,5.99831 3.16733,9.87802 5.30759,26.88085 l 0.75526,6 11.5,0.5 c 17.4044,0.75671 19,2.4075 19,19.65717 l 0,10.7565 -23.47988,23.54316 L 364.04023,308.5 348.02012,308.81881 332,309.13762 l 0.0258,-2.81881 c 0.0142,-1.55034 0.45294,-7.20982 0.97501,-12.5766 1.07018,-11.00136 0.3421,-13.94508 -3.88053,-15.6895 -1.84136,-0.7607 -37.20361,-1.00374 -118.95875,-0.81759 L 93.823054,277.5 91.89869,279.87664 c -1.978531,2.44353 -2.027172,5.65733 -0.361328,23.87336 L 92.017471,309 77.258736,308.9366 C 69.141431,308.90175 61.6,308.49228 60.5,308.02667 Z M 109,194.13649 c 0,-10.37493 0.45629,-21.28743 1.01399,-24.25 2.40016,-12.75013 12.33362,-25.34649 24.46502,-31.02346 5.40077,-2.52733 8.37374,-3.21977 15.59072,-3.63126 l 8.91743,-0.50845 9.4787,19.88834 c 13.42036,28.15879 17.86242,36.74764 19.21579,37.15434 0.98827,0.29699 5.22418,-6.27565 14.11094,-21.89517 1.41743,-2.49131 1.32806,-2.83798 -1.70462,-6.61174 -5.83307,-7.25848 -7.82536,-18.78064 -4.07233,-23.55184 2.9573,-3.7596 8.00839,-5.05005 17.45905,-4.46045 8.57882,0.53522 13.75045,2.43684 15.49567,5.69781 2.53395,4.73474 0.0394,15.97099 -4.9141,22.13501 -1.68094,2.09171 -3.03741,4.16699 -3.01438,4.61174 0.11166,2.15598 13.77557,23.80864 15.02443,23.80864 1.59752,0 3.43523,-3.46722 18.41835,-34.75 l 10.41733,-21.75 4.799,0.009 c 5.80346,0.0108 22.76706,5.65741 28.10105,9.35387 4.18515,2.90031 9.9067,10.02694 12.95561,16.13719 C 314.10557,167.20948 315,174.28278 315,194.04922 L 315,213 l -103,0 -103,0 0,-18.86351 z m 95.5,-77.83405 C 194.0018,114.91004 181.82127,109.3238 175.00757,102.77658 169.35235,97.342541 161.37915,84.977405 159.43333,78.623487 149.57935,46.446065 171.03508,12.201174 203.75,7.8908977 249.37415,1.8797961 281.60715,47.588332 260.34523,88.146695 249.97882,107.92123 227.34534,119.33246 204.5,116.30244 Z"
       id="path4146" />
    <path
       style="fill:#000000"
       d="m 134.41519,467.57859 c -6.77854,-2.95138 -8.32214,-7.6384 -10.39997,-31.57859 -0.5967,-6.875 -1.75437,-17.9 -2.5726,-24.5 -0.81823,-6.6 -3.29323,-29.55 -5.5,-51 -2.20677,-21.45 -4.61338,-44.625 -5.34802,-51.5 -0.73464,-6.875 -1.1424,-12.8375 -0.90614,-13.25 0.56167,-0.98063 204.06308,-0.98063 204.61765,0 0.23328,0.4125 0.0535,4.125 -0.39954,8.25 -0.45304,4.125 -1.7368,16.275 -2.85282,27 -2.30372,22.13894 -5.66982,53.39016 -7.10893,66 -0.53354,4.675 -1.85349,17.725 -2.93322,29 -3.13491,32.73597 -3.16357,32.92767 -5.43185,36.32517 -4.66344,6.98504 -0.76891,6.67592 -83.57975,6.63413 -60.09304,-0.0303 -75.09655,-0.29732 -77.58481,-1.38071 z M 59.5,307.12223 C 57.85,306.07748 46.672571,295.32161 34.661268,283.22028 l -21.838731,-22.0024 0.338731,-11.59235 c 0.338293,-11.57732 0.342971,-11.59658 3.607872,-14.85894 L 20.03828,231.5 192.26914,231 364.5,230.5 l 0.29808,-6.26406 c 0.3806,-7.99811 -1.18705,-16.52815 -4.07275,-22.16105 -2.09586,-4.09114 -2.6805,-4.51027 -7.74614,-5.55338 -12.97883,-2.67257 -19.4118,-10.13608 -19.4118,-22.52151 0,-13.59971 8.82891,-22.42602 22.43261,-22.42602 13.62329,0 22.39612,8.79158 22.4663,22.51431 0.0295,5.77522 -0.3822,7.25616 -3.33631,12 -3.07165,4.9326 -3.26227,5.67731 -2.15313,8.41171 3.4551,8.51794 5.21143,15.88089 5.72489,24 0.31304,4.95 0.95325,9.74865 1.42269,10.66368 0.7046,1.37338 2.85917,1.72236 12.34795,2 11.46511,0.33546 11.50276,0.34465 14.76102,3.60291 3.2617,3.2617 3.2671,3.28395 3.60537,14.8611 l 0.33879,11.59451 -22.75959,22.83833 c -12.51778,12.56108 -23.93315,23.32443 -25.3675,23.91856 -1.56737,0.64923 -8.18234,0.96865 -16.57919,0.80057 L 332.5,308.5 332.5432,305 c 0.0238,-1.925 0.40175,-7.86746 0.83999,-13.20547 0.78415,-9.55146 0.75642,-9.74584 -1.74774,-12.25 L 329.09091,277 212,277 l -117.090909,0 -2.553859,2.55386 c -2.421472,2.42147 -2.523534,2.95281 -1.968875,10.25 C 90.708098,294.03674 91.090288,299.975 91.23567,303 L 91.5,308.5 77,308.76089 c -12.801991,0.23033 -14.851312,0.0384 -17.5,-1.63866 z m 50.17136,-94.7842 c -1.04048,-1.04049 -0.78014,-34.10213 0.32158,-40.83803 3.46941,-21.21197 23.7296,-37.68441 44.65196,-36.30405 l 4.60848,0.30405 8.30615,17.5 c 16.04368,33.80199 18.81445,39.07463 20.37572,38.77395 1.36323,-0.26253 15.0112,-22.1467 15.0486,-24.13005 0.009,-0.47085 -1.24112,-2.49585 -2.77777,-4.5 -3.84083,-5.00929 -5.16062,-8.39957 -5.83878,-14.99863 -0.48872,-4.75556 -0.25226,-6.05894 1.50034,-8.27002 3.52629,-4.4488 13.68324,-6.02277 24.24649,-3.75735 6.47165,1.38792 9.88587,4.54977 9.88587,9.15514 0,5.40964 -2.85071,13.48734 -6.04293,17.12307 -1.62639,1.85236 -2.95707,3.9344 -2.95707,4.62677 0,2.56594 13.51159,24.92195 15.07901,24.94944 1.09085,0.0191 5.76808,-8.70608 15.12885,-28.22232 l 13.54983,-28.25 3.77595,-0.31959 c 4.19252,-0.35485 18.37422,3.7263 25.50651,7.34015 5.18802,2.62872 11.42699,9.00767 15.3392,15.68335 4.37117,7.45883 5.70328,16.49644 5.39354,36.59188 L 314.5,212.5 212.42136,212.75469 c -56.14325,0.14008 -102.38075,-0.0474 -102.75,-0.41666 z M 202,115.48393 c -17.27934,-3.53066 -27.16002,-10.31574 -36.66899,-25.18065 -18.51444,-28.942728 -3.39576,-70.172338 29.4522,-80.3180383 8.93329,-2.7592137 25.50029,-2.7592137 34.43358,0 26.03128,8.0402423 42.33952,36.4374153 36.36022,63.3132313 -2.5159,11.308455 -6.79782,19.075917 -15.00465,27.218627 -8.25431,8.18981 -14.46314,11.76952 -25.1578,14.50475 -8.80693,2.25243 -14.13758,2.35763 -23.41456,0.46208 z"
       id="path4144" />
    <path
       style="fill:#000000"
       d="m 135.5,467.53441 c -7.68992,-2.80544 -8.67729,-5.51133 -10.95947,-30.03441 -0.87013,-9.35 -2.01415,-20.15 -2.54226,-24 -0.52811,-3.85 -2.07178,-17.8 -3.43039,-31 -1.35861,-13.2 -3.89365,-37.60383 -5.63342,-54.23074 -1.73977,-16.62691 -2.93499,-30.8255 -2.65604,-31.55242 0.41533,-1.08234 18.90689,-1.34606 102.11438,-1.45634 L 314,295.12583 l 0,2.56092 c 0,3.07378 -6.21459,62.9025 -9.01756,86.81325 -2.46958,21.06679 -3.37623,29.66365 -5.81057,55.09569 -2.08546,21.78725 -2.79588,24.04237 -8.57037,27.20542 -2.82729,1.54869 -9.6441,1.72071 -77.1015,1.94574 -62.80675,0.20951 -74.60504,0.0261 -78,-1.21244 z M 62,308.2651 c -3.68346,-0.68148 -46.62289,-43.59242 -48.099986,-48.06806 -0.657332,-1.99174 -0.954887,-7.16615 -0.708472,-12.32014 0.486035,-10.16584 2.218153,-13.57883 7.902122,-15.57046 2.585264,-0.90586 44.439229,-1.20716 173.637286,-1.25 L 364.9619,231 l 0.61797,-2.46222 c 1.12532,-4.48361 -1.47597,-19.67827 -4.36705,-25.50889 -2.68611,-5.41725 -2.77745,-5.48647 -9.27758,-7.03171 -10.01483,-2.38076 -15.9202,-8.03696 -17.8666,-17.11273 -4.30153,-20.05735 18.11375,-35.0409 34.93136,-23.34997 10.81974,7.52145 12.3715,21.4676 3.7501,33.70331 -1.0017,1.42164 -0.73161,3.14995 1.48464,9.5 2.87989,8.25157 4.60198,17.27241 5.01349,26.26221 l 0.25177,5.5 11.71575,0.52917 c 13.23983,0.59802 16.33493,1.94885 18.47781,8.06449 1.66161,4.74214 1.61483,18.25317 -0.0768,22.18846 -0.76079,1.76983 -11.22329,12.93921 -23.25,24.82084 -17.37363,17.16405 -22.56021,21.73591 -25.24173,22.25 C 359.26875,308.70883 352.13065,309 345.26256,309 l -12.48743,0 0.70587,-13.75 c 0.70252,-13.68456 0.69433,-13.7608 -1.72174,-16.01854 l -2.42762,-2.26853 -117.361,-0.0136 -117.361005,-0.0136 -2.452479,2.45248 -2.452479,2.45248 0.897662,13.16388 c 0.493713,7.24014 0.710161,13.35097 0.480994,13.57962 C 90.53096,309.1354 65.201515,308.85742 62,308.2651 Z m 47.32694,-96.85549 c -1.28221,-3.34138 0.47042,-39.73028 2.1871,-45.40961 3.35316,-11.09333 12.77256,-21.95278 23.1709,-26.7133 7.28477,-3.33508 21.76102,-5.27981 23.80964,-3.19857 0.76436,0.77653 7.06152,13.33687 13.99369,27.91187 6.93217,14.575 13.1457,27.04623 13.80784,27.71384 0.66214,0.66761 1.74132,0.88154 2.39817,0.47542 C 190.50114,191.07208 203,169.15257 203,167.10101 c 0,-0.98507 -0.94607,-2.64722 -2.10238,-3.69366 -3.07455,-2.78243 -4.90947,-6.83592 -5.92836,-13.09624 -1.19787,-7.35996 0.50186,-11.6709 5.18397,-13.14786 11.82735,-3.7309 26.60246,-1.17144 28.74677,4.97974 1.83926,5.27609 -1.54433,17.41519 -5.9708,21.42108 -1.06106,0.96025 -1.91035,2.68866 -1.88732,3.84092 0.0596,2.98003 13.29985,25.09501 15.02443,25.09501 0.87322,0 5.23242,-7.81855 11.15091,-20 5.34447,-11 11.64447,-23.825 14,-28.5 l 4.28278,-8.5 5,0.30533 c 11.23809,0.68627 26.68168,7.32205 32.54606,13.98433 9.54052,10.83861 12.25998,22.00506 11.74107,48.21034 L 314.5,212.5 212.22043,212.75472 c -92.97689,0.23155 -102.33541,0.10921 -102.89349,-1.34511 z m 93.09325,-96.28678 C 186.0006,112.08351 175.31743,104.96902 166.19716,91 160.19827,81.811817 157.85069,73.681326 157.81316,61.963154 157.76406,46.637292 163.17308,33.576938 173.94994,23 184.35739,12.785621 196.49694,8 212,8 c 15.79618,0 27.85435,4.854658 38.49985,15.500153 21.26619,21.266197 21.22667,55.932521 -0.0878,77.024157 -13.17252,13.03479 -29.5409,18.01385 -47.99185,14.59852 z"
       id="path4142" />
    <path
       style="fill:#000000"
       d="m 133.18982,465.97437 c -4.75987,-2.90202 -6.06465,-7.08737 -7.71964,-24.76243 -0.80915,-8.64157 -2.1543,-21.33694 -2.98922,-28.21194 -0.83493,-6.875 -3.76312,-34.325 -6.50708,-61 -2.74397,-26.675 -5.25018,-50.1875 -5.56935,-52.25 l -0.58033,-3.75 102.09972,0 102.09972,0 -0.5276,3.75 c -0.29017,2.0625 -1.63209,14.55 -2.98203,27.75 -2.36761,23.1509 -5.5505,52.81513 -7.56444,70.5 -0.53239,4.675 -1.63874,15.7 -2.45856,24.5 -3.6029,38.6737 -3.8881,39.94216 -9.78956,43.54048 -3.1006,1.89055 -5.57982,1.95204 -78.70145,1.95204 -73.96631,0 -75.56724,-0.041 -78.81018,-2.01815 z M 59.5,306.10789 C 57.85,305.07134 46.897584,294.54652 35.161297,282.71941 l -21.338704,-21.50383 0.338704,-11.58771 c 0.325135,-11.12353 0.449768,-11.69867 3.111319,-14.35779 L 20.045232,232.5 192.77262,231.99014 c 95.00006,-0.28042 172.90532,-0.61792 173.12279,-0.75 1.19341,-0.72478 -0.9343,-20.43332 -2.76735,-25.63341 -2.69097,-7.63388 -4.26676,-9.24954 -9.60854,-9.85164 -13.21939,-1.49002 -22.06983,-14.67219 -18.61773,-27.72995 4.22703,-15.98901 24.42158,-21.30758 36.46423,-9.60346 7.6428,7.42795 8.65935,18.20063 2.63091,27.88066 -2.95709,4.74829 -3.12931,5.45703 -1.99192,8.19766 3.76384,9.06929 5.07022,14.45758 5.95799,24.57421 0.54083,6.16299 1.25622,11.48002 1.58976,11.81562 0.33354,0.33559 5.96073,0.83517 12.50486,1.11017 11.35735,0.47726 12.02447,0.62597 14.6704,3.27008 2.66077,2.65895 2.78557,3.23503 3.11071,14.35894 l 0.33873,11.58886 -21.83873,21.96624 c -12.0113,12.08143 -23.05388,22.60741 -24.53907,23.39106 C 361.83028,307.61431 357.26123,308 346.92045,308 l -14.17887,0 0.6612,-7.25 c 0.36366,-3.9875 0.92754,-9.81638 1.25306,-12.95307 0.55865,-5.38294 0.42084,-5.87409 -2.45506,-8.75 L 329.15385,276 212,276 l -117.153846,0 -2.961885,2.96188 c -2.96023,2.96023 -2.961562,2.96708 -2.384593,12.25 0.317511,5.10847 0.790292,10.97562 1.050626,13.03812 L 91.023635,308 76.761818,307.996 C 64.523026,307.99305 62.074453,307.72519 59.5,306.10789 Z M 110,194.18366 c 0,-9.79899 0.48913,-20.48649 1.08695,-23.75 1.55416,-8.4841 6.2159,-16.5522 13.50201,-23.368 7.65614,-7.16194 14.61159,-10.05969 25.91104,-10.79495 l 8,-0.52056 13.52878,28.37493 c 10.51254,22.04873 13.97596,28.43987 15.53452,28.66623 1.61931,0.23519 3.3959,-2.11367 9.22122,-12.19153 C 200.75303,173.73422 204,167.65629 204,167.09327 c 0,-0.56302 -1.3927,-2.60987 -3.09488,-4.54855 -5.28672,-6.02124 -7.5813,-17.70662 -4.37564,-22.28335 4.23408,-6.04499 28.22069,-5.33374 31.57631,0.9363 2.54773,4.76047 -0.92609,17.61915 -5.99938,22.20732 -1.15853,1.04774 -2.10641,2.57492 -2.10641,3.39374 0,0.81881 3.21793,7.07146 7.15095,13.89478 5.85036,10.14966 7.52372,12.35151 9.2005,12.10626 1.61343,-0.23598 4.92473,-6.31088 15.5619,-28.54977 l 13.51236,-28.25 3.3928,0 c 5.02562,0 14.75184,2.7488 22.69171,6.41306 11.01694,5.08434 19.08706,15.78402 21.47579,28.47343 0.5577,2.96257 1.01399,13.42507 1.01399,23.25 L 314,212 l -102,0 -102,0 0,-17.81634 z m 91.12053,-79.70037 C 187.0069,111.92771 175.9936,104.55572 167.6004,92.045881 161.39742,82.800494 158.8805,75.514615 158.25736,65 157.32811,49.320566 162.75314,35.177897 174.01802,23.913018 186.29452,11.636516 201.10075,6.8444947 220.07082,9.0080768 245.6847,11.929402 266,35.368683 266,62 c 0,24.735744 -16.9803,46.22867 -41.4601,52.47838 -7.09581,1.81157 -13.43443,1.8129 -23.41937,0.005 z"
       id="path4140" />
  </g>
</svg>
