<?xml version="1.0" encoding="UTF-8" standalone="no"?>
<svg
   xmlns:dc="http://purl.org/dc/elements/1.1/"
   xmlns:cc="http://creativecommons.org/ns#"
   xmlns:rdf="http://www.w3.org/1999/02/22-rdf-syntax-ns#"
   xmlns:svg="http://www.w3.org/2000/svg"
   xmlns="http://www.w3.org/2000/svg"
   viewBox="0 0 249.99999 226.39809"
   height="226.39809"
   width="250"
   xml:space="preserve"
   version="1.1"
   id="svg2"><metadata
     id="metadata8"><rdf:RDF><cc:Work
         rdf:about=""><dc:format>image/svg+xml</dc:format><dc:type
           rdf:resource="http://purl.org/dc/dcmitype/StillImage" /><dc:title></dc:title></cc:Work></rdf:RDF></metadata><defs
     id="defs6"><clipPath
       id="clipPath16"
       clipPathUnits="userSpaceOnUse"><path
         id="path18"
         d="m 0,595.276 841.89,0 L 841.89,0 0,0 0,595.276 Z" /></clipPath></defs><g
     style="fill:#000000"
     transform="matrix(0.52998103,0,0,-0.52998103,-98.092758,270.94141)"
     id="g10"><g
       style="fill:#000000"
       id="g12"><g
         style="fill:#000000"
         clip-path="url(#clipPath16)"
         id="g14"><g
           style="fill:#000000"
           transform="translate(228.1357,373.6025)"
           id="g20"><path
             id="path22"
             style="fill:#000000;fill-opacity:1;fill-rule:evenodd;stroke:none"
             d="m 0,0 c -0.504,3.681 -0.761,7.409 -0.761,11.182 0,69.787 88.265,126.444 196.982,126.444 108.716,0 196.984,-56.657 196.984,-126.444 0,-3.773 -0.257,-7.501 -0.765,-11.182 L 0,0 Z" /></g><g
           style="fill:#000000"
           transform="translate(228.1357,176.123)"
           id="g24"><path
             id="path26"
             style="fill:#000000;fill-opacity:1;fill-rule:evenodd;stroke:none"
             d="m 0,0 c -0.504,-3.68 -0.761,-7.416 -0.761,-11.182 0,-69.787 88.265,-80.894 196.982,-80.894 108.716,0 196.984,11.107 196.984,80.894 0,3.766 -0.257,7.502 -0.765,11.182 L 0,0 Z" /></g><g
           style="fill:#000000"
           transform="translate(607.1025,292.1934)"
           id="g28"><path
             id="path30"
             style="fill:#000000;fill-opacity:1;fill-rule:evenodd;stroke:none"
             d="M 0,0 C 26.201,0 47.476,-21.268 47.476,-47.469 47.476,-73.67 26.201,-94.943 0,-94.943 l -369.277,0 c -26.202,0 -47.475,21.273 -47.475,47.474 0,26.201 21.273,47.469 47.475,47.469 l 112.732,0 c 39.635,-17.098 70.305,-43.801 70.388,-43.715 0.082,-0.086 30.755,26.617 70.386,43.715 L 0,0 Z" /></g><g
           style="fill:#000000"
           transform="translate(420.9453,351.9072)"
           id="g32"><path
             id="path34"
             style="fill:#000000;fill-opacity:1;fill-rule:evenodd;stroke:none"
             d="m 0,0 c 57.354,0.073 179.873,-2.965 206.435,-11.854 7.44,-2.488 24.166,-11.418 29.422,-26.72 -34.379,24.024 -79.238,23.878 -125.112,16.292 C 53.68,-31.728 0.109,-78.433 0,-78.322 c -0.11,-0.111 -53.68,46.594 -110.75,56.04 -45.866,7.586 -90.728,7.732 -125.108,-16.292 5.26,15.302 21.985,24.232 29.422,26.72 C -179.877,-2.965 -57.354,0.073 0,0" /></g></g></g></g></svg>