<?xml version="1.0" encoding="UTF-8" standalone="no"?>
<svg
   xmlns:dc="http://purl.org/dc/elements/1.1/"
   xmlns:cc="http://creativecommons.org/ns#"
   xmlns:rdf="http://www.w3.org/1999/02/22-rdf-syntax-ns#"
   xmlns:svg="http://www.w3.org/2000/svg"
   xmlns="http://www.w3.org/2000/svg"
   id="svg2"
   viewBox="0 0 250 72.523636"
   height="72.523636"
   width="250"
   version="1.1">
  <metadata
     id="metadata19">
    <rdf:RDF>
      <cc:Work
         rdf:about="">
        <dc:format>image/svg+xml</dc:format>
        <dc:type
           rdf:resource="http://purl.org/dc/dcmitype/StillImage" />
        <dc:title></dc:title>
      </cc:Work>
    </rdf:RDF>
  </metadata>
  <defs
     id="defs17" />
  <g
     transform="translate(626.90548,-477.13143)"
     id="g4147"
     style="fill:#000000;fill-opacity:1">
    <g
       id="layer1"
       transform="matrix(0.83292418,0,0,0.83292418,-677.29577,68.83989)"
       style="fill:#000000;fill-opacity:1">
      <g
         style="fill:#000000;fill-opacity:1;stroke-linejoin:miter"
         id="g5">
        <path
           d="m 330.90015,507.33032 0.0322,0.41873 c 0.0215,0.27912 -0.10737,0.84812 -0.38647,1.65332 -0.6549,1.94321 -1.8681,4.99216 -2.06128,5.18543 -0.0477,0.0478 -0.22528,0.0727 -0.58585,0.0727 -0.53137,0 -1.46029,-0.0542 -2.957,-0.1693 -1.09509,-0.0752 -2.60887,-0.1718 -3.38183,-0.2148 -0.76227,-0.0321 -2.11494,-0.10733 -3.00604,-0.17166 -0.88032,-0.0537 -1.84656,-0.11814 -2.14716,-0.12894 -0.74079,-0.0322 -0.7193,-0.279 0.0537,-0.5152 0.71935,-0.21475 2.1472,-0.50467 3.21007,-0.6442 0.42938,-0.0645 0.92328,-0.17175 1.08429,-0.2577 0.16101,-0.0859 0.67639,-0.27916 1.138,-0.4402 0.47241,-0.15027 1.33124,-0.51526 1.92169,-0.7944 0.59052,-0.26837 1.37421,-0.61194 1.73925,-0.7408 0.365,-0.13954 0.8589,-0.4187 1.1058,-0.63338 0.26836,-0.22546 0.7515,-0.48312 1.20238,-0.62272 0.83746,-0.2791 2.17944,-1.09502 2.6947,-1.64257 l 0.34357,-0.35431 z m 17.64349,9.47101 c 0.0739,0 0.12439,0.0414 0.12439,0.12687 -0.0107,0.1825 -0.37573,0.6227 -0.52606,0.6227 -0.1825,0 -0.13953,-0.3328 0.0644,-0.5582 0.11374,-0.1257 0.24414,-0.19137 0.33728,-0.19137 z M 331.963,534.621 c 0.37575,0 0.4831,0.0644 0.9985,0.6119 0.35423,0.3972 0.5582,0.6979 0.54747,0.8374 -0.0215,0.1396 -0.26837,0.3328 -0.75147,0.5797 -0.56857,0.28774 -1.1983,0.43997 -1.75536,0.43997 -0.31604,0 -0.60864,-0.049 -0.85346,-0.15003 -0.59051,-0.24694 -1.23468,-0.70864 -1.23468,-0.88034 0,-0.3543 2.28674,-1.4279 3.049,-1.4386 z m 21.97325,35.0133 c 0.12495,0 0.22835,0.0359 0.27151,0.10374 0.0859,0.15026 -0.15033,0.31126 -0.46161,0.31126 -0.25769,0 -0.34355,-0.2683 -0.10735,-0.35423 0.1005,-0.0411 0.2049,-0.0608 0.29745,-0.0608 z m -106.80344,-52.9625 0,53.5085 -141.04882,0.0211 -38.529615,-0.0203 0,-53.50845 179.315975,-9e-4 z m 108.29883,54.0217 c 0.0644,0 0.10736,0.0752 0.10736,0.16105 0,0.0858 -0.043,0.16105 -0.10736,0.16105 -0.0537,0 -0.10736,-0.0752 -0.10736,-0.16105 0,-0.0859 0.0537,-0.16105 0.10736,-0.16105 z m -6.86841,-0.1961 c 0.21063,0 0.33417,0.0268 0.41614,0.078 0.0752,0.0537 0.10736,0.15026 0.0752,0.21472 -0.16107,0.24694 -1.18097,0.67634 -1.66413,0.69784 -0.0437,10e-4 -0.0837,0.002 -0.12048,0.002 -0.32476,0 -0.39719,-0.0505 -0.51288,-0.29165 -0.20404,-0.40794 -0.0967,-0.4939 0.74072,-0.6012 0.4995,-0.0674 0.83472,-0.0995 1.06543,-0.0995 z m 2.40487,0.6204 c 0.2539,0 0.46833,0.0413 0.54496,0.13403 0.12884,0.16101 0.26837,0.54747 0.2254,0.60117 -0.0429,0.0322 -0.20391,0.0751 -0.36499,0.0966 -0.16101,0.0107 -0.49383,0.0537 -0.75152,0.0967 -0.0812,0.0132 -0.16852,0.0193 -0.25815,0.0193 -0.49115,0 -1.0516,-0.183 -1.0516,-0.37364 0,-0.0752 0.0859,-0.13959 0.19323,-0.13959 0.10737,0 0.25769,-0.0644 0.32207,-0.13953 0.1877,-0.18104 0.7186,-0.29504 1.1406,-0.29504 z m -15.46087,-31.7731 c 0.0757,0.003 0.23557,0.2164 0.36367,0.4832 0.365,0.75145 0.68708,2.14714 0.86958,3.779 0.0644,0.64414 0.27912,1.4923 0.60119,2.4693 0.59053,1.7928 0.80523,2.26523 1.17023,2.59806 0.20398,0.19317 0.27912,0.37574 0.27912,0.6441 0,0.47244 0.18255,0.76224 0.99848,1.57819 0.65484,0.6549 0.6978,0.79449 0.49383,1.56745 -0.11811,0.42943 -0.0966,0.5154 0.22547,1.2131 0.19323,0.408 0.6549,1.28835 1.03063,1.94326 l 0.68713,1.20239 0,1.15949 c 0,0.64416 -0.0537,1.50296 -0.10736,1.90021 -0.0644,0.39725 -0.1181,1.32055 -0.12884,2.03985 -0.0215,1.56745 0.1073,1.98615 0.9555,3.21 0.22634,0.33505 0.36106,0.5364 0.42587,0.66537 l -0.003,0 -0.1489,0.1673 -0.17682,0.20758 -0.45938,0.59008 q -0.55658,0.85047 -0.54882,0.87732 -0.0552,0.11078 -0.1053,0.25765 l -0.3095,0.9765 q -0.0779,0.2399 -0.1039,0.4701 0.015,0.4679 0.051,0.5868 0.0277,0.129 0.11842,0.33926 l -0.003,0 c 0.0459,0.32868 0.1017,0.42064 0.2657,0.46619 0.1181,0.0322 0.934,0.0644 1.79283,0.0644 1.35279,0 1.58893,0.0214 1.72852,0.1825 0.23621,0.2791 0.63342,1.21313 0.55829,1.342 -0.0227,0.035 -0.13819,0.0506 -0.31787,0.0506 -0.75675,0 -2.65137,-0.27764 -3.53632,-0.55524 -0.28985,-0.0966 -1.04138,-0.2577 -1.66405,-0.3543 -0.726,-0.11866 -1.19325,-0.1647 -2.60862,-0.1647 -0.76158,0 -1.79761,0.0133 -3.29612,0.0359 -0.27023,0.004 -0.5122,0.007 -0.72863,0.007 -1.41745,0 -1.7406,-0.10223 -1.7406,-0.4468 0,-0.2791 0.65484,-1.503 1.58887,-2.9416 0.70855,-1.0843 1.2561,-2.09353 1.48156,-2.684 1.28834,-3.4355 1.58887,-5.19616 1.5567,-9.1792 -0.0107,-2.43706 -0.043,-2.7913 -0.38646,-4.8848 -0.1933,-1.2454 -0.3865,-2.54445 -0.4187,-2.8987 -0.2148,-2.3297 -0.2792,-3.12414 -0.38655,-4.9922 -0.20305,-3.55925 -0.21463,-3.9687 -0.0664,-3.9723 z M 354.372,490.19052 c -0.2972,0 -0.649,0.121 -1.14123,0.37036 -2.15789,1.11655 -2.9953,2.06132 -3.44617,3.88642 -0.26843,1.08432 -0.8374,1.80362 -1.8466,2.31897 -0.151,0.0755 -0.24186,0.11783 -0.36467,0.11783 -0.15655,0 -0.36503,-0.0688 -0.81625,-0.2252 -0.45093,-0.15036 -0.95551,-0.3543 -1.11652,-0.42944 -0.12481,-0.0666 -0.30761,-0.10733 -0.45352,-0.10733 -0.0424,0 -0.0817,0.003 -0.11551,0.0107 -0.15033,0.0322 -0.38653,0.0752 -0.52606,0.10737 -0.13959,0.0322 -0.51532,0.26837 -0.82667,0.53683 -0.38088,0.32645 -0.5937,0.47196 -0.73403,0.47196 -0.0812,0 -0.13809,-0.0487 -0.18924,-0.13916 -0.12403,-0.21698 -2.60543,-0.73242 -3.40383,-0.73242 -0.0311,0 -0.0596,7.6e-4 -0.0853,0.002 -0.25418,0.0185 -0.4984,0.029 -0.784,0.029 -0.36478,0 -0.7971,-0.0172 -1.40393,-0.0569 l -0.003,0 -0.20598,-0.1109 -0.10206,-0.0394 q -0.0685,-0.0165 -0.14584,-0.0235 -0.0162,3.3e-4 -0.0339,3.3e-4 -0.18253,0 -0.51337,-0.0363 -0.0299,-0.003 -0.0587,-0.003 -0.0839,0 -0.15894,0.0245 l -0.3182,0.15163 q -0.28672,0.0576 -0.45414,0.13712 l -0.56814,0.27938 q -0.49326,0.1677 -0.79065,0.29496 l -0.78302,0.42884 q -0.39991,0.27914 -0.38083,0.27914 l 6.1e-4,0 q -0.21735,0.20389 -0.44049,0.47766 -0.20004,0.16965 -0.71914,0.4878 l -0.4217,0.3579 -0.16422,0.18537 -0.21615,0.17383 q -0.27918,0.11065 -0.43763,0.25412 l -0.4341,0.43402 -0.003,0 c -0.31632,0.2196 -0.66062,0.51006 -0.9359,0.80093 l -0.003,0 q -0.24634,0.20233 -0.37036,0.38666 -0.0208,0.0389 -0.0413,0.0839 l -0.003,0 c -0.23062,0.25913 -0.52612,0.58768 -0.77463,0.8646 -0.37579,0.41873 -0.75152,0.91256 -0.82672,1.09508 -0.19317,0.45088 -0.72998,0.91255 -1.64257,1.38496 -0.0807,0.0429 -0.15271,0.0816 -0.2168,0.11679 l -0.003,0 -2.17827,0.91592 q -0.14383,0.0319 -0.76313,0.0924 -0.166,0.0276 -0.4919,0.12939 -0.3852,0.12207 -0.70923,0.25538 -1.57707,0.71985 -1.71579,0.74682 -0.19092,0.0808 -1.00925,0.24561 l -1.61633,0.52667 q -0.1932,0.0634 -1.69733,0.65567 -1.25522,0.59082 -1.34131,0.60861 l -1.54059,0.50537 -0.98852,0.50254 -0.003,0 c -0.27209,0.0696 -0.52389,0.13122 -0.71243,0.17406 -0.47241,0.0967 -1.14873,0.24696 -1.50305,0.34357 -0.35431,0.0859 -1.20238,0.19323 -1.87878,0.23621 -1.11652,0.0751 -1.503,0.16104 -2.5981,0.569 -0.161,0.0644 -0.44017,0.34352 -0.6334,0.63339 -0.1825,0.28989 -0.365,0.52603 -0.40797,0.53678 -0.0859,0.0215 -3.57501,0.0752 -9.35095,0.15035 -6.84943,0.0858 -12.47504,0.1718 -15.13758,0.21476 -1.26684,0.0213 -2.79132,0.0428 -3.38183,0.0428 -1.25604,0 -1.49225,0.0108 -4.67004,0.0537 -1.3313,0.0215 -3.21009,0.0645 -4.18703,0.1074 -0.84606,0.0278 -2.04637,0.0558 -2.86885,0.0558 -0.12723,0 -0.24545,-6.6e-4 -0.3519,-0.002 -0.61112,-0.004 -0.982,-0.008 -1.35181,-0.008 -0.67618,0 -1.34872,0.0127 -3.47934,0.0613 -1.01288,0.0225 -2.64972,0.0555 -4.18863,0.0844 l 0,0 0,-0.10096 q -0.24737,-3.18851 -3.4689,-3.56107 l -186.50537,-4.9e-4 -0.19097,0 q -3.018632,0.23188 -3.519063,3.26292 l -0.0099,60.78814 q 0.289306,3.42066 3.752593,3.59426 l 185.74965,0 q 0.15946,0.003 0.30545,0.003 1.10794,0 1.44059,-0.1723 2.30565,-0.91492 2.4447,-3.26637 l 0.001,-59.74816 -0.003,0 c 0.038,-9.8e-4 0.0752,-0.002 0.11154,-0.003 2.35117,-0.0752 6.90317,-0.1396 14.25725,-0.22545 2.4907,-0.0215 4.57347,-0.0644 4.61644,-0.0967 0.043,-0.0215 3.09192,-0.0751 6.7851,-0.11807 3.69311,-0.0322 7.2467,-0.0966 7.89086,-0.1289 0.53467,-0.0174 1.04783,-0.035 1.2825,-0.035 0.0528,0 0.0915,9.2e-4 0.11313,0.003 0.0968,0.006 0.36267,0.01 0.81867,0.01 1.11142,0 3.35245,-0.0209 7.0293,-0.0742 1.27896,-0.016 2.27224,-0.0246 3.02362,-0.0246 1.2669,0 1.846,0.0243 1.94708,0.0783 0.1825,0.1073 0.22546,0.2254 0.22546,0.66556 0,0.45094 0.0322,0.54754 0.25764,0.64414 0.0719,0.0341 0.13314,0.0535 0.19875,0.0535 0.12052,0 0.2558,-0.0654 0.49912,-0.2253 l 0.44013,-0.3005 0.52605,0.2362 c 0.28992,0.118 0.61195,0.2254 0.69782,0.2254 0.0967,0 0.22546,0.0966 0.30066,0.2147 0.0751,0.1181 0.39722,0.28986 0.70857,0.38654 0.2815,0.0899 0.46275,0.13286 0.7004,0.13286 0.1883,0 0.41195,-0.027 0.74893,-0.0792 0.78369,-0.1181 2.65173,-0.75154 2.92017,-0.98774 0.0635,-0.0636 0.14028,-0.0947 0.22482,-0.0947 0.14401,0 0.31063,0.0906 0.47298,0.26647 0.16105,0.1722 0.30775,0.2553 0.5203,0.2553 0.19837,0 0.4541,-0.0724 0.83243,-0.2123 0.33261,-0.12404 0.59711,-0.18294 1.26913,-0.18294 0.60782,0 1.54902,0.0481 3.17551,0.13994 0.50458,0.0322 1.90027,0.0967 3.1134,0.1611 1.21313,0.0644 2.83429,0.16105 3.5965,0.2254 0.77301,0.0537 1.66406,0.11815 1.98615,0.13963 1.92175,0.13953 2.49072,0.21473 2.54443,0.34351 0.0644,0.18249 -0.35425,0.97693 -0.8374,1.5567 -0.44019,0.53681 -1.07355,1.72846 -1.32055,2.47996 -0.45088,1.4387 -0.71925,2.60885 -0.6441,2.8128 0.0752,0.204 -0.37575,1.1273 -0.6227,1.2561 -0.24688,0.1289 -0.94476,1.23465 -1.07354,1.67484 -0.0537,0.21472 -0.21472,0.4187 -0.39728,0.50456 -0.26838,0.1396 -0.54755,0.5583 -0.54755,0.8374 0,0.1181 -0.4187,0.6442 -0.9555,1.2132 -0.17175,0.17176 -0.47235,0.59047 -0.68701,0.9125 -0.20404,0.3221 -0.69788,0.97704 -1.0951,1.4493 -2.15789,2.54446 -3.69317,4.9493 -5.50756,8.5888 -0.20392,0.40793 -0.55823,0.9984 -0.7837,1.29904 -0.43252,0.56153 -0.74173,1.25721 -0.88961,1.95036 l -0.003,0 q -0.11763,0.2173 -0.35433,0.59975 -0.034,0.0661 -0.0621,0.14535 l -0.21506,0.65086 -0.72412,1.04494 q -0.0851,0.1336 -0.15371,0.2961 l -0.53467,1.35104 q -0.0467,0.15296 -0.20191,1.06676 l -0.22735,0.74836 -0.0467,0.33614 -0.12405,0.2288 -0.003,0 c -0.2807,0.45044 -0.74134,1.4931 -1.06584,2.414 -0.16106,0.47235 -0.50463,1.36347 -0.7515,1.98615 -0.82667,2.05055 -3.00606,8.41695 -3.00606,8.7605 0,0.0966 -0.1181,0.51532 -0.25769,0.93402 -0.17175,0.51533 -0.27911,1.14873 -0.33275,1.92169 -0.0645,1.07361 -0.0537,1.15948 0.161,1.37421 0.20398,0.20398 0.21472,0.24688 0.0751,0.40803 -0.0966,0.0965 -0.19324,0.40794 -0.23614,0.69774 -0.043,0.27916 -0.1181,0.53686 -0.17182,0.56906 -0.0537,0.0321 -0.0966,0.1717 -0.0966,0.30057 0,0.33276 -0.3006,1.04138 -0.50458,1.19173 -0.19324,0.15025 -0.35431,0.94474 -0.27911,1.3957 0.0537,0.31125 0.1181,0.36496 0.88031,0.6226 0.70855,0.2469 0.99847,0.28985 2.21162,0.3006 0.10555,10e-4 0.20464,0.002 0.29787,0.002 0.88345,0 1.24003,-0.0482 1.57016,-0.1841 l 0.47235,-0.1825 -0.0129,-0.10175 -0.003,0 q 0.0369,-0.0457 0.0606,-0.094 l 0.14394,-0.29216 q 0.0253,-0.0545 0.033,-0.0834 0.0162,-0.0554 0.0247,-0.143 0.0283,-0.3557 0.0201,-0.39044 -0.0208,-0.32316 -0.0507,-0.4884 l -0.0112,-0.1828 -0.0902,-0.58301 -0.0222,-0.22369 -0.0854,-0.59516 q -0.017,-0.2336 -0.0293,-0.3745 l -0.003,0 c 0.0289,-0.0153 0.0686,-0.023 0.11941,-0.023 0.11329,0 0.28168,0.0386 0.50763,0.1183 0.23478,0.077 0.4169,0.119 0.56696,0.119 0.28909,0 0.45907,-0.1557 0.65697,-0.5162 0.37574,-0.68706 0.46162,-0.8267 0.63344,-1.01995 0.25762,-0.28979 0.67633,-1.19165 0.86956,-1.85725 0.62268,-2.13646 1.82514,-6.5811 2.115,-7.8909 0.5153,-2.23305 0.74078,-2.9201 1.36346,-4.15474 0.42938,-0.86963 0.89104,-2.49076 0.89104,-3.15636 0,-0.25764 0.62275,-0.96626 1.2776,-1.4601 0.20398,-0.16107 0.63342,-0.6763 0.96618,-1.1702 0.55829,-0.81594 0.63349,-0.8911 1.10584,-1.0092 0.65485,-0.161 1.30975,-0.6012 1.64258,-1.1058 0.1396,-0.2147 0.42944,-0.6442 0.64416,-0.934 0.46167,-0.64414 0.91254,-1.4923 0.91254,-1.707 0,-0.17176 0.48315,-0.6764 2.52295,-2.6625 0.70855,-0.6871 1.52447,-1.5138 1.80365,-1.84654 0.28985,-0.33286 0.5797,-0.60126 0.65484,-0.60126 0.0751,0 0.26844,0.1181 0.41871,0.2577 0.15033,0.1395 0.54755,0.3865 0.88031,0.5583 0.48919,0.236 1.04874,0.3519 1.62097,0.3519 0.85947,0 1.74762,-0.2615 2.46942,-0.7707 l 0.49383,-0.34354 0.24695,0.3114 c 0.26843,0.33274 0.31134,0.7193 0.53681,5.53964 0.13958,3.11343 0.40796,6.1839 0.64416,7.35416 0.21472,1.11654 0.49384,3.41394 0.5368,4.45538 0.0214,0.50456 0.0751,1.34196 0.10737,1.87872 0.0859,1.0951 -0.17177,4.0904 -0.44019,5.27134 -0.46168,2.0076 -1.2561,4.0153 -2.14722,5.42166 -0.13952,0.22544 -0.25763,0.44018 -0.25763,0.4616 0,0.0322 -0.20397,0.35434 -0.4616,0.73004 -0.80523,1.181 -1.39569,2.437 -1.39569,2.96314 0,0.24686 0.0429,0.50456 0.0966,0.54746 0.26838,0.26846 2.47998,0.4402 5.55048,0.4402 l 3.13489,0 1.34198,0.3865 1.34192,0.3972 4.88488,0.043 c 0.87125,0.007 1.61997,0.0114 2.26386,0.0114 3.17244,0 3.80057,-0.10176 4.00586,-0.4409 0.0966,-0.161 0.0645,-0.22544 -0.15027,-0.3972 -0.15033,-0.10735 -0.23621,-0.2362 -0.1933,-0.26836 0.0159,-0.0159 0.0652,-0.0231 0.13835,-0.0231 0.3703,0 1.3532,0.18385 1.7297,0.3452 0.12386,0.0522 0.2111,0.0865 0.27557,0.0865 0.14789,0 0.17578,-0.18065 0.25055,-0.7414 0.0751,-0.56895 0.53674,-1.90025 0.77295,-2.24376 0.2362,-0.34354 0.17175,-0.75154 -0.12885,-0.89114 -0.1113,-0.049 -0.20267,-0.0762 -0.28378,-0.0762 -0.18488,0 -0.31664,0.1409 -0.51064,0.4842 -0.16304,0.2989 -0.2358,0.41295 -0.37874,0.41295 -0.083,0 -0.1896,-0.0385 -0.35131,-0.10155 -0.29758,-0.1171 -0.8545,-0.17213 -1.36457,-0.17213 -0.61248,0 -1.15744,0.0793 -1.10468,0.22577 0.0214,0.0644 -0.13958,0.31136 -0.36504,0.5368 -0.32209,0.34351 -0.4831,0.42946 -0.79444,0.42946 -0.32208,0 -0.46167,-0.0752 -0.76227,-0.42946 -0.20398,-0.22544 -0.47235,-0.612 -0.59045,-0.8374 -0.12885,-0.23621 -0.50458,-0.8374 -0.82666,-1.34198 -0.19888,-0.30151 -0.40158,-0.62219 -0.55316,-0.8681 l -0.003,0 q 0.0151,-0.17596 0.0209,-0.34206 0.006,-0.1563 -0.0527,-0.6248 l -0.0879,-0.4242 -0.0541,-0.3 -0.003,0 c 0.0468,-0.1499 0.13123,-0.3244 0.22943,-0.4576 0.22547,-0.3114 0.26837,-0.4832 0.26837,-1.1166 -0.0107,-0.4187 -0.12883,-1.2991 -0.27911,-1.9432 -0.22546,-1.0092 -0.57972,-2.6947 -1.00922,-4.8311 -0.0537,-0.30065 -0.12878,-1.2131 -0.15026,-2.03985 -0.0537,-1.71771 -0.38654,-3.87565 -0.69782,-4.50909 -0.1181,-0.23616 -0.26842,-0.6012 -0.34357,-0.79446 -0.0751,-0.20396 -0.26837,-0.52604 -0.44018,-0.70854 -0.16101,-0.18246 -0.36499,-0.55826 -0.46161,-0.82666 -0.13959,-0.4401 -0.13959,-0.52606 0,-0.7944 0.21472,-0.4188 0.10736,-1.58896 -0.22546,-2.50155 -0.17176,-0.45085 -0.2577,-0.92325 -0.2577,-1.39565 -0.0107,-0.9554 -0.2791,-3.63945 -0.47235,-4.6271 -0.33282,-1.7822 -0.62268,-3.3389 -0.81591,-4.48763 -0.11811,-0.66567 -0.27912,-1.43857 -0.36506,-1.71777 -0.2362,-0.8159 -0.38648,-1.50306 -0.38648,-1.79285 0,-0.21475 0.0537,-0.26845 0.25764,-0.26845 0.21478,0 0.33282,-0.12877 0.64416,-0.7622 0.21473,-0.42943 0.38654,-0.8589 0.38654,-0.96624 0,-0.10736 0.0751,-0.36506 0.17176,-0.56903 0.31133,-0.63343 0.13952,-1.07363 -0.7193,-1.92169 -0.48316,-0.47244 -0.7408,-0.81598 -0.7408,-0.96624 0.0108,-0.13953 0.34358,-0.59046 0.8374,-1.138 l 0.8374,-0.89106 1.12727,0.3435 c 0.61193,0.1825 1.59967,0.48316 2.19013,0.66566 0.59045,0.17175 1.3205,0.4187 1.6211,0.5368 0.27602,0.1096 0.50143,0.1687 0.70672,0.1687 0.37762,0 0.68716,-0.19977 1.11834,-0.6518 0.30066,-0.30065 0.64417,-0.7086 0.77301,-0.8911 0.53681,-0.7837 1.01996,-2.3942 1.84663,-6.05506 0.37573,-1.68554 0.83733,-5.62558 0.85882,-7.30039 0,-0.55825 0.0537,-1.34201 0.10736,-1.74995 l 0.10736,-0.71928 -0.48309,-1.01992 c -0.26845,-0.5583 -0.57978,-1.06285 -0.68715,-1.12727 -0.25762,-0.13959 -0.39714,-0.70856 -0.2254,-0.91257 0.0752,-0.0859 0.28987,-0.16104 0.47236,-0.16104 0.18256,0 0.44019,-0.0644 0.55829,-0.15027 0.1181,-0.086 0.42938,-0.17178 0.69782,-0.1933 l 0.47241,-0.0322 0.38647,-1.12724 0.38648,-1.12732 0.45092,-0.0536 c 0.37575,-0.0429 0.51532,-0.12888 0.81592,-0.51536 0.20398,-0.25766 0.4187,-0.64414 0.49383,-0.85884 0.19325,-0.59053 0.57972,-1.11656 0.93403,-1.26683 0.2362,-0.0967 0.33282,-0.22547 0.38647,-0.50461 0.043,-0.20398 0.1396,-0.40799 0.22547,-0.44016 0.0859,-0.0322 0.16107,-0.17178 0.16107,-0.32208 0,-0.15032 0.0429,-0.30062 0.10736,-0.33282 0.1181,-0.0752 0.0429,-1.3635 -0.10736,-1.77142 -0.043,-0.15033 -0.1181,-0.44016 -0.16107,-0.65488 -0.0322,-0.22546 -0.1825,-0.57977 -0.33277,-0.79446 -0.1718,-0.24698 -0.2362,-0.47236 -0.20404,-0.61197 0.0751,-0.22547 -0.26836,-0.61194 -0.78369,-0.88034 -0.16101,-0.0858 -0.52607,-0.39723 -0.80524,-0.69783 -0.37573,-0.3972 -0.62263,-0.55825 -0.91247,-0.61193 -0.21472,-0.0322 -0.66566,-0.1503 -0.99846,-0.2684 -0.3221,-0.10737 -0.70857,-0.20395 -0.8589,-0.20395 -0.13953,-0.0107 -0.37573,-0.0752 -0.52606,-0.1611 -0.1669,-0.096 -0.33384,-0.1449 -0.52284,-0.1449 z"
           id="path7"
           style="fill:#000000;fill-opacity:1" />
      </g>
      <g
         id="g9"
         style="fill:#000000;fill-opacity:1">
        <g
           style="fill:#000000;fill-opacity:1;stroke-linejoin:miter"
           id="g11">
          <path
             d="m 229.06181,530.8143 q 1.48759,0.0226 2.59363,1.1227 1.13316,1.0466 1.13751,2.6614 0.002,0.56505 -0.15847,1.1308 -0.16018,0.4847 -0.4013,0.88915 l -0.0803,0.16175 q -0.563,0.8089 -1.45006,1.21496 -0.80629,0.40588 -1.77516,0.40838 -0.24222,7.6e-4 -0.48444,10e-4 -0.006,5e-5 -0.0118,-10e-5 -0.15843,-0.002 -0.39206,-0.0796 -0.48468,-0.0794 -0.96997,-0.40103 -0.40437,-0.2413 -0.80888,-0.5631 -0.40477,-0.4025 -0.64827,-0.8864 -0.24353,-0.4837 -0.32578,-1.0487 -0.0812,-0.1612 -0.0816,-0.3227 -4.4e-4,-0.1615 -8.4e-4,-0.3229 -0.0848,-1.5339 0.96151,-2.74777 1.04633,-1.21399 2.82258,-1.21873 0.037,-10e-5 0.0738,5e-4 z m -82.90176,0.1434 q 4.92694,0.0749 8.55809,3.60816 3.64296,3.62344 3.6566,8.71004 0.0139,5.1673 -3.69037,8.8105 -3.62349,3.643 -8.71,3.65664 -0.13044,3.1e-4 -0.25991,-0.002 -4.9993,-0.076 -8.55031,-3.60786 -3.64297,-3.62359 -3.65683,-8.79089 -0.0136,-5.08655 3.60984,-8.72961 3.62349,-3.64301 8.79075,-3.65684 0.1265,-4e-4 0.25214,0.002 z m 58.40408,-15.33813 -24.94824,0.067 0.0459,17.1167 7.83162,-0.0211 0.10213,38.1088 17.11654,-0.0459 -0.14795,-55.22553 z M 87.87427,514.5646 q -0.231715,-0.004 -0.465426,-0.003 -8.800499,0.0236 -15.081169,6.33819 -6.280905,6.23383 -6.25705,15.11516 l 17.116525,-0.0459 q -0.0048,-1.77626 1.283576,-3.07156 1.207834,-1.21433 2.98407,-1.2191 0.04735,-1e-4 0.09433,5.6e-4 1.79569,0.0273 3.057926,1.28277 1.214334,1.20783 1.219094,2.98413 4.34e-4,0.16144 0.0011,0.40369 4.45e-4,0.16145 -0.07965,0.40385 8.8e-4,0.32295 -0.07922,0.56545 -0.08008,0.24245 -0.240915,0.48511 -5.467886,8.33074 -11.01629,16.74254 -5.54862,8.3311 -11.097226,16.66224 l 41.903145,-0.11267 -0.0459,-17.11657 -9.93081,0.0267 q 0.4827,-0.64716 0.96517,-1.37512 0.40195,-0.64694 0.88467,-1.29424 1.60869,-2.26496 3.05547,-4.6911 1.36627,-2.34516 2.08598,-4.9308 0.40001,-1.37347 0.55758,-2.82727 0.15781,-1.37298 0.15411,-2.74553 0.058,-8.47785 -6.09589,-15.08204 -5.998769,-6.35906 -14.973169,-6.49546 z m 58.59616,-0.8021 q -0.30323,-0.005 -0.60864,-0.004 -12.1915,0.0327 -20.8879,8.77587 -8.61584,8.66229 -8.58313,20.85388 0.0327,12.19165 8.77587,20.888 8.44513,8.40005 20.24501,8.57935 0.30322,0.005 0.60862,0.004 12.1915,-0.0328 20.88787,-8.77594 8.61587,-8.6623 8.58319,-20.8538 -0.0327,-12.1916 -8.7758,-20.88814 -8.4452,-8.40003 -20.24509,-8.57936 z m 82.90208,-0.0627 q -0.21437,-0.003 -0.43031,-0.003 -8.71979,0.0234 -14.83946,6.176 -6.11968,6.1527 -6.09658,14.79176 0.0182,6.78214 3.9889,12.18109 3.88972,5.3183 9.95112,7.56262 l -9.08186,15.52649 15.68225,7.06304 q 1.5269,-2.6686 3.61678,-6.146 2.00941,-3.3964 4.09887,-7.0353 4.01811,-7.0352 7.39354,-12.85745 3.37569,-5.74155 3.37569,-5.74155 1.36632,-2.34506 2.1663,-5.09256 0.71955,-2.66619 0.71177,-5.57284 -0.0231,-8.63913 -6.17571,-14.7588 -5.99879,-5.96676 -14.3613,-6.09383 z"
             id="path13"
             style="fill:#000000;fill-opacity:1" />
        </g>
      </g>
    </g>
  </g>
</svg>
