<?xml version="1.0" encoding="UTF-8" standalone="no"?>
<svg
   xmlns:dc="http://purl.org/dc/elements/1.1/"
   xmlns:cc="http://creativecommons.org/ns#"
   xmlns:rdf="http://www.w3.org/1999/02/22-rdf-syntax-ns#"
   xmlns:svg="http://www.w3.org/2000/svg"
   xmlns="http://www.w3.org/2000/svg"
   version="1.1"
   id="svg2"
   viewBox="0 0 231.34572 69.157669">
  <metadata
     id="metadata12">
    <rdf:RDF>
      <cc:Work
         rdf:about="">
        <dc:format>image/svg+xml</dc:format>
        <dc:type
           rdf:resource="http://purl.org/dc/dcmitype/StillImage" />
        <dc:title></dc:title>
      </cc:Work>
    </rdf:RDF>
  </metadata>
  <defs
     id="defs10" />
  <g
     id="g4"
     transform="translate(-32.899 -340.64)">
    <path
       style="fill-rule:evenodd"
       id="path6"
       d="m 213.1926,335.06389 0.9714,4.9013 2.14159,0.20974 0.27597,-1.31362 21.60284,8.42275 -21.32728,9.38309 -0.37533,1.50132 -1.4461,0 0,1.88764 -2.46167,0 0,1.4461 -24.46218,-0.28702 -0.19871,1.37986 -5.28762,0 0,-3.33374 -15.05748,0 -0.19867,3.13512 -5.28763,0.19869 0,-3.33374 -8.37854,0 0,3.33374 -5.28762,-0.19869 -0.19871,-3.13512 -15.05747,0 0,3.33374 -5.28773,0 -0.19867,-1.37986 -49.885044,0.59611 -22.883386,1.4461 c -3.464711,-0.1245 -7.483459,0.81884 -8.212992,2.35123 -2.310815,6.13721 -3.774959,14.2751 -4.713592,22.60782 l -0.187662,12.13222 2.152611,0 0.220773,0.86102 -6.082425,0 c -0.307093,-0.39711 -0.868447,-0.66233 -1.523362,-0.66233 l -1.887642,0 c -0.982377,0 -1.777309,0.59322 -1.777309,1.33566 0,0.74245 0.794878,1.34679 1.777309,1.34679 l 1.887642,0 c 0.638554,0 1.189124,-0.25957 1.501317,-0.64026 l 6.446705,0 0.220761,0.89415 -1.964906,0.38636 c 0.207048,1.43918 1.61046,2.36625 5.674055,2.15261 l 31.891504,-0.19871 c 0.60258,3.31645 6.095285,5.71469 9.780551,2.35134 l 1.181127,1.17011 18.391215,0 1.17021,-0.97142 c 3.76264,2.30476 8.4637,1.45096 9.39412,-2.73767 l 1.56756,0 0.58505,0.58507 70.99188,0 0.58504,-0.58507 1.56756,0 c 0.9304,4.18863 5.63148,5.04243 9.39412,2.73767 l 1.17011,0.97142 18.39121,0 1.18113,-1.17011 c 3.68526,3.36335 9.17788,0.96513 9.78055,-2.35134 l 31.8915,0.19871 c 4.0636,0.21361 5.46701,-0.71341 5.67395,-2.15261 l -1.96491,-0.38636 0.22078,-0.89415 6.4467,0 c 0.31213,0.38069 0.86274,0.64026 1.50132,0.64026 l 1.88764,0 c 0.98233,0 1.7772,-0.60426 1.7772,-1.34679 0,-0.74253 -0.79498,-1.33566 -1.7772,-1.33566 l -1.88764,0 c -0.65494,0 -1.21625,0.26522 -1.52336,0.66233 l -6.08243,0 0.22077,-0.86102 2.15251,0 -0.18767,-12.13222 c -0.93862,-8.33272 -2.40277,-16.47093 -4.71359,-22.60782 -0.72956,-1.53244 -4.74828,-2.47583 -8.21299,-2.35123 l -22.88339,-1.4461 -2.99161,-0.0331 0,-1.72209 -3.35578,0 0,-1.88764 -0.93835,0 -0.25384,-1.90969 -7.87076,-0.20975 18.70027,-8.48898 0.0773,-1.31361 -23.74465,-9.18437 0.27594,-1.93184 -4.70257,-0.0662 z m -132.160845,35.37977 9.294809,0 0,3.75324 -9.294809,0 0,-3.75324 z m 10.199943,0 9.305832,0 0,3.75324 -9.305832,0 0,-3.75324 z m 12.231632,0 9.29481,0 0,3.75324 -9.29481,0 0,-3.75324 z m 10.19994,0 9.30583,0 0,3.75324 -9.30583,0 0,-3.75324 z m 11.89988,0 8.80907,0 0,3.75324 -8.80907,0 0,-3.75324 z m 9.65909,0 8.82009,0 0,3.75324 -8.82009,0 0,-3.75324 z m 36.5166,0 8.80906,0 0,3.75324 -8.80906,0 0,-3.75324 z m 9.67011,0 8.79804,0 0,3.75324 -8.79804,0 0,-3.75324 z m 11.40279,0 9.30583,0 0,3.75324 -9.30583,0 0,-3.75324 z m 10.21096,0 9.29481,0 0,3.75324 -9.29481,0 0,-3.75324 z m 12.21975,0 9.30583,0 0,3.75324 -9.30583,0 0,-3.75324 z m 10.21096,0 9.29481,0 0,3.75324 -9.29481,0 0,-3.75324 z m -178.995279,0.66234 5.353865,0 c 0.982378,0 1.766179,0.79489 1.766179,1.77731 l 0,12.518 c -1.1e-5,0.98238 -0.783855,1.76618 -1.766179,1.76618 l -8.389566,0 c 0.601532,-5.47122 1.414326,-10.88193 3.035701,-16.06138 z m 217.508879,0 5.35386,0 c 1.62127,5.17988 2.4232,10.59038 3.02468,16.06138 l -8.37854,0 c -0.98238,0 -1.77731,-0.78386 -1.77731,-1.76618 l 0,-12.518 c 0,-0.98238 0.79489,-1.77731 1.77731,-1.77731 z m -204.336019,1.66687 4.481798,0 c 0.982377,0 1.766179,0.79489 1.766179,1.77731 l 0,20.96311 c -1.1e-5,0.9824 -0.783845,1.77731 -1.766179,1.77731 l -4.481798,0 c -0.982389,0 -1.777202,-0.79488 -1.777202,-1.77731 l 0,-20.96311 c 0,-0.98238 0.794878,-1.77731 1.777202,-1.77731 z m 10.531155,0 4.481798,0 c 0.982378,0 1.77731,0.79489 1.77731,1.77731 l 0,20.96311 c 0,0.9824 -0.794899,1.77731 -1.77731,1.77731 l -4.481798,0 c -0.982377,0 -1.777309,-0.79488 -1.777309,-1.77731 l 0,-20.96311 c 0,-0.98238 0.794899,-1.77731 1.777309,-1.77731 z m 79.590444,0 4.48179,0 c 0.98239,0 1.77731,0.79489 1.77731,1.77731 l 0,20.96311 c 0,0.9824 -0.79493,1.77731 -1.77731,1.77731 l -4.48179,0 c -0.9824,0 -1.7772,-0.79488 -1.7772,-1.77731 l 0,-20.96311 c -4e-5,-0.98238 0.79485,-1.77731 1.7772,-1.77731 z m 11.77885,0 4.48179,0 c 0.98239,0 1.77731,0.79489 1.77731,1.77731 l 0,20.96311 c 0,0.9824 -0.79481,1.77731 -1.77731,1.77731 l -4.48179,0 c -0.98243,0 -1.77731,-0.79488 -1.77731,-1.77731 l 0,-20.96311 c 0,-0.98238 0.79485,-1.77731 1.77731,-1.77731 z m 79.59044,0 4.4819,0 c 0.98233,0 1.7772,0.79489 1.7772,1.77731 l 0,20.96311 c 0,0.9824 -0.79495,1.77731 -1.7772,1.77731 l -4.4819,0 c -0.98233,0 -1.77721,-0.79488 -1.77721,-1.77731 l 0,-20.96311 c 0,-0.98238 0.79499,-1.77731 1.77721,-1.77731 z m 10.53115,0 4.4818,0 c 0.98237,0 1.7772,0.79489 1.77731,1.77731 l 0,20.96311 c 0,0.9824 -0.79482,1.77731 -1.77731,1.77731 l -4.4818,0 c -0.98241,0 -1.77731,-0.79488 -1.77731,-1.77731 l 0,-20.96311 c 0,-0.98238 0.79483,-1.77731 1.77731,-1.77731 z m -170.620411,2.14159 19.472921,0 0,12.02091 -19.472921,0 0,-12.02091 z m 22.431681,0 19.47293,0 0,12.02091 -19.47293,0 0,-12.02091 z m 22.09993,0 18.44633,0 0,16.7238 -14.18541,0 -4.26102,-4.70257 0,-12.02091 z m 46.18714,0 18.44633,0 0,12.02091 -4.26103,4.70257 -14.18541,0 0,-16.7238 z m 21.07333,0 19.47293,0 0,12.02091 -19.47293,0 0,-12.02091 z m 22.43061,0 19.47292,0 0,12.02091 -19.47292,0 0,-12.02091 z" />
  </g>
</svg>
